<svg xmlns="http://www.w3.org/2000/svg" xmlns:xlink="http://www.w3.org/1999/xlink" version="1.1" width="2649" height="3170" style="width: 2649px; height: 3170px; background: #ffffff" viewBox="0 0 2649 3170"><style id="v-3" type="text/css">        .joint-element .scalable * {            vector-effect: non-scaling-stroke;        }    </style><defs joint-selector="defs"><marker id="v-21252848929" orient="auto" overflow="visible" markerUnits="userSpaceOnUse"><path id="v-83" stroke="#444444" fill="#444444" transform="rotate(180)" d="M 20 -10 0 0 20 10 Z"></path></marker><marker id="v-2-597729461" orient="auto" overflow="visible" markerUnits="userSpaceOnUse"><path id="v-133" stroke="#d9821b" fill="#d9821b" transform="rotate(180)" d="M 30 -15 0 0 30 15 Z"></path></marker><marker id="v-2851464353" orient="auto" overflow="visible" markerUnits="userSpaceOnUse"><path id="v-225" stroke="#9e9e9e" fill="#9e9e9e" transform="rotate(180)" d="M 20 -10 0 0 20 10 Z"></path></marker></defs><g joint-selector="layers"  transform="matrix(1,0,0,1,0,0)"><g  style="pointer-events: none;"></g><g ></g><g  style="user-select: none;"><!--z-index:0--><!--z-index:1--><!--z-index:2--><!--z-index:3--><!--z-index:4--><!--z-index:5--><!--z-index:6--><!--z-index:7--><!--z-index:8--><!--z-index:9--><!--z-index:10--><!--z-index:11--><!--z-index:12--><!--z-index:13--><!--z-index:14--><!--z-index:15--><!--z-index:16--><!--z-index:17--><!--z-index:18--><!--z-index:19--><!--z-index:20--><g   id="j_3"  transform="translate(20,3126)"><g id="v-8"><text  id="v-9" font-size="24px" xml:space="preserve" y="0.8em" font-weight="normal" text-anchor="start" fill="#444444" pointer-events="none" display="block" font-family="Tahoma, Verdana, Helvetica, Arial"><tspan dy="0"  display="none">Thursday, August 6, 2026 at 8:10 PM Central European Summer Time</tspan></text></g></g><!--z-index:21--><g   id="j_2"  transform="translate(20,3092)"><g id="v-6"><text  id="v-7" font-size="24px" xml:space="preserve" y="0.8em" font-weight="normal" text-anchor="start" fill="#444444" pointer-events="none" display="block" font-family="Tahoma, Verdana, Helvetica, Arial"><tspan dy="0"  display="none">Integración del flujo de trabajo: del inicio de sesión al repositorio registrado, y la vida posterior del componente generado.</tspan></text></g></g><!--z-index:22--><g   id="j_1"  transform="translate(20,3046)"><g id="v-4"><text  id="v-5" font-size="36px" xml:space="preserve" y="0.8em" font-weight="normal" text-anchor="start" fill="#444444" pointer-events="none" display="block" font-family="Tahoma, Verdana, Helvetica, Arial"><tspan dy="0"  display="none">Dynamic View</tspan></text></g></g><!--z-index:23--><g   id="j_4"  transform="translate(1444,142)" style=""><g  id="v-10" style="opacity: 1;"><rect  x="0" y="160" width="400" height="240" rx="70" id="v-12" stroke-width="2" pointer-events="visiblePainted" fill="#08427b" stroke="#073b6f" stroke-dasharray="" style="fill: rgb(8, 66, 123); stroke: rgb(7, 59, 111);"></rect><circle  cx="200" cy="88.88888888888889" r="88.88888888888889" id="v-11" stroke-width="2" pointer-events="visiblePainted" fill="#08427b" stroke="#073b6f" stroke-dasharray="" style="fill: rgb(8, 66, 123); stroke: rgb(7, 59, 111);"></circle><line  x1="80" y1="266.6666666666667" x2="80" y2="400" id="v-18" stroke="#073b6f" stroke-width="1" stroke-dasharray="" style="stroke: rgb(7, 59, 111);"></line><line  x1="320" y1="266.6666666666667" x2="320" y2="400" id="v-19" stroke="#073b6f" stroke-width="1" stroke-dasharray="" style="stroke: rgb(7, 59, 111);"></line><text  id="v-13" font-size="33.599999999999994px" xml:space="preserve" y="250.8" font-weight="bold" text-anchor="middle" pointer-events="visible" font-family="Tahoma, Verdana, Helvetica, Arial" fill="#ffffff" dominant-baseline="hanging" transform="matrix(1,0,0,1,200,0)" style="fill: rgb(255, 255, 255);"><tspan dy="0" >Desarrollador</tspan></text><text  id="v-14" font-size="16.799999999999997px" xml:space="preserve" y="292.4" text-anchor="middle" font-family="Tahoma, Verdana, Helvetica, Arial" fill="#ffffff" dominant-baseline="hanging" transform="matrix(1,0,0,1,200,0)" style="display: block; fill: rgb(255, 255, 255);"><tspan dy="0" >[Person]</tspan></text><text  id="v-15" font-size="24px" xml:space="preserve" display="none" y="250.8" text-anchor="middle" font-family="Tahoma, Verdana, Helvetica, Arial" fill="#ffffff" dominant-baseline="hanging" transform="matrix(1,0,0,1,200,0)" style="display: block; fill: rgb(255, 255, 255);"><tspan dy="0"  style="fill-opacity: 0; stroke-opacity: 0;">-</tspan></text><g  id="v-16" font-weight="normal" text-anchor="middle" color="#ffffff" transform="matrix(1,0,0,1,197.5,368)" display="none" style="fill: rgb(255, 255, 255);"><g ></g><g ></g><g ></g><g ></g></g><image  id="v-17"></image></g></g><!--z-index:24--><g   id="j_5"  transform="translate(1262,1098)" style=""><g  id="v-23" style="opacity: 1;"><rect  id="v-24" rx="20" ry="20" stroke-width="2" pointer-events="visiblePainted" fill="#1168bd" stroke="#0f5eaa" stroke-dasharray="" width="400" height="220" style="fill: rgb(17, 104, 189); stroke: rgb(15, 94, 170);"></rect><text  id="v-25" font-size="33.599999999999994px" xml:space="preserve" y="60.64000000000001" font-weight="bold" text-anchor="middle" pointer-events="visible" font-family="Tahoma, Verdana, Helvetica, Arial" fill="#ffffff" dominant-baseline="hanging" transform="matrix(1,0,0,1,200,0)" style="fill: rgb(255, 255, 255);"><tspan dy="0" >Portal interno de</tspan><tspan dy="1.2em" x="0" >desarrolladores</tspan></text><text  id="v-26" font-size="16.799999999999997px" xml:space="preserve" y="142.56" text-anchor="middle" font-family="Tahoma, Verdana, Helvetica, Arial" fill="#ffffff" dominant-baseline="hanging" transform="matrix(1,0,0,1,200,0)" style="display: block; fill: rgb(255, 255, 255);"><tspan dy="0" >[Software System]</tspan></text><text  id="v-27" font-size="24px" xml:space="preserve" display="none" y="60.64000000000001" text-anchor="middle" font-family="Tahoma, Verdana, Helvetica, Arial" fill="#ffffff" dominant-baseline="hanging" transform="matrix(1,0,0,1,200,0)" style="display: block; fill: rgb(255, 255, 255);"><tspan dy="0"  style="fill-opacity: 0; stroke-opacity: 0;">-</tspan></text><g  id="v-28" color="#ffffff" transform="matrix(1,0,0,1,185,188)" display="none" style="fill: rgb(255, 255, 255);"><g  transform="translate(5 0)"><svg xmlns="http://www.w3.org/2000/svg" width="20" height="20" fill="currentColor" viewBox="0 0 16 16"><path fill-rule="evenodd" d="M6.5 12a5.5 5.5 0 1 0 0-11 5.5 5.5 0 0 0 0 11zM13 6.5a6.5 6.5 0 1 1-13 0 6.5 6.5 0 0 1 13 0z"></path><path d="M10.344 11.742c.03.04.062.078.098.115l3.85 3.85a1 1 0 0 0 1.415-1.414l-3.85-3.85a1.007 1.007 0 0 0-.115-.1 6.538 6.538 0 0 1-1.398 1.4z"></path><path fill-rule="evenodd" d="M6.5 3a.5.5 0 0 1 .5.5V6h2.5a.5.5 0 0 1 0 1H7v2.5a.5.5 0 0 1-1 0V7H3.5a.5.5 0 0 1 0-1H6V3.5a.5.5 0 0 1 .5-.5z"></path></svg></g><g ></g><g ></g><g ></g></g><image  id="v-29"></image></g></g><!--z-index:25--><g   id="j_6"  transform="translate(1977,1915)" style=""><g  id="v-33" style="opacity: 1;"><rect  id="v-34" rx="20" ry="20" stroke-width="2" pointer-events="visiblePainted" fill="#6b7f95" stroke="#607286" stroke-dasharray="" width="400" height="220" style="fill: rgb(107, 127, 149); stroke: rgb(96, 114, 134);"></rect><text  id="v-35" font-size="33.599999999999994px" xml:space="preserve" y="60.64000000000001" font-weight="bold" text-anchor="middle" pointer-events="visible" font-family="Tahoma, Verdana, Helvetica, Arial" fill="#ffffff" dominant-baseline="hanging" transform="matrix(1,0,0,1,200,0)" style="fill: rgb(255, 255, 255);"><tspan dy="0" >Control de versiones</tspan><tspan dy="1.2em" x="0" >(GitLab)</tspan></text><text  id="v-36" font-size="16.799999999999997px" xml:space="preserve" y="142.56" text-anchor="middle" font-family="Tahoma, Verdana, Helvetica, Arial" fill="#ffffff" dominant-baseline="hanging" transform="matrix(1,0,0,1,200,0)" style="display: block; fill: rgb(255, 255, 255);"><tspan dy="0" >[Software System]</tspan></text><text  id="v-37" font-size="24px" xml:space="preserve" display="none" y="60.64000000000001" text-anchor="middle" font-family="Tahoma, Verdana, Helvetica, Arial" fill="#ffffff" dominant-baseline="hanging" transform="matrix(1,0,0,1,200,0)" style="display: block; fill: rgb(255, 255, 255);"><tspan dy="0"  style="fill-opacity: 0; stroke-opacity: 0;">-</tspan></text><g  id="v-38" color="#ffffff" transform="matrix(1,0,0,1,197.5,188)" display="none" style="fill: rgb(255, 255, 255);"><g ></g><g ></g><g ></g><g ></g></g><image  id="v-39"></image></g></g><!--z-index:26--><g   id="j_7"  transform="translate(457,1915)" style=""><g  id="v-43" style="opacity: 1;"><rect  id="v-44" rx="20" ry="20" stroke-width="2" pointer-events="visiblePainted" fill="#6b7f95" stroke="#607286" stroke-dasharray="" width="400" height="220" style="fill: rgb(107, 127, 149); stroke: rgb(96, 114, 134);"></rect><text  id="v-45" font-size="33.599999999999994px" xml:space="preserve" y="40.48000000000002" font-weight="bold" text-anchor="middle" pointer-events="visible" font-family="Tahoma, Verdana, Helvetica, Arial" fill="#ffffff" dominant-baseline="hanging" transform="matrix(1,0,0,1,200,0)" style="fill: rgb(255, 255, 255);"><tspan dy="0" >Repositorio de</tspan><tspan dy="1.2em" x="0" >terceros (Bitbucket /</tspan><tspan dy="1.2em" x="0" >DESY)</tspan></text><text  id="v-46" font-size="16.799999999999997px" xml:space="preserve" y="162.72" text-anchor="middle" font-family="Tahoma, Verdana, Helvetica, Arial" fill="#ffffff" dominant-baseline="hanging" transform="matrix(1,0,0,1,200,0)" style="display: block; fill: rgb(255, 255, 255);"><tspan dy="0" >[Software System]</tspan></text><text  id="v-47" font-size="24px" xml:space="preserve" display="none" y="40.48000000000002" text-anchor="middle" font-family="Tahoma, Verdana, Helvetica, Arial" fill="#ffffff" dominant-baseline="hanging" transform="matrix(1,0,0,1,200,0)" style="display: block; fill: rgb(255, 255, 255);"><tspan dy="0"  style="fill-opacity: 0; stroke-opacity: 0;">-</tspan></text><g  id="v-48" color="#ffffff" transform="matrix(1,0,0,1,197.5,188)" display="none" style="fill: rgb(255, 255, 255);"><g ></g><g ></g><g ></g><g ></g></g><image  id="v-49"></image></g></g><!--z-index:27--><g   id="j_8"  transform="translate(897,1915)" style=""><g  id="v-53" style="opacity: 1;"><rect  id="v-54" rx="20" ry="20" stroke-width="2" pointer-events="visiblePainted" fill="#9e9e9e" stroke="#8e8e8e" stroke-dasharray="8,8" width="400" height="220" style="fill: rgb(158, 158, 158); stroke: rgb(142, 142, 142);"></rect><text  id="v-55" font-size="33.599999999999994px" xml:space="preserve" y="60.64000000000001" font-weight="bold" text-anchor="middle" pointer-events="visible" font-family="Tahoma, Verdana, Helvetica, Arial" fill="#000000" dominant-baseline="hanging" transform="matrix(1,0,0,1,200,0)" style="fill: rgb(0, 0, 0);"><tspan dy="0" >Proveedor de</tspan><tspan dy="1.2em" x="0" >identidad (Keycloak)</tspan></text><text  id="v-56" font-size="16.799999999999997px" xml:space="preserve" y="142.56" text-anchor="middle" font-family="Tahoma, Verdana, Helvetica, Arial" fill="#000000" dominant-baseline="hanging" transform="matrix(1,0,0,1,200,0)" style="display: block; fill: rgb(0, 0, 0);"><tspan dy="0" >[Software System]</tspan></text><text  id="v-57" font-size="24px" xml:space="preserve" display="none" y="60.64000000000001" text-anchor="middle" font-family="Tahoma, Verdana, Helvetica, Arial" fill="#000000" dominant-baseline="hanging" transform="matrix(1,0,0,1,200,0)" style="display: block; fill: rgb(0, 0, 0);"><tspan dy="0"  style="fill-opacity: 0; stroke-opacity: 0;">-</tspan></text><g  id="v-58" color="#000000" transform="matrix(1,0,0,1,197.5,188)" display="none" style="fill: rgb(0, 0, 0);"><g ></g><g ></g><g ></g><g ></g></g><image  id="v-59"></image></g></g><!--z-index:28--><g   id="j_9"  transform="translate(1423,2692)" style=""><g  id="v-63" style="opacity: 1;"><rect  id="v-64" rx="20" ry="20" stroke-width="2" pointer-events="visiblePainted" fill="#6b7f95" stroke="#607286" stroke-dasharray="" width="400" height="220" style="fill: rgb(107, 127, 149); stroke: rgb(96, 114, 134);"></rect><text  id="v-65" font-size="33.599999999999994px" xml:space="preserve" y="60.64000000000001" font-weight="bold" text-anchor="middle" pointer-events="visible" font-family="Tahoma, Verdana, Helvetica, Arial" fill="#ffffff" dominant-baseline="hanging" transform="matrix(1,0,0,1,200,0)" style="fill: rgb(255, 255, 255);"><tspan dy="0" >Almacenamiento de</tspan><tspan dy="1.2em" x="0" >objetos (MinIO)</tspan></text><text  id="v-66" font-size="16.799999999999997px" xml:space="preserve" y="142.56" text-anchor="middle" font-family="Tahoma, Verdana, Helvetica, Arial" fill="#ffffff" dominant-baseline="hanging" transform="matrix(1,0,0,1,200,0)" style="display: block; fill: rgb(255, 255, 255);"><tspan dy="0" >[Software System]</tspan></text><text  id="v-67" font-size="24px" xml:space="preserve" display="none" y="60.64000000000001" text-anchor="middle" font-family="Tahoma, Verdana, Helvetica, Arial" fill="#ffffff" dominant-baseline="hanging" transform="matrix(1,0,0,1,200,0)" style="display: block; fill: rgb(255, 255, 255);"><tspan dy="0"  style="fill-opacity: 0; stroke-opacity: 0;">-</tspan></text><g  id="v-68" color="#ffffff" transform="matrix(1,0,0,1,197.5,188)" display="none" style="fill: rgb(255, 255, 255);"><g ></g><g ></g><g ></g><g ></g></g><image  id="v-69"></image></g></g><!--z-index:29--><g   id="j_10"  style="opacity: 1;"><path fill="none" cursor="pointer" stroke="transparent" stroke-linecap="round" joint-selector="wrapper" id="v-81" stroke-width="10" stroke-linejoin="round" d="M 1444 521.77 L 1119 814 C 1114.3333333333333 818.1333333333332 1114.3333333333333 822.8 1119 828 L 1362.72 1098"></path><path fill="none" pointer-events="none" joint-selector="line" id="v-80" stroke="#444444" stroke-width="2" stroke-linejoin="round" stroke-dasharray="8 8" d="M 1444 521.77 L 1119 814 C 1114.3333333333333 818.1333333333332 1114.3333333333333 822.8 1119 828 L 1362.72 1098" marker-end="url(#v-21252848929)"></path><g id="v-73" ><g id="v-74"  label-idx="0" cursor="move" transform="matrix(1,0,0,1,1115.510498046875,820.2183837890625)" style="cursor: default;"><rect joint-selector="rect" id="v-77" fill="#ffffff" rx="3" ry="3" x="-90.6124496459961" y="-62.728511810302734" width="181.66929626464844" height="121.76065063476562" pointer-events="none"  style="display: block;"></rect><text joint-selector="text" id="v-76" font-size="34px" xml:space="preserve" fill="#444444" text-anchor="middle" pointer-events="none" font-family="Tahoma, Verdana, Helvetica, Arial" font-weight="normal"  style="display: block;"><tspan dy="-0.8999999999999999em" >1: Inicia</tspan><tspan dy="1.2em" x="0" >sesión en el</tspan><tspan dy="1.2em" x="0" >portal</tspan></text></g><g id="v-75"  label-idx="1" cursor="move" transform="matrix(1,0,0,1,1105.510498046875,878.0183715820312)" style="cursor: default;"><rect joint-selector="rect" id="v-79" fill="#ffffff" rx="3" ry="3" x="0" y="0" width="0" height="0"  display="none"></rect><text joint-selector="text" id="v-78" fill="#000000" font-size="14" text-anchor="middle" text-vertical-anchor="middle" pointer-events="none"></text></g></g></g><!--z-index:30--><g   id="j_11"  style="opacity: 1;"><path fill="none" cursor="pointer" stroke="transparent" stroke-linecap="round" joint-selector="wrapper" id="v-95" stroke-width="10" stroke-linejoin="round" d="M 1363.83 1318 L 1104 1610 C 1099.3333333333333 1614.6666666666665 1097 1620.3333333333333 1097 1627 L 1097 1915"></path><path fill="none" pointer-events="none" joint-selector="line" id="v-94" stroke="#444444" stroke-width="2" stroke-linejoin="round" stroke-dasharray="8 8" d="M 1363.83 1318 L 1104 1610 C 1099.3333333333333 1614.6666666666665 1097 1620.3333333333333 1097 1627 L 1097 1915" marker-end="url(#v-21252848929)"></path><g id="v-87" ><g id="v-88"  label-idx="0" cursor="move" transform="matrix(1,0,0,1,1098.9901123046875,1617.1888427734375)" style="cursor: default;"><rect joint-selector="rect" id="v-91" fill="#ffffff" rx="3" ry="3" x="-95.31877136230469" y="-103.52850341796875" width="191.7780303955078" height="203.36065673828125" pointer-events="none"  style="display: block;"></rect><text joint-selector="text" id="v-90" font-size="34px" xml:space="preserve" fill="#444444" text-anchor="middle" pointer-events="none" font-family="Tahoma, Verdana, Helvetica, Arial" font-weight="normal"  style="display: block;"><tspan dy="-2.1em" >2: Autentica</tspan><tspan dy="1.2em" x="0" >y resuelve la</tspan><tspan dy="1.2em" x="0" >identidad</tspan><tspan dy="1.2em" x="0" >contra el</tspan><tspan dy="1.2em" x="0" >catálogo</tspan></text></g><g id="v-89"  label-idx="1" cursor="move" transform="matrix(1,0,0,1,1088.9901123046875,1715.788818359375)" style="cursor: default;"><rect joint-selector="rect" id="v-93" fill="#ffffff" rx="3" ry="3" x="0" y="2.2737367544323206e-13" width="0" height="0"  display="none"></rect><text joint-selector="text" id="v-92" fill="#000000" font-size="14" text-anchor="middle" text-vertical-anchor="middle" pointer-events="none"></text></g></g></g><!--z-index:31--><g   id="j_12"  style="opacity: 1;"><path fill="none" cursor="pointer" stroke="transparent" stroke-linecap="round" joint-selector="wrapper" id="v-107" stroke-width="10" stroke-linejoin="round" d="M 1542.79 542 L 1407 811 C 1403.6666666666665 817.1333333333332 1402.6666666666665 823.4666666666666 1404 830 L 1444.98 1098"></path><path fill="none" pointer-events="none" joint-selector="line" id="v-106" stroke="#444444" stroke-width="2" stroke-linejoin="round" stroke-dasharray="8 8" d="M 1542.79 542 L 1407 811 C 1403.6666666666665 817.1333333333332 1402.6666666666665 823.4666666666666 1404 830 L 1444.98 1098" marker-end="url(#v-21252848929)"></path><g id="v-99" ><g id="v-100"  label-idx="0" cursor="move" transform="matrix(1,0,0,1,1403.755859375,820.3128662109375)" style="cursor: default;"><rect joint-selector="rect" id="v-103" fill="#ffffff" rx="3" ry="3" x="-84.02359008789062" y="-83.1285171508789" width="169.18447875976562" height="162.56065368652344" pointer-events="none"  style="display: block;"></rect><text joint-selector="text" id="v-102" font-size="34px" xml:space="preserve" fill="#444444" text-anchor="middle" pointer-events="none" font-family="Tahoma, Verdana, Helvetica, Arial" font-weight="normal"  style="display: block;"><tspan dy="-1.4999999999999998em" >3: Elige</tspan><tspan dy="1.2em" x="0" >plantilla y</tspan><tspan dy="1.2em" x="0" >solicita la</tspan><tspan dy="1.2em" x="0" >generación</tspan></text></g><g id="v-101"  label-idx="1" cursor="move" transform="matrix(1,0,0,1,1393.755859375,898.5128784179688)" style="cursor: default;"><rect joint-selector="rect" id="v-105" fill="#ffffff" rx="3" ry="3" x="0" y="0" width="0" height="0"  display="none"></rect><text joint-selector="text" id="v-104" fill="#000000" font-size="14" text-anchor="middle" text-vertical-anchor="middle" pointer-events="none"></text></g></g></g><!--z-index:32--><g   id="j_13"  style="opacity: 1;"><path fill="none" cursor="pointer" stroke="transparent" stroke-linecap="round" joint-selector="wrapper" id="v-119" stroke-width="10" stroke-linejoin="round" d="M 1533.94 1318 L 1724 1609 C 1727.6666666666665 1614.3333333333333 1732 1619.3333333333333 1737 1624 L 2056.35 1915"></path><path fill="none" pointer-events="none" joint-selector="line" id="v-118" stroke="#444444" stroke-width="2" stroke-linejoin="round" stroke-dasharray="8 8" d="M 1533.94 1318 L 1724 1609 C 1727.6666666666665 1614.3333333333333 1732 1619.3333333333333 1737 1624 L 2056.35 1915" marker-end="url(#v-21252848929)"></path><g id="v-111" ><g id="v-112"  label-idx="0" cursor="move" transform="matrix(1,0,0,1,1729.620849609375,1616.3096923828125)" style="cursor: default;"><rect joint-selector="rect" id="v-115" fill="#ffffff" rx="3" ry="3" x="-96.26004028320312" y="-62.728511810302734" width="193.71749877929688" height="121.76065063476562" pointer-events="none"  style="display: block;"></rect><text joint-selector="text" id="v-114" font-size="34px" xml:space="preserve" fill="#444444" text-anchor="middle" pointer-events="none" font-family="Tahoma, Verdana, Helvetica, Arial" font-weight="normal"  style="display: block;"><tspan dy="-0.8999999999999999em" >4: Descarga</tspan><tspan dy="1.2em" x="0" >la plantilla y</tspan><tspan dy="1.2em" x="0" >su esqueleto</tspan></text></g><g id="v-113"  label-idx="1" cursor="move" transform="matrix(1,0,0,1,1719.620849609375,1674.1097412109375)" style="cursor: default;"><rect joint-selector="rect" id="v-117" fill="#ffffff" rx="3" ry="3" x="0" y="2.2737367544323206e-13" width="0" height="0"  display="none"></rect><text joint-selector="text" id="v-116" fill="#000000" font-size="14" text-anchor="middle" text-vertical-anchor="middle" pointer-events="none"></text></g></g></g><!--z-index:33--><g   id="j_14"  style="opacity: 1;"><path fill="none" cursor="pointer" stroke="transparent" stroke-linecap="round" joint-selector="wrapper" id="v-131" stroke-width="10" stroke-linejoin="round" d="M 1262 1309.61 L 666 1612 C 660 1615.3333333333333 657 1620.3333333333333 657 1627 L 657 1915"></path><path fill="none" pointer-events="none" joint-selector="line" id="v-130" stroke="#d9821b" stroke-width="3" stroke-linejoin="round" stroke-dasharray="12 12" d="M 1262 1309.61 L 666 1612 C 660 1615.3333333333333 657 1620.3333333333333 657 1627 L 657 1915" marker-end="url(#v-2-597729461)"></path><g id="v-123" ><g id="v-124"  label-idx="0" cursor="move" transform="matrix(1,0,0,1,659.6533203125,1617.61474609375)" style="cursor: default;"><rect joint-selector="rect" id="v-127" fill="#ffffff" rx="3" ry="3" x="-91.5223388671875" y="-103.52850341796875" width="184.23577880859375" height="203.36065673828125" pointer-events="none"  style="display: block;"></rect><text joint-selector="text" id="v-126" font-size="34px" xml:space="preserve" fill="#d9821b" text-anchor="middle" pointer-events="none" font-family="Tahoma, Verdana, Helvetica, Arial" font-weight="normal"  style="display: block;"><tspan dy="-2.1em" >5: Descarga</tspan><tspan dy="1.2em" x="0" >el starter</tspan><tspan dy="1.2em" x="0" >ajeno y lo</tspan><tspan dy="1.2em" x="0" >parchea al</tspan><tspan dy="1.2em" x="0" >vuelo</tspan></text></g><g id="v-125"  label-idx="1" cursor="move" transform="matrix(1,0,0,1,649.6533203125,1716.2147216796875)" style="cursor: default;"><rect joint-selector="rect" id="v-129" fill="#ffffff" rx="3" ry="3" x="0" y="2.2737367544323206e-13" width="0" height="0"  display="none"></rect><text joint-selector="text" id="v-128" fill="#000000" font-size="14" text-anchor="middle" text-vertical-anchor="middle" pointer-events="none"></text></g></g></g><!--z-index:34--><g   id="j_15"  style="opacity: 1;"><path fill="none" cursor="pointer" stroke="transparent" stroke-linecap="round" joint-selector="wrapper" id="v-145" stroke-width="10" stroke-linejoin="round" d="M 1262 1277.91 L 301 1614 C 295 1616 292 1620.3333333333333 292 1627 L 292 2404 C 292 2410.5333333333333 295.3333333333333 2414.866666666667 302 2417 L 1423 2743.67"></path><path fill="none" pointer-events="none" joint-selector="line" id="v-144" stroke="#d9821b" stroke-width="3" stroke-linejoin="round" stroke-dasharray="12 12" d="M 1262 1277.91 L 301 1614 C 295 1616 292 1620.3333333333333 292 1627 L 292 2404 C 292 2410.5333333333333 295.3333333333333 2414.866666666667 302 2417 L 1423 2743.67" marker-end="url(#v-2-597729461)"></path><g id="v-137" ><g id="v-138"  label-idx="0" cursor="move" transform="matrix(1,0,0,1,292,2025.4625244140625)" style="cursor: default;"><rect joint-selector="rect" id="v-141" fill="#ffffff" rx="3" ry="3" x="-92.49497985839844" y="-62.728511810302734" width="184.98995971679688" height="121.76065063476562" pointer-events="none"  style="display: block;"></rect><text joint-selector="text" id="v-140" font-size="34px" xml:space="preserve" fill="#d9821b" text-anchor="middle" pointer-events="none" font-family="Tahoma, Verdana, Helvetica, Arial" font-weight="normal"  style="display: block;"><tspan dy="-0.8999999999999999em" >6: Genera y</tspan><tspan dy="1.2em" x="0" >publica los</tspan><tspan dy="1.2em" x="0" >documentos</tspan></text></g><g id="v-139"  label-idx="1" cursor="move" transform="matrix(1,0,0,1,282,2083.262451171875)" style="cursor: default;"><rect joint-selector="rect" id="v-143" fill="#ffffff" rx="3" ry="3" x="0" y="0" width="0" height="0"  display="none"></rect><text joint-selector="text" id="v-142" fill="#000000" font-size="14" text-anchor="middle" text-vertical-anchor="middle" pointer-events="none"></text></g></g></g><!--z-index:35--><g   id="j_16"  style="opacity: 1;"><path fill="none" cursor="pointer" stroke="transparent" stroke-linecap="round" joint-selector="wrapper" id="v-157" stroke-width="10" stroke-linejoin="round" d="M 1611.94 1318 L 2011 1611 C 2016.6666666666665 1615 2020.6666666666665 1620 2023 1626 L 2134.54 1915"></path><path fill="none" pointer-events="none" joint-selector="line" id="v-156" stroke="#444444" stroke-width="2" stroke-linejoin="round" stroke-dasharray="8 8" d="M 1611.94 1318 L 2011 1611 C 2016.6666666666665 1615 2020.6666666666665 1620 2023 1626 L 2134.54 1915" marker-end="url(#v-21252848929)"></path><g id="v-149" ><g id="v-150"  label-idx="0" cursor="move" transform="matrix(1,0,0,1,2018.013671875,1617.4581298828125)" style="cursor: default;"><rect joint-selector="rect" id="v-153" fill="#ffffff" rx="3" ry="3" x="-92.4636001586914" y="-83.1285171508789" width="188.01524353027344" height="162.56065368652344" pointer-events="none"  style="display: block;"></rect><text joint-selector="text" id="v-152" font-size="34px" xml:space="preserve" fill="#444444" text-anchor="middle" pointer-events="none" font-family="Tahoma, Verdana, Helvetica, Arial" font-weight="normal"  style="display: block;"><tspan dy="-1.4999999999999998em" >7: Crea el</tspan><tspan dy="1.2em" x="0" >repositorio y</tspan><tspan dy="1.2em" x="0" >publica el</tspan><tspan dy="1.2em" x="0" >contenido</tspan></text></g><g id="v-151"  label-idx="1" cursor="move" transform="matrix(1,0,0,1,2008.013671875,1695.658203125)" style="cursor: default;"><rect joint-selector="rect" id="v-155" fill="#ffffff" rx="3" ry="3" x="0" y="0" width="0" height="0"  display="none"></rect><text joint-selector="text" id="v-154" fill="#000000" font-size="14" text-anchor="middle" text-vertical-anchor="middle" pointer-events="none"></text></g></g></g><!--z-index:36--><g   id="j_17"  style="opacity: 1;"><path fill="none" cursor="pointer" stroke="transparent" stroke-linecap="round" joint-selector="wrapper" id="v-169" stroke-width="10" stroke-linejoin="round" d="M 1620.14 1098 L 2011 826 C 2016.6666666666665 822.1333333333332 2017.3333333333333 817.4666666666666 2013 812 L 1801.05 542"></path><path fill="none" pointer-events="none" joint-selector="line" id="v-168" stroke="#444444" stroke-width="2" stroke-linejoin="round" stroke-dasharray="8 8" d="M 1620.14 1098 L 2011 826 C 2016.6666666666665 822.1333333333332 2017.3333333333333 817.4666666666666 2013 812 L 1801.05 542" marker-end="url(#v-21252848929)"></path><g id="v-161" ><g id="v-162"  label-idx="0" cursor="move" transform="matrix(1,0,0,1,2015.7333984375,819.709228515625)" style="cursor: default;"><rect joint-selector="rect" id="v-165" fill="#ffffff" rx="3" ry="3" x="-93.40486907958984" y="-62.728511810302734" width="187.28875732421875" height="121.76065063476562" pointer-events="none"  style="display: block;"></rect><text joint-selector="text" id="v-164" font-size="34px" xml:space="preserve" fill="#444444" text-anchor="middle" pointer-events="none" font-family="Tahoma, Verdana, Helvetica, Arial" font-weight="normal"  style="display: block;"><tspan dy="-0.8999999999999999em" >8: Notifica el</tspan><tspan dy="1.2em" x="0" >final de la</tspan><tspan dy="1.2em" x="0" >generación</tspan></text></g><g id="v-163"  label-idx="1" cursor="move" transform="matrix(1,0,0,1,2005.7333984375,877.5092163085938)" style="cursor: default;"><rect joint-selector="rect" id="v-167" fill="#ffffff" rx="3" ry="3" x="0" y="0" width="0" height="0"  display="none"></rect><text joint-selector="text" id="v-166" fill="#000000" font-size="14" text-anchor="middle" text-vertical-anchor="middle" pointer-events="none"></text></g></g></g><!--z-index:37--><g   id="j_18"  style="opacity: 1;"><path fill="none" cursor="pointer" stroke="transparent" stroke-linecap="round" joint-selector="wrapper" id="v-187" stroke-width="10" stroke-linejoin="round" d="M 1844 517.33 L 2182 814 C 2187 818.1333333333332 2189.6666666666665 823.4666666666666 2190 830 L 2190 1607 C 2189.6666666666665 1613.6666666666665 2189.333333333333 1620.3333333333333 2189 1627 L 2180.37 1915"></path><path fill="none" pointer-events="none" joint-selector="line" id="v-186" stroke="#444444" stroke-width="2" stroke-linejoin="round" stroke-dasharray="8 8" d="M 1844 517.33 L 2182 814 C 2187 818.1333333333332 2189.6666666666665 823.4666666666666 2190 830 L 2190 1607 C 2189.6666666666665 1613.6666666666665 2189.333333333333 1620.3333333333333 2189 1627 L 2180.37 1915" marker-end="url(#v-21252848929)"></path><g id="v-176" ><g id="v-177"  label-idx="0" cursor="move" transform="matrix(1,0,0,1,2190,1177.173828125)" style="cursor: default;"><rect joint-selector="rect" id="v-181" fill="#ffffff" rx="3" ry="3" x="-86.8473892211914" y="-62.728511810302734" width="174.83709716796875" height="121.76065063476562" pointer-events="none"  style="display: block;"></rect><text joint-selector="text" id="v-180" font-size="34px" xml:space="preserve" fill="#444444" text-anchor="middle" pointer-events="none" font-family="Tahoma, Verdana, Helvetica, Arial" font-weight="normal"  style="display: block;"><tspan dy="-0.8999999999999999em" >9: Continúa</tspan><tspan dy="1.2em" x="0" >por merge</tspan><tspan dy="1.2em" x="0" >requests</tspan></text></g><g id="v-178"  label-idx="1" cursor="move" transform="matrix(1,0,0,1,2190,1271.15380859375)" style="cursor: default;"><rect joint-selector="rect" id="v-183" fill="#ffffff" rx="3" ry="3" x="-64.60215759277344" y="-27.220321655273438" width="132.04612731933594" height="52.65638732910156"  pointer-events="none" style="display: block;"></rect><text joint-selector="text" id="v-182" font-size="23.799999999999997px" xml:space="preserve" fill="#444444" text-anchor="middle" pointer-events="none" font-family="Tahoma, Verdana, Helvetica, Arial" font-weight="normal"  style="display: block;"><tspan dy="-0.3em" >[Git y merge</tspan><tspan dy="1.2em" x="0" >requests]</tspan></text></g><g id="v-179"  label-idx="2" cursor="move" transform="matrix(1,0,0,1,2180,1227.4681396484375)" style="cursor: default;"><rect joint-selector="rect" id="v-185" fill="#ffffff" rx="3" ry="3" x="0" y="0" width="0" height="0"  display="none"></rect><text joint-selector="text" id="v-184" fill="#000000" font-size="14" text-anchor="middle" text-vertical-anchor="middle" pointer-events="none"></text></g></g></g><!--z-index:38--><g   id="j_19"  style="opacity: 1;"><path fill="none" cursor="pointer" stroke="transparent" stroke-linecap="round" joint-selector="wrapper" id="v-199" stroke-width="10" stroke-linejoin="round" d="M 1662 1299.14 L 2350 1613 C 2356.333333333333 1615.6666666666665 2358 1620 2355 1626 L 2226.2 1915"></path><path fill="none" pointer-events="none" joint-selector="line" id="v-198" stroke="#444444" stroke-width="2" stroke-linejoin="round" stroke-dasharray="8 8" d="M 1662 1299.14 L 2350 1613 C 2356.333333333333 1615.6666666666665 2358 1620 2355 1626 L 2226.2 1915" marker-end="url(#v-21252848929)"></path><g id="v-191" ><g id="v-192"  label-idx="0" cursor="move" transform="matrix(1,0,0,1,2355.466796875,1617.169677734375)" style="cursor: default;"><rect joint-selector="rect" id="v-195" fill="#ffffff" rx="3" ry="3" x="-91.5537109375" y="-103.52850341796875" width="184.25244140625" height="203.36065673828125" pointer-events="none"  style="display: block;"></rect><text joint-selector="text" id="v-194" font-size="34px" xml:space="preserve" fill="#444444" text-anchor="middle" pointer-events="none" font-family="Tahoma, Verdana, Helvetica, Arial" font-weight="normal"  style="display: block;"><tspan dy="-2.1em" >10:</tspan><tspan dy="1.2em" x="0" >Redescubre</tspan><tspan dy="1.2em" x="0" >el inventario</tspan><tspan dy="1.2em" x="0" >cada 30</tspan><tspan dy="1.2em" x="0" >minutos</tspan></text></g><g id="v-193"  label-idx="1" cursor="move" transform="matrix(1,0,0,1,2345.466796875,1715.769775390625)" style="cursor: default;"><rect joint-selector="rect" id="v-197" fill="#ffffff" rx="3" ry="3" x="0" y="0" width="0" height="0"  display="none"></rect><text joint-selector="text" id="v-196" fill="#000000" font-size="14" text-anchor="middle" text-vertical-anchor="middle" pointer-events="none"></text></g></g></g><!--z-index:39--><g   id="j_20"  style="opacity: 1;"><path fill="none" cursor="pointer" stroke="transparent" stroke-linecap="round" joint-selector="wrapper" id="v-211" stroke-width="10" stroke-linejoin="round" d="M 1462 1318 L 1462 2404 C 1462 2410.5333333333333 1463.3333333333333 2416.866666666667 1466 2423 L 1577.38 2692"></path><path fill="none" pointer-events="none" joint-selector="line" id="v-210" stroke="#444444" stroke-width="2" stroke-linejoin="round" stroke-dasharray="8 8" d="M 1462 1318 L 1462 2404 C 1462 2410.5333333333333 1463.3333333333333 2416.866666666667 1466 2423 L 1577.38 2692" marker-end="url(#v-21252848929)"></path><g id="v-203" ><g id="v-204"  label-idx="0" cursor="move" transform="matrix(1,0,0,1,1462,2025.2276611328125)" style="cursor: default;"><rect joint-selector="rect" id="v-207" fill="#ffffff" rx="3" ry="3" x="-92.49497985839844" y="-103.52850341796875" width="184.98995971679688" height="203.36065673828125" pointer-events="none"  style="display: block;"></rect><text joint-selector="text" id="v-206" font-size="34px" xml:space="preserve" fill="#444444" text-anchor="middle" pointer-events="none" font-family="Tahoma, Verdana, Helvetica, Arial" font-weight="normal"  style="display: block;"><tspan dy="-2.1em" >11:</tspan><tspan dy="1.2em" x="0" >Recupera</tspan><tspan dy="1.2em" x="0" >los</tspan><tspan dy="1.2em" x="0" >documentos</tspan><tspan dy="1.2em" x="0" >publicados</tspan></text></g><g id="v-205"  label-idx="1" cursor="move" transform="matrix(1,0,0,1,1452,2123.82763671875)" style="cursor: default;"><rect joint-selector="rect" id="v-209" fill="#ffffff" rx="3" ry="3" x="0" y="0" width="0" height="0"  display="none"></rect><text joint-selector="text" id="v-208" fill="#000000" font-size="14" text-anchor="middle" text-vertical-anchor="middle" pointer-events="none"></text></g></g></g><!--z-index:40--><g   id="j_21"  style="opacity: 1;"><path fill="none" cursor="pointer" stroke="transparent" stroke-linecap="round" joint-selector="wrapper" id="v-223" stroke-width="10" stroke-linejoin="round" d="M 2177 2135 L 2177 2404 C 2177 2410.5333333333333 2174.333333333333 2415.866666666667 2169 2420 L 1779.98 2692"></path><path fill="none" pointer-events="none" joint-selector="line" id="v-222" stroke="#9e9e9e" stroke-width="2" stroke-linejoin="round" stroke-dasharray="8 8" d="M 2177 2135 L 2177 2404 C 2177 2410.5333333333333 2174.333333333333 2415.866666666667 2169 2420 L 1779.98 2692" marker-end="url(#v-2851464353)"></path><g id="v-215" ><g id="v-216"  label-idx="0" cursor="move" transform="matrix(1,0,0,1,2175.0927734375,2412.7119140625)" style="cursor: default;"><rect joint-selector="rect" id="v-219" fill="#ffffff" rx="3" ry="3" x="-99.08383178710938" y="-83.1285171508789" width="199.3534393310547" height="162.56065368652344" pointer-events="none"  style="display: block;"></rect><text joint-selector="text" id="v-218" font-size="34px" xml:space="preserve" fill="#9e9e9e" text-anchor="middle" pointer-events="none" font-family="Tahoma, Verdana, Helvetica, Arial" font-weight="normal"  style="display: block;"><tspan dy="-1.4999999999999998em" >12: Publicará</tspan><tspan dy="1.2em" x="0" >los</tspan><tspan dy="1.2em" x="0" >documentos</tspan><tspan dy="1.2em" x="0" >desde la CI</tspan></text></g><g id="v-217"  label-idx="1" cursor="move" transform="matrix(1,0,0,1,2165.0927734375,2490.912109375)" style="cursor: default;"><rect joint-selector="rect" id="v-221" fill="#ffffff" rx="3" ry="3" x="0" y="0" width="0" height="0"  display="none"></rect><text joint-selector="text" id="v-220" fill="#000000" font-size="14" text-anchor="middle" text-vertical-anchor="middle" pointer-events="none"></text></g></g></g><!--z-index:41--></g><g  style="user-select: none;"></g><g ></g><g  display="none"></g></g></svg>