<svg xmlns="http://www.w3.org/2000/svg" xmlns:xlink="http://www.w3.org/1999/xlink" version="1.1" width="3276" height="3104" style="width: 3276px; height: 3104px; background: #ffffff" viewBox="0 0 3276 3104"><style id="v-3" type="text/css">        .joint-element .scalable * {            vector-effect: non-scaling-stroke;        }    </style><defs joint-selector="defs"><marker id="v-21252848929" orient="auto" overflow="visible" markerUnits="userSpaceOnUse"><path id="v-99" stroke="#444444" fill="#444444" transform="rotate(180)" d="M 20 -10 0 0 20 10 Z"></path></marker><marker id="v-2-597729461" orient="auto" overflow="visible" markerUnits="userSpaceOnUse"><path id="v-173" stroke="#d9821b" fill="#d9821b" transform="rotate(180)" d="M 30 -15 0 0 30 15 Z"></path></marker><marker id="v-2851464353" orient="auto" overflow="visible" markerUnits="userSpaceOnUse"><path id="v-199" stroke="#9e9e9e" fill="#9e9e9e" transform="rotate(180)" d="M 20 -10 0 0 20 10 Z"></path></marker></defs><g joint-selector="layers"  transform="matrix(1,0,0,1,0,0)"><g  style="pointer-events: none;"></g><g ></g><g  style="user-select: none;"><!--z-index:0--><!--z-index:1--><!--z-index:2--><!--z-index:3--><!--z-index:4--><!--z-index:5--><!--z-index:6--><!--z-index:7--><!--z-index:8--><!--z-index:9--><!--z-index:10--><!--z-index:11--><!--z-index:12--><!--z-index:13--><!--z-index:14--><!--z-index:15--><!--z-index:16--><!--z-index:17--><!--z-index:18--><!--z-index:19--><!--z-index:20--><!--z-index:21--><!--z-index:22--><!--z-index:23--><g   id="j_24"  transform="translate(20,3060)"><g id="v-234"><text  id="v-235" font-size="24px" xml:space="preserve" y="0.8em" font-weight="normal" text-anchor="start" fill="#444444" pointer-events="none" display="block" font-family="Tahoma, Verdana, Helvetica, Arial"><tspan dy="0"  display="none">Thursday, August 6, 2026 at 6:06 PM Central European Summer Time</tspan></text></g></g><!--z-index:24--><g   id="j_23"  transform="translate(20,3026)"><g id="v-232"><text  id="v-233" font-size="24px" xml:space="preserve" y="0.8em" font-weight="normal" text-anchor="start" fill="#444444" pointer-events="none" display="block" font-family="Tahoma, Verdana, Helvetica, Arial"><tspan dy="0"  display="none">Vista de contenedores: la aplicación web y el backend son las dos mitades desplegables de Backstage, con la base de datos y los sistemas del piloto.</tspan></text></g></g><!--z-index:25--><g   id="j_22"  transform="translate(20,2980)"><g id="v-230"><text  id="v-231" font-size="36px" xml:space="preserve" y="0.8em" font-weight="normal" text-anchor="start" fill="#444444" pointer-events="none" display="block" font-family="Tahoma, Verdana, Helvetica, Arial"><tspan dy="0"  display="none">Container View: Portal interno de desarrolladores</tspan></text></g></g><!--z-index:26--><g   id="j_25"  transform="translate(2004,143)" style=""><g  id="v-236" style="opacity: 1;"><rect  x="0" y="160" width="400" height="240" rx="70" id="v-238" stroke-width="2" pointer-events="visiblePainted" fill="#08427b" stroke="#073b6f" stroke-dasharray="" style="fill: rgb(8, 66, 123); stroke: rgb(7, 59, 111);"></rect><circle  cx="200" cy="88.88888888888889" r="88.88888888888889" id="v-237" stroke-width="2" pointer-events="visiblePainted" fill="#08427b" stroke="#073b6f" stroke-dasharray="" style="fill: rgb(8, 66, 123); stroke: rgb(7, 59, 111);"></circle><line  x1="80" y1="266.6666666666667" x2="80" y2="400" id="v-244" stroke="#073b6f" stroke-width="1" stroke-dasharray="" style="stroke: rgb(7, 59, 111);"></line><line  x1="320" y1="266.6666666666667" x2="320" y2="400" id="v-245" stroke="#073b6f" stroke-width="1" stroke-dasharray="" style="stroke: rgb(7, 59, 111);"></line><text  id="v-239" font-size="33.599999999999994px" xml:space="preserve" y="250.8" font-weight="bold" text-anchor="middle" pointer-events="visible" font-family="Tahoma, Verdana, Helvetica, Arial" fill="#ffffff" dominant-baseline="hanging" transform="matrix(1,0,0,1,200,0)" style="fill: rgb(255, 255, 255);"><tspan dy="0" >Desarrollador</tspan></text><text  id="v-240" font-size="16.799999999999997px" xml:space="preserve" y="292.4" text-anchor="middle" font-family="Tahoma, Verdana, Helvetica, Arial" fill="#ffffff" dominant-baseline="hanging" transform="matrix(1,0,0,1,200,0)" style="display: block; fill: rgb(255, 255, 255);"><tspan dy="0" >[Person]</tspan></text><text  id="v-241" font-size="24px" xml:space="preserve" display="none" y="250.8" text-anchor="middle" font-family="Tahoma, Verdana, Helvetica, Arial" fill="#ffffff" dominant-baseline="hanging" transform="matrix(1,0,0,1,200,0)" style="display: block; fill: rgb(255, 255, 255);"><tspan dy="0"  style="fill-opacity: 0; stroke-opacity: 0;">-</tspan></text><g  id="v-242" font-weight="normal" text-anchor="middle" color="#ffffff" transform="matrix(1,0,0,1,197.5,368)" display="none" style="fill: rgb(255, 255, 255);"><g ></g><g ></g><g ></g><g ></g></g><image  id="v-243"></image></g></g><!--z-index:27--><g   id="j_27"  transform="translate(197,785)" style="; opacity: 1;"><g id="v-264"><rect  id="v-265" width="1310" height="1589" rx="20" ry="20" stroke-width="2" pointer-events="none" stroke="#0f5eaa" fill="#ffffff" opacity="1" stroke-dasharray=""></rect><text  id="v-266" font-size="33.599999999999994px" xml:space="preserve" y="1550" font-weight="bold" text-anchor="start" pointer-events="visible" font-family="Tahoma, Verdana, Helvetica, Arial" fill="#1168bd" transform="matrix(1,0,0,1,15,0)"><tspan dy="0" >Portal interno de desarrolladores</tspan></text><text  id="v-267" font-size="16.799999999999997px" xml:space="preserve" y="1574" font-weight="normal" text-anchor="start" pointer-events="visible" font-family="Tahoma, Verdana, Helvetica, Arial" fill="#1168bd" transform="matrix(1,0,0,1,15,0)"><tspan dy="0" >[Software System]</tspan></text><image  id="v-268" pointer-events="visible"></image></g></g><!--z-index:28--><g   id="j_26"  transform="translate(385,835)" style=""><g  id="v-252" style="opacity: 1;"><rect  id="v-253" rx="10" ry="10" stroke-width="2" pointer-events="visiblePainted" fill="#0f5eaa" stroke="#0f5eaa" stroke-dasharray="" width="400" height="222" style="fill: rgb(15, 94, 170); stroke: rgb(15, 94, 170);"></rect><rect  id="v-254" rx="10" ry="10" stroke-width="0" pointer-events="visiblePainted" fill="#1168bd" stroke="#0f5eaa" width="396" height="180" x="2" y="40" style="fill: rgb(17, 104, 189);"></rect><ellipse  id="v-261" fill="#1168bd" cx="20" cy="20" rx="10" ry="10" style="fill: rgb(17, 104, 189);"></ellipse><ellipse  id="v-262" fill="#1168bd" cx="50" cy="20" rx="10" ry="10" style="fill: rgb(17, 104, 189);"></ellipse><ellipse  id="v-263" fill="#1168bd" cx="80" cy="20" rx="10" ry="10" style="fill: rgb(17, 104, 189);"></ellipse><rect  id="v-255" rx="10" ry="10" stroke-width="0" pointer-events="visiblePainted" fill="#1168bd" width="290" height="20" x="100" y="10" style="fill: rgb(17, 104, 189);"></rect><text  id="v-256" font-size="33.599999999999994px" xml:space="preserve" y="90.72" font-weight="bold" text-anchor="middle" pointer-events="visible" font-family="Tahoma, Verdana, Helvetica, Arial" fill="#ffffff" dominant-baseline="hanging" transform="matrix(1,0,0,1,200,0)" style="fill: rgb(255, 255, 255);"><tspan dy="0" >Aplicación web</tspan></text><text  id="v-257" font-size="16.799999999999997px" xml:space="preserve" y="132.32" text-anchor="middle" font-family="Tahoma, Verdana, Helvetica, Arial" fill="#ffffff" dominant-baseline="hanging" transform="matrix(1,0,0,1,200,0)" style="display: block; fill: rgb(255, 255, 255);"><tspan dy="0" >[Container: React 18, TypeScript, Material UI</tspan><tspan dy="1.2em" x="0" >v4]</tspan></text><text  id="v-258" font-size="24px" xml:space="preserve" display="none" y="90.72" text-anchor="middle" font-family="Tahoma, Verdana, Helvetica, Arial" fill="#ffffff" dominant-baseline="hanging" transform="matrix(1,0,0,1,200,0)" style="display: block; fill: rgb(255, 255, 255);"><tspan dy="0"  style="fill-opacity: 0; stroke-opacity: 0;">-</tspan></text><g  id="v-259" font-weight="normal" text-anchor="middle" color="#ffffff" transform="matrix(1,0,0,1,197.5,188)" display="none" style="fill: rgb(255, 255, 255);"><g ></g><g ></g><g ></g><g ></g></g><image  id="v-260"></image></g></g><!--z-index:29--><g   id="j_28"  transform="translate(247,2025)" style=""><g  id="v-269" style="opacity: 1;"><path  d="M 0,30 a 200,30 0,0,0 400 0 a 200,30 0,0,0 -400 0 l 0,160 a 200,30 0,0,0 400 0 l 0,-160" id="v-270" stroke-width="2" pointer-events="visiblePainted" fill="#1168bd" stroke="#0f5eaa" stroke-dasharray="" style="fill: rgb(17, 104, 189); stroke: rgb(15, 94, 170);"></path><rect  id="v-271" stroke-width="0" pointer-events="visiblePainted" fill="none" stroke="none" width="400" height="190" x="0" y="30"></rect><text  id="v-272" font-size="33.599999999999994px" xml:space="preserve" y="95.80000000000001" font-weight="bold" text-anchor="middle" pointer-events="visible" font-family="Tahoma, Verdana, Helvetica, Arial" fill="#ffffff" dominant-baseline="hanging" transform="matrix(1,0,0,1,200,0)" style="fill: rgb(255, 255, 255);"><tspan dy="0" >Base de datos</tspan></text><text  id="v-273" font-size="16.799999999999997px" xml:space="preserve" y="137.4" text-anchor="middle" font-family="Tahoma, Verdana, Helvetica, Arial" fill="#ffffff" dominant-baseline="hanging" transform="matrix(1,0,0,1,200,0)" style="display: block; fill: rgb(255, 255, 255);"><tspan dy="0" >[Container: PostgreSQL 17]</tspan></text><text  id="v-274" font-size="24px" xml:space="preserve" display="none" y="95.80000000000001" text-anchor="middle" font-family="Tahoma, Verdana, Helvetica, Arial" fill="#ffffff" dominant-baseline="hanging" transform="matrix(1,0,0,1,200,0)" style="display: block; fill: rgb(255, 255, 255);"><tspan dy="0"  style="fill-opacity: 0; stroke-opacity: 0;">-</tspan></text><g  id="v-275" font-weight="normal" text-anchor="middle" color="#ffffff" transform="matrix(1,0,0,1,197.5,188)" display="none" style="fill: rgb(255, 255, 255);"><g ></g><g ></g><g ></g><g ></g></g><image  id="v-276"></image></g></g><!--z-index:30--><g   id="j_29"  transform="translate(1057,1424)" style=""><g  id="v-280" style="opacity: 1;"><rect  id="v-281" rx="20" ry="20" stroke-width="2" pointer-events="visiblePainted" fill="#1168bd" stroke="#0f5eaa" stroke-dasharray="" width="400" height="220" style="fill: rgb(17, 104, 189); stroke: rgb(15, 94, 170);"></rect><text  id="v-282" font-size="33.599999999999994px" xml:space="preserve" y="80.80000000000001" font-weight="bold" text-anchor="middle" pointer-events="visible" font-family="Tahoma, Verdana, Helvetica, Arial" fill="#ffffff" dominant-baseline="hanging" transform="matrix(1,0,0,1,200,0)" style="fill: rgb(255, 255, 255);"><tspan dy="0" >Backend</tspan></text><text  id="v-283" font-size="16.799999999999997px" xml:space="preserve" y="122.4" text-anchor="middle" font-family="Tahoma, Verdana, Helvetica, Arial" fill="#ffffff" dominant-baseline="hanging" transform="matrix(1,0,0,1,200,0)" style="display: block; fill: rgb(255, 255, 255);"><tspan dy="0" >[Container: Node.js, Express, TypeScript]</tspan></text><text  id="v-284" font-size="24px" xml:space="preserve" display="none" y="80.80000000000001" text-anchor="middle" font-family="Tahoma, Verdana, Helvetica, Arial" fill="#ffffff" dominant-baseline="hanging" transform="matrix(1,0,0,1,200,0)" style="display: block; fill: rgb(255, 255, 255);"><tspan dy="0"  style="fill-opacity: 0; stroke-opacity: 0;">-</tspan></text><g  id="v-285" color="#ffffff" transform="matrix(1,0,0,1,185,188)" display="none" style="fill: rgb(255, 255, 255);"><g  transform="translate(5 0)"><svg xmlns="http://www.w3.org/2000/svg" width="20" height="20" fill="currentColor" viewBox="0 0 16 16"><path fill-rule="evenodd" d="M6.5 12a5.5 5.5 0 1 0 0-11 5.5 5.5 0 0 0 0 11zM13 6.5a6.5 6.5 0 1 1-13 0 6.5 6.5 0 0 1 13 0z"></path><path d="M10.344 11.742c.03.04.062.078.098.115l3.85 3.85a1 1 0 0 0 1.415-1.414l-3.85-3.85a1.007 1.007 0 0 0-.115-.1 6.538 6.538 0 0 1-1.398 1.4z"></path><path fill-rule="evenodd" d="M6.5 3a.5.5 0 0 1 .5.5V6h2.5a.5.5 0 0 1 0 1H7v2.5a.5.5 0 0 1-1 0V7H3.5a.5.5 0 0 1 0-1H6V3.5a.5.5 0 0 1 .5-.5z"></path></svg></g><g ></g><g ></g><g ></g></g><image  id="v-286"></image></g></g><!--z-index:31--><g   id="j_30"  transform="translate(2492,2025)" style=""><g  id="v-287" style="opacity: 1;"><rect  id="v-288" rx="20" ry="20" stroke-width="2" pointer-events="visiblePainted" fill="#6b7f95" stroke="#607286" stroke-dasharray="" width="400" height="220" style="fill: rgb(107, 127, 149); stroke: rgb(96, 114, 134);"></rect><text  id="v-289" font-size="33.599999999999994px" xml:space="preserve" y="80.80000000000001" font-weight="bold" text-anchor="middle" pointer-events="visible" font-family="Tahoma, Verdana, Helvetica, Arial" fill="#ffffff" dominant-baseline="hanging" transform="matrix(1,0,0,1,200,0)" style="fill: rgb(255, 255, 255);"><tspan dy="0" >GitLab</tspan></text><text  id="v-290" font-size="16.799999999999997px" xml:space="preserve" y="122.4" text-anchor="middle" font-family="Tahoma, Verdana, Helvetica, Arial" fill="#ffffff" dominant-baseline="hanging" transform="matrix(1,0,0,1,200,0)" style="display: block; fill: rgb(255, 255, 255);"><tspan dy="0" >[Software System]</tspan></text><text  id="v-291" font-size="24px" xml:space="preserve" display="none" y="80.80000000000001" text-anchor="middle" font-family="Tahoma, Verdana, Helvetica, Arial" fill="#ffffff" dominant-baseline="hanging" transform="matrix(1,0,0,1,200,0)" style="display: block; fill: rgb(255, 255, 255);"><tspan dy="0"  style="fill-opacity: 0; stroke-opacity: 0;">-</tspan></text><g  id="v-292" color="#ffffff" transform="matrix(1,0,0,1,197.5,188)" display="none" style="fill: rgb(255, 255, 255);"><g ></g><g ></g><g ></g><g ></g></g><image  id="v-293"></image></g></g><!--z-index:32--><g   id="j_31"  transform="translate(1972,2025)" style=""><g  id="v-297" style="opacity: 1;"><rect  id="v-298" rx="20" ry="20" stroke-width="2" pointer-events="visiblePainted" fill="#6b7f95" stroke="#607286" stroke-dasharray="" width="400" height="220" style="fill: rgb(107, 127, 149); stroke: rgb(96, 114, 134);"></rect><text  id="v-299" font-size="33.599999999999994px" xml:space="preserve" y="80.80000000000001" font-weight="bold" text-anchor="middle" pointer-events="visible" font-family="Tahoma, Verdana, Helvetica, Arial" fill="#ffffff" dominant-baseline="hanging" transform="matrix(1,0,0,1,200,0)" style="fill: rgb(255, 255, 255);"><tspan dy="0" >Bitbucket (DESY)</tspan></text><text  id="v-300" font-size="16.799999999999997px" xml:space="preserve" y="122.4" text-anchor="middle" font-family="Tahoma, Verdana, Helvetica, Arial" fill="#ffffff" dominant-baseline="hanging" transform="matrix(1,0,0,1,200,0)" style="display: block; fill: rgb(255, 255, 255);"><tspan dy="0" >[Software System]</tspan></text><text  id="v-301" font-size="24px" xml:space="preserve" display="none" y="80.80000000000001" text-anchor="middle" font-family="Tahoma, Verdana, Helvetica, Arial" fill="#ffffff" dominant-baseline="hanging" transform="matrix(1,0,0,1,200,0)" style="display: block; fill: rgb(255, 255, 255);"><tspan dy="0"  style="fill-opacity: 0; stroke-opacity: 0;">-</tspan></text><g  id="v-302" color="#ffffff" transform="matrix(1,0,0,1,197.5,188)" display="none" style="fill: rgb(255, 255, 255);"><g ></g><g ></g><g ></g><g ></g></g><image  id="v-303"></image></g></g><!--z-index:33--><g   id="j_32"  transform="translate(2519,2626)" style=""><g  id="v-304" style="opacity: 1;"><rect  id="v-305" rx="20" ry="20" stroke-width="2" pointer-events="visiblePainted" fill="#9e9e9e" stroke="#8e8e8e" stroke-dasharray="8,8" width="400" height="220" style="fill: rgb(158, 158, 158); stroke: rgb(142, 142, 142);"></rect><text  id="v-306" font-size="33.599999999999994px" xml:space="preserve" y="80.80000000000001" font-weight="bold" text-anchor="middle" pointer-events="visible" font-family="Tahoma, Verdana, Helvetica, Arial" fill="#000000" dominant-baseline="hanging" transform="matrix(1,0,0,1,200,0)" style="fill: rgb(0, 0, 0);"><tspan dy="0" >Keycloak</tspan></text><text  id="v-307" font-size="16.799999999999997px" xml:space="preserve" y="122.4" text-anchor="middle" font-family="Tahoma, Verdana, Helvetica, Arial" fill="#000000" dominant-baseline="hanging" transform="matrix(1,0,0,1,200,0)" style="display: block; fill: rgb(0, 0, 0);"><tspan dy="0" >[Software System]</tspan></text><text  id="v-308" font-size="24px" xml:space="preserve" display="none" y="80.80000000000001" text-anchor="middle" font-family="Tahoma, Verdana, Helvetica, Arial" fill="#000000" dominant-baseline="hanging" transform="matrix(1,0,0,1,200,0)" style="display: block; fill: rgb(0, 0, 0);"><tspan dy="0"  style="fill-opacity: 0; stroke-opacity: 0;">-</tspan></text><g  id="v-309" color="#000000" transform="matrix(1,0,0,1,197.5,188)" display="none" style="fill: rgb(0, 0, 0);"><g ></g><g ></g><g ></g><g ></g></g><image  id="v-310"></image></g></g><!--z-index:34--><g   id="j_33"  transform="translate(793,2626)" style=""><g  id="v-311" style="opacity: 1;"><rect  id="v-312" rx="20" ry="20" stroke-width="2" pointer-events="visiblePainted" fill="#6b7f95" stroke="#607286" stroke-dasharray="" width="400" height="220" style="fill: rgb(107, 127, 149); stroke: rgb(96, 114, 134);"></rect><text  id="v-313" font-size="33.599999999999994px" xml:space="preserve" y="80.80000000000001" font-weight="bold" text-anchor="middle" pointer-events="visible" font-family="Tahoma, Verdana, Helvetica, Arial" fill="#ffffff" dominant-baseline="hanging" transform="matrix(1,0,0,1,200,0)" style="fill: rgb(255, 255, 255);"><tspan dy="0" >MinIO</tspan></text><text  id="v-314" font-size="16.799999999999997px" xml:space="preserve" y="122.4" text-anchor="middle" font-family="Tahoma, Verdana, Helvetica, Arial" fill="#ffffff" dominant-baseline="hanging" transform="matrix(1,0,0,1,200,0)" style="display: block; fill: rgb(255, 255, 255);"><tspan dy="0" >[Software System]</tspan></text><text  id="v-315" font-size="24px" xml:space="preserve" display="none" y="80.80000000000001" text-anchor="middle" font-family="Tahoma, Verdana, Helvetica, Arial" fill="#ffffff" dominant-baseline="hanging" transform="matrix(1,0,0,1,200,0)" style="display: block; fill: rgb(255, 255, 255);"><tspan dy="0"  style="fill-opacity: 0; stroke-opacity: 0;">-</tspan></text><g  id="v-316" color="#ffffff" transform="matrix(1,0,0,1,197.5,188)" display="none" style="fill: rgb(255, 255, 255);"><g ></g><g ></g><g ></g><g ></g></g><image  id="v-317"></image></g></g><!--z-index:35--><g   id="j_34"  style="opacity: 1;"><path fill="none" cursor="pointer" stroke="transparent" stroke-linecap="round" joint-selector="wrapper" id="v-332" stroke-width="10" stroke-linejoin="round" d="M 2004 381.18 L 596 650 C 589.1666666666666 651.2666666666667 585.8333333333333 655.2666666666667 586 662 L 585.28 835"></path><path fill="none" pointer-events="none" joint-selector="line" id="v-331" stroke="#444444" stroke-width="2" stroke-linejoin="round" stroke-dasharray="8 8" d="M 2004 381.18 L 596 650 C 589.1666666666666 651.2666666666667 585.8333333333333 655.2666666666667 586 662 L 585.28 835" marker-end="url(#v-21252848929)"></path><g id="v-321" ><g id="v-322"  label-idx="0" cursor="move" transform="matrix(1,0,0,1,589.666748046875,635.7760620117188)" style="cursor: default;"><rect joint-selector="rect" id="v-326" fill="#ffffff" rx="3" ry="3" x="-95.31877136230469" y="-21.928510665893555" width="191.06809997558594" height="40.160640716552734" pointer-events="none"  style="display: block;"></rect><text joint-selector="text" id="v-325" font-size="34px" xml:space="preserve" fill="#444444" text-anchor="middle" pointer-events="none" font-family="Tahoma, Verdana, Helvetica, Arial" font-weight="normal"  style="display: block;"><tspan dy="0.3em" >Usa el portal</tspan></text></g><g id="v-323"  label-idx="1" cursor="move" transform="matrix(1,0,0,1,589.666748046875,674.6760864257812)" style="cursor: default;"><rect joint-selector="rect" id="v-328" fill="#ffffff" rx="3" ry="3" x="-37.55647659301758" y="-12.940320014953613" width="76.55107879638672" height="24.096385955810547"  pointer-events="none" style="display: block;"></rect><text joint-selector="text" id="v-327" font-size="23.799999999999997px" xml:space="preserve" fill="#444444" text-anchor="middle" pointer-events="none" font-family="Tahoma, Verdana, Helvetica, Arial" font-weight="normal"  style="display: block;"><tspan dy="0.3em" >[HTTP]</tspan></text></g><g id="v-324"  label-idx="2" cursor="move" transform="matrix(1,0,0,1,1196.517333984375,567.3380126953125)" style="cursor: default;"><rect joint-selector="rect" id="v-330" fill="#ffffff" rx="3" ry="3" x="0" y="1.1368683772161603e-13" width="0" height="0"  display="none"></rect><text joint-selector="text" id="v-329" fill="#000000" font-size="14" text-anchor="middle" text-vertical-anchor="middle" pointer-events="none"></text></g></g></g><!--z-index:36--><g   id="j_35"  style="opacity: 1;"><path fill="none" cursor="pointer" stroke="transparent" stroke-linecap="round" joint-selector="wrapper" id="v-350" stroke-width="10" stroke-linejoin="round" d="M 585.28 1057 L 586 1230 C 585.8333333333333 1236.7866666666664 588.8333333333333 1241.4533333333331 595 1244 L 1057 1446.46"></path><path fill="none" pointer-events="none" joint-selector="line" id="v-349" stroke="#444444" stroke-width="2" stroke-linejoin="round" stroke-dasharray="8 8" d="M 585.28 1057 L 586 1230 C 585.8333333333333 1236.7866666666664 588.8333333333333 1241.4533333333331 595 1244 L 1057 1446.46" marker-end="url(#v-21252848929)"></path><g id="v-339" ><g id="v-340"  label-idx="0" cursor="move" transform="matrix(1,0,0,1,588.9686279296875,1222.84619140625)" style="cursor: default;"><rect joint-selector="rect" id="v-344" fill="#ffffff" rx="3" ry="3" x="-78.3446273803711" y="-42.328514099121094" width="157.82974243164062" height="80.96064758300781" pointer-events="none"  style="display: block;"></rect><text joint-selector="text" id="v-343" font-size="34px" xml:space="preserve" fill="#444444" text-anchor="middle" pointer-events="none" font-family="Tahoma, Verdana, Helvetica, Arial" font-weight="normal"  style="display: block;"><tspan dy="-0.3em" >Llama a la</tspan><tspan dy="1.2em" x="0" >API</tspan></text></g><g id="v-341"  label-idx="1" cursor="move" transform="matrix(1,0,0,1,588.9686279296875,1282.1461181640625)" style="cursor: default;"><rect joint-selector="rect" id="v-346" fill="#ffffff" rx="3" ry="3" x="-79.09764099121094" y="-12.940320014953613" width="159.5822296142578" height="24.096385955810547"  pointer-events="none" style="display: block;"></rect><text joint-selector="text" id="v-345" font-size="23.799999999999997px" xml:space="preserve" fill="#444444" text-anchor="middle" pointer-events="none" font-family="Tahoma, Verdana, Helvetica, Arial" font-weight="normal"  style="display: block;"><tspan dy="0.3em" >[JSON / HTTP]</tspan></text></g><g id="v-342"  label-idx="2" cursor="move" transform="matrix(1,0,0,1,728.5901489257812,1361.224853515625)" style="cursor: default;"><rect joint-selector="rect" id="v-348" fill="#ffffff" rx="3" ry="3" x="0" y="2.2737367544323206e-13" width="0" height="0"  display="none"></rect><text joint-selector="text" id="v-347" fill="#000000" font-size="14" text-anchor="middle" text-vertical-anchor="middle" pointer-events="none"></text></g></g></g><!--z-index:37--><g   id="j_36"  style="opacity: 1;"><path fill="none" cursor="pointer" stroke="transparent" stroke-linecap="round" joint-selector="wrapper" id="v-365" stroke-width="10" stroke-linejoin="round" d="M 1057 1608.34 L 456 1832 C 450 1834.04 447 1838.3733333333332 447 1845 L 447 2025"></path><path fill="none" pointer-events="none" joint-selector="line" id="v-364" stroke="#444444" stroke-width="2" stroke-linejoin="round" stroke-dasharray="8 8" d="M 1057 1608.34 L 456 1832 C 450 1834.04 447 1838.3733333333332 447 1845 L 447 2025" marker-end="url(#v-21252848929)"></path><g id="v-354" ><g id="v-355"  label-idx="0" cursor="move" transform="matrix(1,0,0,1,449.9877624511719,1818.9296875)" style="cursor: default;"><rect joint-selector="rect" id="v-359" fill="#ffffff" rx="3" ry="3" x="-86.81600952148438" y="-103.52850341796875" width="176.69358825683594" height="203.36065673828125" pointer-events="none"  style="display: block;"></rect><text joint-selector="text" id="v-358" font-size="34px" xml:space="preserve" fill="#444444" text-anchor="middle" pointer-events="none" font-family="Tahoma, Verdana, Helvetica, Arial" font-weight="normal"  style="display: block;"><tspan dy="-2.1em" >Lee y</tspan><tspan dy="1.2em" x="0" >escribe el</tspan><tspan dy="1.2em" x="0" >inventario,</tspan><tspan dy="1.2em" x="0" >las tareas y</tspan><tspan dy="1.2em" x="0" >la auditoría</tspan></text></g><g id="v-356"  label-idx="1" cursor="move" transform="matrix(1,0,0,1,449.9877624511719,1939.4296875)" style="cursor: default;"><rect joint-selector="rect" id="v-361" fill="#ffffff" rx="3" ry="3" x="-63.94327163696289" y="-12.940320014953613" width="129.29538345336914" height="24.096385955810547"  pointer-events="none" style="display: block;"></rect><text joint-selector="text" id="v-360" font-size="23.799999999999997px" xml:space="preserve" fill="#444444" text-anchor="middle" pointer-events="none" font-family="Tahoma, Verdana, Helvetica, Arial" font-weight="normal"  style="display: block;"><tspan dy="0.3em" >[SQL / TCP]</tspan></text></g><g id="v-357"  label-idx="2" cursor="move" transform="matrix(1,0,0,1,654.1528930664062,1870.03662109375)" style="cursor: default;"><rect joint-selector="rect" id="v-363" fill="#ffffff" rx="3" ry="3" x="0" y="4.547473508864641e-13" width="0" height="0"  display="none"></rect><text joint-selector="text" id="v-362" fill="#000000" font-size="14" text-anchor="middle" text-vertical-anchor="middle" pointer-events="none"></text></g></g></g><!--z-index:38--><g   id="j_37"  style="opacity: 1;"><path fill="none" cursor="pointer" stroke="transparent" stroke-linecap="round" joint-selector="wrapper" id="v-383" stroke-width="10" stroke-linejoin="round" d="M 1425.07 1644 L 1709 1830 C 1714.333333333333 1833.3733333333332 1720.333333333333 1836.04 1727 1838 L 2492 2073.47"></path><path fill="none" pointer-events="none" joint-selector="line" id="v-382" stroke="#444444" stroke-width="2" stroke-linejoin="round" stroke-dasharray="8 8" d="M 1425.07 1644 L 1709 1830 C 1714.333333333333 1833.3733333333332 1720.333333333333 1836.04 1727 1838 L 2492 2073.47" marker-end="url(#v-21252848929)"></path><g id="v-372" ><g id="v-373"  label-idx="0" cursor="move" transform="matrix(1,0,0,1,1716.904541015625,1817.362060546875)" style="cursor: default;"><rect joint-selector="rect" id="v-377" fill="#ffffff" rx="3" ry="3" x="-90.58106994628906" y="-83.1285171508789" width="181.63609313964844" height="162.56065368652344" pointer-events="none"  style="display: block;"></rect><text joint-selector="text" id="v-376" font-size="34px" xml:space="preserve" fill="#444444" text-anchor="middle" pointer-events="none" font-family="Tahoma, Verdana, Helvetica, Arial" font-weight="normal"  style="display: block;"><tspan dy="-1.4999999999999998em" >Descubre el</tspan><tspan dy="1.2em" x="0" >inventario y</tspan><tspan dy="1.2em" x="0" >publica los</tspan><tspan dy="1.2em" x="0" >repositorios</tspan></text></g><g id="v-374"  label-idx="1" cursor="move" transform="matrix(1,0,0,1,1716.904541015625,1917.4620361328125)" style="cursor: default;"><rect joint-selector="rect" id="v-379" fill="#ffffff" rx="3" ry="3" x="-80.44678497314453" y="-12.940320014953613" width="162.3040008544922" height="24.096385955810547"  pointer-events="none" style="display: block;"></rect><text joint-selector="text" id="v-378" font-size="23.799999999999997px" xml:space="preserve" fill="#444444" text-anchor="middle" pointer-events="none" font-family="Tahoma, Verdana, Helvetica, Arial" font-weight="normal"  style="display: block;"><tspan dy="0.3em" >[API de GitLab]</tspan></text></g><g id="v-375"  label-idx="2" cursor="move" transform="matrix(1,0,0,1,1927.853759765625,1998.0015869140625)" style="cursor: default;"><rect joint-selector="rect" id="v-381" fill="#ffffff" rx="3" ry="3" x="0" y="0" width="0" height="0"  display="none"></rect><text joint-selector="text" id="v-380" fill="#000000" font-size="14" text-anchor="middle" text-vertical-anchor="middle" pointer-events="none"></text></g></g></g><!--z-index:39--><g   id="j_38"  style="opacity: 1;"><path fill="none" cursor="pointer" stroke="transparent" stroke-linecap="round" joint-selector="wrapper" id="v-398" stroke-width="10" stroke-linejoin="round" d="M 1319.11 1644 L 1422 1826 C 1425.3333333333333 1832.04 1430 1836.3733333333332 1436 1839 L 1972 2054.48"></path><path fill="none" pointer-events="none" joint-selector="line" id="v-397" stroke="#444444" stroke-width="2" stroke-linejoin="round" stroke-dasharray="8 8" d="M 1319.11 1644 L 1422 1826 C 1425.3333333333333 1832.04 1430 1836.3733333333332 1436 1839 L 1972 2054.48" marker-end="url(#v-21252848929)"></path><g id="v-387" ><g id="v-388"  label-idx="0" cursor="move" transform="matrix(1,0,0,1,1427.890869140625,1816.778076171875)" style="cursor: default;"><rect joint-selector="rect" id="v-392" fill="#ffffff" rx="3" ry="3" x="-90.58106994628906" y="-83.1285171508789" width="181.63609313964844" height="162.56065368652344" pointer-events="none"  style="display: block;"></rect><text joint-selector="text" id="v-391" font-size="34px" xml:space="preserve" fill="#444444" text-anchor="middle" pointer-events="none" font-family="Tahoma, Verdana, Helvetica, Arial" font-weight="normal"  style="display: block;"><tspan dy="-1.4999999999999998em" >Descarga el</tspan><tspan dy="1.2em" x="0" >starter del</tspan><tspan dy="1.2em" x="0" >frontend</tspan><tspan dy="1.2em" x="0" >generado</tspan></text></g><g id="v-389"  label-idx="1" cursor="move" transform="matrix(1,0,0,1,1427.890869140625,1916.878173828125)" style="cursor: default;"><rect joint-selector="rect" id="v-394" fill="#ffffff" rx="3" ry="3" x="-37.55647659301758" y="-12.940320014953613" width="76.55107879638672" height="24.096385955810547"  pointer-events="none" style="display: block;"></rect><text joint-selector="text" id="v-393" font-size="23.799999999999997px" xml:space="preserve" fill="#444444" text-anchor="middle" pointer-events="none" font-family="Tahoma, Verdana, Helvetica, Arial" font-weight="normal"  style="display: block;"><tspan dy="0.3em" >[HTTP]</tspan></text></g><g id="v-390"  label-idx="2" cursor="move" transform="matrix(1,0,0,1,1587.981689453125,1999.218994140625)" style="cursor: default;"><rect joint-selector="rect" id="v-396" fill="#ffffff" rx="3" ry="3" x="0" y="4.547473508864641e-13" width="0" height="0"  display="none"></rect><text joint-selector="text" id="v-395" fill="#000000" font-size="14" text-anchor="middle" text-vertical-anchor="middle" pointer-events="none"></text></g></g></g><!--z-index:40--><g   id="j_39"  style="opacity: 1;"><path fill="none" cursor="pointer" stroke="transparent" stroke-linecap="round" joint-selector="wrapper" id="v-416" stroke-width="10" stroke-linejoin="round" d="M 1257 1644 L 1257 2311 C 1257 2317.373333333333 1260 2321.7066666666665 1266 2324 L 1673 2470 C 1679 2472.506666666666 1685.3333333333333 2474.506666666666 1692 2476 L 2519 2685.42"></path><path fill="none" pointer-events="none" joint-selector="line" id="v-415" stroke="#444444" stroke-width="2" stroke-linejoin="round" stroke-dasharray="8 8" d="M 1257 1644 L 1257 2311 C 1257 2317.373333333333 1260 2321.7066666666665 1266 2324 L 1673 2470 C 1679 2472.506666666666 1685.3333333333333 2474.506666666666 1692 2476 L 2519 2685.42" marker-end="url(#v-21252848929)"></path><g id="v-405" ><g id="v-406"  label-idx="0" cursor="move" transform="matrix(1,0,0,1,1257,2103.2353515625)" style="cursor: default;"><rect joint-selector="rect" id="v-410" fill="#ffffff" rx="3" ry="3" x="-83.99221801757812" y="-83.1285171508789" width="171.05763244628906" height="162.56065368652344" pointer-events="none"  style="display: block;"></rect><text joint-selector="text" id="v-409" font-size="34px" xml:space="preserve" fill="#444444" text-anchor="middle" pointer-events="none" font-family="Tahoma, Verdana, Helvetica, Arial" font-weight="normal"  style="display: block;"><tspan dy="-1.4999999999999998em" >Autentica y</tspan><tspan dy="1.2em" x="0" >sincroniza</tspan><tspan dy="1.2em" x="0" >usuarios y</tspan><tspan dy="1.2em" x="0" >grupos</tspan></text></g><g id="v-407"  label-idx="1" cursor="move" transform="matrix(1,0,0,1,1257,2217.615234375)" style="cursor: default;"><rect joint-selector="rect" id="v-412" fill="#ffffff" rx="3" ry="3" x="-81.07429504394531" y="-27.220321655273438" width="165.0084228515625" height="52.65638732910156"  pointer-events="none" style="display: block;"></rect><text joint-selector="text" id="v-411" font-size="23.799999999999997px" xml:space="preserve" fill="#444444" text-anchor="middle" pointer-events="none" font-family="Tahoma, Verdana, Helvetica, Arial" font-weight="normal"  style="display: block;"><tspan dy="-0.3em" >[OIDC y API de</tspan><tspan dy="1.2em" x="0" >administración]</tspan></text></g><g id="v-408"  label-idx="2" cursor="move" transform="matrix(1,0,0,1,1548.484375,2538.30078125)" style="cursor: default;"><rect joint-selector="rect" id="v-414" fill="#ffffff" rx="3" ry="3" x="0" y="4.547473508864641e-13" width="0" height="0"  display="none"></rect><text joint-selector="text" id="v-413" fill="#000000" font-size="14" text-anchor="middle" text-vertical-anchor="middle" pointer-events="none"></text></g></g></g><!--z-index:41--><g   id="j_40"  style="opacity: 1;"><path fill="none" cursor="pointer" stroke="transparent" stroke-linecap="round" joint-selector="wrapper" id="v-431" stroke-width="10" stroke-linejoin="round" d="M 1109.02 1644 L 860 1829 C 854.6666666666666 1833.04 852 1838.3733333333332 852 1845 L 852 2464 C 852 2470.506666666666 853.6666666666666 2476.8399999999997 857 2483 L 933.86 2626"></path><path fill="none" pointer-events="none" joint-selector="line" id="v-430" stroke="#444444" stroke-width="2" stroke-linejoin="round" stroke-dasharray="8 8" d="M 1109.02 1644 L 860 1829 C 854.6666666666666 1833.04 852 1838.3733333333332 852 1845 L 852 2464 C 852 2470.506666666666 853.6666666666666 2476.8399999999997 857 2483 L 933.86 2626" marker-end="url(#v-21252848929)"></path><g id="v-420" ><g id="v-421"  label-idx="0" cursor="move" transform="matrix(1,0,0,1,852,2118.250244140625)" style="cursor: default;"><rect joint-selector="rect" id="v-425" fill="#ffffff" rx="3" ry="3" x="-93.43624114990234" y="-62.728511810302734" width="186.8724822998047" height="121.76065063476562" pointer-events="none"  style="display: block;"></rect><text joint-selector="text" id="v-424" font-size="34px" xml:space="preserve" fill="#444444" text-anchor="middle" pointer-events="none" font-family="Tahoma, Verdana, Helvetica, Arial" font-weight="normal"  style="display: block;"><tspan dy="-0.8999999999999999em" >Publica y</tspan><tspan dy="1.2em" x="0" >recupera los</tspan><tspan dy="1.2em" x="0" >documentos</tspan></text></g><g id="v-422"  label-idx="1" cursor="move" transform="matrix(1,0,0,1,852,2197.950439453125)" style="cursor: default;"><rect joint-selector="rect" id="v-427" fill="#ffffff" rx="3" ry="3" x="-43.517818450927734" y="-12.940320014953613" width="88.45734405517578" height="24.096385955810547"  pointer-events="none" style="display: block;"></rect><text joint-selector="text" id="v-426" font-size="23.799999999999997px" xml:space="preserve" fill="#444444" text-anchor="middle" pointer-events="none" font-family="Tahoma, Verdana, Helvetica, Arial" font-weight="normal"  style="display: block;"><tspan dy="0.3em" >[API S3]</tspan></text></g><g id="v-423"  label-idx="2" cursor="move" transform="matrix(1,0,0,1,842,2155.890625)" style="cursor: default;"><rect joint-selector="rect" id="v-429" fill="#ffffff" rx="3" ry="3" x="0" y="4.547473508864641e-13" width="0" height="0"  display="none"></rect><text joint-selector="text" id="v-428" fill="#000000" font-size="14" text-anchor="middle" text-vertical-anchor="middle" pointer-events="none"></text></g></g></g><!--z-index:42--><g   id="j_41"  style="opacity: 1;"><path fill="none" cursor="pointer" stroke="transparent" stroke-linecap="round" joint-selector="wrapper" id="v-443" stroke-width="10" stroke-linejoin="round" d="M 1407.69 1424 L 1651 1246 C 1656.6666666666665 1242.12 1659.6666666666665 1236.7866666666664 1660 1230 L 1660 662 C 1659.6666666666665 655.2666666666667 1662.3333333333333 650.2666666666667 1668 647 L 2004 456.46"></path><path fill="none" pointer-events="none" joint-selector="line" id="v-442" stroke="#444444" stroke-width="2" stroke-linejoin="round" stroke-dasharray="8 8" d="M 1407.69 1424 L 1651 1246 C 1656.6666666666665 1242.12 1659.6666666666665 1236.7866666666664 1660 1230 L 1660 662 C 1659.6666666666665 655.2666666666667 1662.3333333333333 650.2666666666667 1668 647 L 2004 456.46" marker-end="url(#v-21252848929)"></path><g id="v-435" ><g id="v-436"  label-idx="0" cursor="move" transform="matrix(1,0,0,1,1660,945.8777465820312)" style="cursor: default;"><rect joint-selector="rect" id="v-439" fill="#ffffff" rx="3" ry="3" x="-84.02359008789062" y="-62.728511810302734" width="169.18447875976562" height="121.76065063476562" pointer-events="none"  style="display: block;"></rect><text joint-selector="text" id="v-438" font-size="34px" xml:space="preserve" fill="#444444" text-anchor="middle" pointer-events="none" font-family="Tahoma, Verdana, Helvetica, Arial" font-weight="normal"  style="display: block;"><tspan dy="-0.8999999999999999em" >Notifica el</tspan><tspan dy="1.2em" x="0" >final de la</tspan><tspan dy="1.2em" x="0" >generación</tspan></text></g><g id="v-437"  label-idx="1" cursor="move" transform="matrix(1,0,0,1,1650,1003.677734375)" style="cursor: default;"><rect joint-selector="rect" id="v-441" fill="#ffffff" rx="3" ry="3" x="0" y="0" width="0" height="0"  display="none"></rect><text joint-selector="text" id="v-440" fill="#000000" font-size="14" text-anchor="middle" text-vertical-anchor="middle" pointer-events="none"></text></g></g></g><!--z-index:43--><g   id="j_42"  style="opacity: 1;"><path fill="none" cursor="pointer" stroke="transparent" stroke-linecap="round" joint-selector="wrapper" id="v-455" stroke-width="10" stroke-linejoin="round" d="M 2492 2233.31 L 2323 2316 C 2317.333333333333 2319.04 2311.333333333333 2321.04 2305 2322 L 1522 2472 C 1515.3333333333333 2473.173333333333 1509 2475.173333333333 1503 2478 L 1193 2634.94"></path><path fill="none" pointer-events="none" joint-selector="line" id="v-454" stroke="#9e9e9e" stroke-width="2" stroke-linejoin="round" stroke-dasharray="8 8" d="M 2492 2233.31 L 2323 2316 C 2317.333333333333 2319.04 2311.333333333333 2321.04 2305 2322 L 1522 2472 C 1515.3333333333333 2473.173333333333 1509 2475.173333333333 1503 2478 L 1193 2634.94" marker-end="url(#v-2851464353)"></path><g id="v-447" ><g id="v-448"  label-idx="0" cursor="move" transform="matrix(1,0,0,1,1512.212890625,2474.391845703125)" style="cursor: default;"><rect joint-selector="rect" id="v-451" fill="#ffffff" rx="3" ry="3" x="-97.20130157470703" y="-62.728511810302734" width="194.40260314941406" height="121.76065063476562" pointer-events="none"  style="display: block;"></rect><text joint-selector="text" id="v-450" font-size="34px" xml:space="preserve" fill="#9e9e9e" text-anchor="middle" pointer-events="none" font-family="Tahoma, Verdana, Helvetica, Arial" font-weight="normal"  style="display: block;"><tspan dy="-0.8999999999999999em" >Publicará los</tspan><tspan dy="1.2em" x="0" >documentos</tspan><tspan dy="1.2em" x="0" >desde la CI</tspan></text></g><g id="v-449"  label-idx="1" cursor="move" transform="matrix(1,0,0,1,1502.212890625,2532.191650390625)" style="cursor: default;"><rect joint-selector="rect" id="v-453" fill="#ffffff" rx="3" ry="3" x="0" y="0" width="0" height="0"  display="none"></rect><text joint-selector="text" id="v-452" fill="#000000" font-size="14" text-anchor="middle" text-vertical-anchor="middle" pointer-events="none"></text></g></g></g><!--z-index:44--><g   id="j_43"  style="opacity: 1;"><path fill="none" cursor="pointer" stroke="transparent" stroke-linecap="round" joint-selector="wrapper" id="v-467" stroke-width="10" stroke-linejoin="round" d="M 2726.09 2245 L 2747 2311 C 2748.6666666666665 2317.373333333333 2749.6666666666665 2324.04 2750 2331 L 2750 2464 C 2749.6666666666665 2470.506666666666 2749 2477.173333333333 2748 2484 L 2731.79 2626"></path><path fill="none" pointer-events="none" joint-selector="line" id="v-466" stroke="#9e9e9e" stroke-width="2" stroke-linejoin="round" stroke-dasharray="8 8" d="M 2726.09 2245 L 2747 2311 C 2748.6666666666665 2317.373333333333 2749.6666666666665 2324.04 2750 2331 L 2750 2464 C 2749.6666666666665 2470.506666666666 2749 2477.173333333333 2748 2484 L 2731.79 2626" marker-end="url(#v-2851464353)"></path><g id="v-459" ><g id="v-460"  label-idx="0" cursor="move" transform="matrix(1,0,0,1,2749.337890625,2472.982421875)" style="cursor: default;"><rect joint-selector="rect" id="v-463" fill="#ffffff" rx="3" ry="3" x="-78.3446273803711" y="-83.1285171508789" width="157.1197509765625" height="162.56065368652344" pointer-events="none"  style="display: block;"></rect><text joint-selector="text" id="v-462" font-size="34px" xml:space="preserve" fill="#9e9e9e" text-anchor="middle" pointer-events="none" font-family="Tahoma, Verdana, Helvetica, Arial" font-weight="normal"  style="display: block;"><tspan dy="-1.4999999999999998em" >Delegará</tspan><tspan dy="1.2em" x="0" >también el</tspan><tspan dy="1.2em" x="0" >inicio de</tspan><tspan dy="1.2em" x="0" >sesión</tspan></text></g><g id="v-461"  label-idx="1" cursor="move" transform="matrix(1,0,0,1,2739.337890625,2551.1826171875)" style="cursor: default;"><rect joint-selector="rect" id="v-465" fill="#ffffff" rx="3" ry="3" x="0" y="4.547473508864641e-13" width="0" height="0"  display="none"></rect><text joint-selector="text" id="v-464" fill="#000000" font-size="14" text-anchor="middle" text-vertical-anchor="middle" pointer-events="none"></text></g></g></g><!--z-index:45--><g   id="j_44"  style="opacity: 1;"><path fill="none" cursor="pointer" stroke="transparent" stroke-linecap="round" joint-selector="wrapper" id="v-485" stroke-width="10" stroke-linejoin="round" d="M 2404 422.92 L 2968 648 C 2974 650.5999999999999 2977 655.2666666666667 2977 662 L 2977 2464 C 2977 2470.506666666666 2974.6666666666665 2476.173333333333 2970 2481 L 2827.22 2626"></path><path fill="none" pointer-events="none" joint-selector="line" id="v-484" stroke="#444444" stroke-width="2" stroke-linejoin="round" stroke-dasharray="8 8" d="M 2404 422.92 L 2968 648 C 2974 650.5999999999999 2977 655.2666666666667 2977 662 L 2977 2464 C 2977 2470.506666666666 2974.6666666666665 2476.173333333333 2970 2481 L 2827.22 2626" marker-end="url(#v-21252848929)"></path><g id="v-474" ><g id="v-475"  label-idx="0" cursor="move" transform="matrix(1,0,0,1,2977,1517.40966796875)" style="cursor: default;"><rect joint-selector="rect" id="v-479" fill="#ffffff" rx="3" ry="3" x="-94.37751007080078" y="-21.928510665893555" width="189.93809509277344" height="40.160640716552734" pointer-events="none"  style="display: block;"></rect><text joint-selector="text" id="v-478" font-size="34px" xml:space="preserve" fill="#444444" text-anchor="middle" pointer-events="none" font-family="Tahoma, Verdana, Helvetica, Arial" font-weight="normal"  style="display: block;"><tspan dy="0.3em" >Se autentica</tspan></text></g><g id="v-476"  label-idx="1" cursor="move" transform="matrix(1,0,0,1,2977,1556.3095703125)" style="cursor: default;"><rect joint-selector="rect" id="v-481" fill="#ffffff" rx="3" ry="3" x="-94.25200653076172" y="-12.940320014953613" width="189.93858337402344" height="24.096385955810547"  pointer-events="none" style="display: block;"></rect><text joint-selector="text" id="v-480" font-size="23.799999999999997px" xml:space="preserve" fill="#444444" text-anchor="middle" pointer-events="none" font-family="Tahoma, Verdana, Helvetica, Arial" font-weight="normal"  style="display: block;"><tspan dy="0.3em" >[OIDC con PKCE]</tspan></text></g><g id="v-477"  label-idx="2" cursor="move" transform="matrix(1,0,0,1,2967,1395.5743408203125)" style="cursor: default;"><rect joint-selector="rect" id="v-483" fill="#ffffff" rx="3" ry="3" x="0" y="2.2737367544323206e-13" width="0" height="0"  display="none"></rect><text joint-selector="text" id="v-482" fill="#000000" font-size="14" text-anchor="middle" text-vertical-anchor="middle" pointer-events="none"></text></g></g></g><!--z-index:46--><g   id="j_45"  style="opacity: 1;"><path fill="none" cursor="pointer" stroke="transparent" stroke-linecap="round" joint-selector="wrapper" id="v-503" stroke-width="10" stroke-linejoin="round" d="M 2404 469.6 L 2684 647 C 2689.333333333333 650.2666666666667 2692 655.2666666666667 2692 662 L 2692 2025"></path><path fill="none" pointer-events="none" joint-selector="line" id="v-502" stroke="#444444" stroke-width="2" stroke-linejoin="round" stroke-dasharray="8 8" d="M 2404 469.6 L 2684 647 C 2689.333333333333 650.2666666666667 2692 655.2666666666667 2692 662 L 2692 2025" marker-end="url(#v-21252848929)"></path><g id="v-492" ><g id="v-493"  label-idx="0" cursor="move" transform="matrix(1,0,0,1,2692,1209.2203369140625)" style="cursor: default;"><rect joint-selector="rect" id="v-497" fill="#ffffff" rx="3" ry="3" x="-99.08383178710938" y="-83.1285171508789" width="199.3534393310547" height="162.56065368652344" pointer-events="none"  style="display: block;"></rect><text joint-selector="text" id="v-496" font-size="34px" xml:space="preserve" fill="#444444" text-anchor="middle" pointer-events="none" font-family="Tahoma, Verdana, Helvetica, Arial" font-weight="normal"  style="display: block;"><tspan dy="-1.4999999999999998em" >Continúa el</tspan><tspan dy="1.2em" x="0" >trabajo sobre</tspan><tspan dy="1.2em" x="0" >el repositorio</tspan><tspan dy="1.2em" x="0" >generado</tspan></text></g><g id="v-494"  label-idx="1" cursor="move" transform="matrix(1,0,0,1,2692,1323.600341796875)" style="cursor: default;"><rect joint-selector="rect" id="v-499" fill="#ffffff" rx="3" ry="3" x="-64.60215759277344" y="-27.220321655273438" width="132.04612731933594" height="52.65638732910156"  pointer-events="none" style="display: block;"></rect><text joint-selector="text" id="v-498" font-size="23.799999999999997px" xml:space="preserve" fill="#444444" text-anchor="middle" pointer-events="none" font-family="Tahoma, Verdana, Helvetica, Arial" font-weight="normal"  style="display: block;"><tspan dy="-0.3em" >[Git y merge</tspan><tspan dy="1.2em" x="0" >requests]</tspan></text></g><g id="v-495"  label-idx="2" cursor="move" transform="matrix(1,0,0,1,2682,1278.2230224609375)" style="cursor: default;"><rect joint-selector="rect" id="v-501" fill="#ffffff" rx="3" ry="3" x="0" y="0" width="0" height="0"  display="none"></rect><text joint-selector="text" id="v-500" fill="#000000" font-size="14" text-anchor="middle" text-vertical-anchor="middle" pointer-events="none"></text></g></g></g><!--z-index:47--></g><g  style="user-select: none;"></g><g ></g><g  display="none"></g></g></svg>