<svg xmlns="http://www.w3.org/2000/svg" xmlns:xlink="http://www.w3.org/1999/xlink" version="1.1" viewBox="0 0 2179 2504" style="background: #111111"><style id="v-3" type="text/css">
        .joint-element .scalable * {
            vector-effect: non-scaling-stroke;
        }
    </style><defs joint-selector="defs"><marker id="v-2-527367903" orient="auto" overflow="visible" markerUnits="userSpaceOnUse"><path id="v-72" stroke="#cccccc" fill="#cccccc" transform="rotate(180)" d="M 20 -10 0 0 20 10 Z"></path></marker></defs><g joint-selector="layers"  transform="matrix(1,0,0,1,0,0)"><g  style="pointer-events: none;"></g><g ></g><g  style="user-select: none;"><!--z-index:0--><!--z-index:1--><!--z-index:2--><!--z-index:3--><!--z-index:4--><!--z-index:5--><!--z-index:6--><!--z-index:7--><!--z-index:8--><!--z-index:9--><!--z-index:10--><!--z-index:11--><!--z-index:12--><!--z-index:13--><!--z-index:14--><!--z-index:15--><!--z-index:16--><!--z-index:17--><g   id="j_13"  transform="translate(20,2460)"><g id="v-110"><text  id="v-111" font-size="24px" xml:space="preserve" y="0.8em" font-weight="normal" text-anchor="start" fill="#cccccc" pointer-events="none" display="block" font-family="Tahoma, Verdana, Helvetica, Arial"><tspan dy="0" >lunes, 2 de marzo de 2026, 20:33 hora estándar de Europa central</tspan></text></g></g><!--z-index:18--><g   id="j_12"  transform="translate(20,2426)"><g id="v-108"><text  id="v-109" font-size="24px" xml:space="preserve" y="0.8em" font-weight="normal" text-anchor="start" fill="#cccccc" pointer-events="none" display="block" font-family="Tahoma, Verdana, Helvetica, Arial"><tspan dy="0" >CONTAINER DIAGRAM - LEVEL 2</tspan></text></g></g><!--z-index:19--><g   id="j_11"  transform="translate(20,2380)"><g id="v-106"><text  id="v-107" font-size="36px" xml:space="preserve" y="0.8em" font-weight="normal" text-anchor="start" fill="#cccccc" pointer-events="none" display="block" font-family="Tahoma, Verdana, Helvetica, Arial"><tspan dy="0" >Container View: BACKSTAGE</tspan></text></g></g><!--z-index:20--><g   id="j_14"  transform="translate(563,142)" style=""><g  id="v-115" style="opacity: 1;"><rect  x="0" y="160" width="400" height="240" rx="70" id="v-117" stroke-width="2" pointer-events="visiblePainted" fill="#08427b" stroke="#073b6f" stroke-dasharray=""></rect><circle  cx="200" cy="88.88888888888889" r="88.88888888888889" id="v-116" stroke-width="2" pointer-events="visiblePainted" fill="#08427b" stroke="#073b6f" stroke-dasharray=""></circle><line  x1="80" y1="266.6666666666667" x2="80" y2="400" id="v-123" stroke="#073b6f" stroke-width="1" stroke-dasharray=""></line><line  x1="320" y1="266.6666666666667" x2="320" y2="400" id="v-124" stroke="#073b6f" stroke-width="1" stroke-dasharray=""></line><text  id="v-118" font-size="33.599999999999994px" xml:space="preserve" y="202.5" font-weight="bold" text-anchor="middle" pointer-events="visible" font-family="Tahoma, Verdana, Helvetica, Arial" fill="#ffffff" dominant-baseline="hanging" transform="matrix(1,0,0,1,200,0)"><tspan dy="0" >Desarrollador</tspan></text><text  id="v-119" font-size="16.799999999999997px" xml:space="preserve" y="244.1" text-anchor="middle" font-family="Tahoma, Verdana, Helvetica, Arial" fill="#ffffff" dominant-baseline="hanging" transform="matrix(1,0,0,1,200,0)" style="display: block;"><tspan dy="0" >[Person]</tspan></text><text  id="v-120" font-size="24px" xml:space="preserve" y="275.9" text-anchor="middle" font-family="Tahoma, Verdana, Helvetica, Arial" fill="#ffffff" dominant-baseline="hanging" transform="matrix(1,0,0,1,200,0)" style="display: block;"><tspan dy="0" >Crea y mantiene servicios</tspan><tspan dy="1.2em" x="0" >digitales siguiendo los</tspan><tspan dy="1.2em" x="0" >estándares de la organización.</tspan></text><g  id="v-121" font-weight="normal" text-anchor="middle" color="#ffffff" transform="matrix(1,0,0,1,197.5,368)" display="none"><g ></g><g ></g><g ></g><g ></g></g><image  id="v-122"></image></g></g><!--z-index:21--><g   id="j_15"  transform="translate(1038,142)" style=""><g  id="v-131" style="opacity: 1;"><rect  x="0" y="160" width="400" height="240" rx="70" id="v-133" stroke-width="2" pointer-events="visiblePainted" fill="#08427b" stroke="#073b6f" stroke-dasharray=""></rect><circle  cx="200" cy="88.88888888888889" r="88.88888888888889" id="v-132" stroke-width="2" pointer-events="visiblePainted" fill="#08427b" stroke="#073b6f" stroke-dasharray=""></circle><line  x1="80" y1="266.6666666666667" x2="80" y2="400" id="v-139" stroke="#073b6f" stroke-width="1" stroke-dasharray=""></line><line  x1="320" y1="266.6666666666667" x2="320" y2="400" id="v-140" stroke="#073b6f" stroke-width="1" stroke-dasharray=""></line><text  id="v-134" font-size="33.599999999999994px" xml:space="preserve" y="167.94" font-weight="bold" text-anchor="middle" pointer-events="visible" font-family="Tahoma, Verdana, Helvetica, Arial" fill="#ffffff" dominant-baseline="hanging" transform="matrix(1,0,0,1,200,0)"><tspan dy="0" >Responsable de</tspan><tspan dy="1.2em" x="0" >Gobernanza</tspan></text><text  id="v-135" font-size="16.799999999999997px" xml:space="preserve" y="249.85999999999999" text-anchor="middle" font-family="Tahoma, Verdana, Helvetica, Arial" fill="#ffffff" dominant-baseline="hanging" transform="matrix(1,0,0,1,200,0)" style="display: block;"><tspan dy="0" >[Person]</tspan></text><text  id="v-136" font-size="24px" xml:space="preserve" y="281.65999999999997" text-anchor="middle" font-family="Tahoma, Verdana, Helvetica, Arial" fill="#ffffff" dominant-baseline="hanging" transform="matrix(1,0,0,1,200,0)" style="display: block;"><tspan dy="0" >Define estándares tecnológicos,</tspan><tspan dy="1.2em" x="0" >gestiona el catálogo de</tspan><tspan dy="1.2em" x="0" >servicios y supervisa el</tspan><tspan dy="1.2em" x="0" >cumplimiento normativo.</tspan></text><g  id="v-137" font-weight="normal" text-anchor="middle" color="#ffffff" transform="matrix(1,0,0,1,197.5,368)" display="none"><g ></g><g ></g><g ></g><g ></g></g><image  id="v-138"></image></g></g><!--z-index:22--><g   id="j_17"  transform="translate(200,721)" style="; opacity: 1;"><g id="v-156"><rect  id="v-157" width="1128" height="1525" rx="20" ry="20" stroke-width="2" pointer-events="none" stroke="#0f5eaa" fill="#111111" opacity="1" stroke-dasharray=""></rect><text  id="v-158" font-size="33.599999999999994px" xml:space="preserve" y="1486" font-weight="bold" text-anchor="start" pointer-events="visible" font-family="Tahoma, Verdana, Helvetica, Arial" fill="#1168bd" transform="matrix(1,0,0,1,15,0)"><tspan dy="0" >BACKSTAGE</tspan></text><text  id="v-159" font-size="16.799999999999997px" xml:space="preserve" y="1510" font-weight="normal" text-anchor="start" pointer-events="visible" font-family="Tahoma, Verdana, Helvetica, Arial" fill="#1168bd" transform="matrix(1,0,0,1,15,0)"><tspan dy="0" >[Software System]</tspan></text><image  id="v-160" pointer-events="visible"></image></g></g><!--z-index:23--><g   id="j_16"  transform="translate(540,771)" style=""><g  id="v-144" style="opacity: 1;"><rect  id="v-145" rx="10" ry="10" stroke-width="2" pointer-events="visiblePainted" fill="#3c7fc0" stroke="#3c7fc0" stroke-dasharray="" width="450" height="302"></rect><rect  id="v-146" rx="10" ry="10" stroke-width="0" pointer-events="visiblePainted" fill="#438dd5" stroke="#3c7fc0" width="446" height="260" x="2" y="40"></rect><ellipse  id="v-153" fill="#438dd5" cx="20" cy="20" rx="10" ry="10"></ellipse><ellipse  id="v-154" fill="#438dd5" cx="50" cy="20" rx="10" ry="10"></ellipse><ellipse  id="v-155" fill="#438dd5" cx="80" cy="20" rx="10" ry="10"></ellipse><rect  id="v-147" rx="10" ry="10" stroke-width="0" pointer-events="visiblePainted" fill="#438dd5" width="340" height="20" x="100" y="10"></rect><text  id="v-148" font-size="33.599999999999994px" xml:space="preserve" y="78.10000000000001" font-weight="bold" text-anchor="middle" pointer-events="visible" font-family="Tahoma, Verdana, Helvetica, Arial" fill="#ffffff" dominant-baseline="hanging" transform="matrix(1,0,0,1,225,0)"><tspan dy="0" >Frontend</tspan></text><text  id="v-149" font-size="16.799999999999997px" xml:space="preserve" y="119.7" text-anchor="middle" font-family="Tahoma, Verdana, Helvetica, Arial" fill="#ffffff" dominant-baseline="hanging" transform="matrix(1,0,0,1,225,0)" style="display: block;"><tspan dy="0" >[Container: React]</tspan></text><text  id="v-150" font-size="24px" xml:space="preserve" y="151.5" text-anchor="middle" font-family="Tahoma, Verdana, Helvetica, Arial" fill="#ffffff" dominant-baseline="hanging" transform="matrix(1,0,0,1,225,0)" style="display: block;"><tspan dy="0" >Proporciona la interfaz de usuario</tspan><tspan dy="1.2em" x="0" >donde el desarrollador busca en el</tspan><tspan dy="1.2em" x="0" >catálogo, usa plantillas y ve la</tspan><tspan dy="1.2em" x="0" >documentación.</tspan></text><g  id="v-151" font-weight="normal" text-anchor="middle" color="#ffffff" transform="matrix(1,0,0,1,222.5,268)" display="none"><g ></g><g ></g><g ></g><g ></g></g><image  id="v-152"></image></g></g><!--z-index:24--><g   id="j_18"  transform="translate(540,1308)" style=""><g  id="v-164" style="opacity: 1;"><rect  id="v-165" rx="20" ry="20" stroke-width="2" pointer-events="visiblePainted" fill="#438dd5" stroke="#3c7fc0" stroke-dasharray="" width="450" height="300"></rect><text  id="v-166" font-size="33.599999999999994px" xml:space="preserve" y="72.5" font-weight="bold" text-anchor="middle" pointer-events="visible" font-family="Tahoma, Verdana, Helvetica, Arial" fill="#ffffff" dominant-baseline="hanging" transform="matrix(1,0,0,1,225,0)"><tspan dy="0" >Backend</tspan></text><text  id="v-167" font-size="16.799999999999997px" xml:space="preserve" y="114.1" text-anchor="middle" font-family="Tahoma, Verdana, Helvetica, Arial" fill="#ffffff" dominant-baseline="hanging" transform="matrix(1,0,0,1,225,0)" style="display: block;"><tspan dy="0" >[Container: Node.js / Express]</tspan></text><text  id="v-168" font-size="24px" xml:space="preserve" y="145.89999999999998" text-anchor="middle" font-family="Tahoma, Verdana, Helvetica, Arial" fill="#ffffff" dominant-baseline="hanging" transform="matrix(1,0,0,1,225,0)" style="display: block;"><tspan dy="0" >Orquesta los plugins, gestiona la</tspan><tspan dy="1.2em" x="0" >autenticación y se comunica con</tspan><tspan dy="1.2em" x="0" >sistemas externos.</tspan></text><g  id="v-169" color="#ffffff" transform="matrix(1,0,0,1,210,268)" display="none"><g  transform="translate(5 0)"><svg xmlns="http://www.w3.org/2000/svg" width="20" height="20" fill="currentColor" viewBox="0 0 16 16"><path fill-rule="evenodd" d="M6.5 12a5.5 5.5 0 1 0 0-11 5.5 5.5 0 0 0 0 11zM13 6.5a6.5 6.5 0 1 1-13 0 6.5 6.5 0 0 1 13 0z"></path><path d="M10.344 11.742c.03.04.062.078.098.115l3.85 3.85a1 1 0 0 0 1.415-1.414l-3.85-3.85a1.007 1.007 0 0 0-.115-.1 6.538 6.538 0 0 1-1.398 1.4z"></path><path fill-rule="evenodd" d="M6.5 3a.5.5 0 0 1 .5.5V6h2.5a.5.5 0 0 1 0 1H7v2.5a.5.5 0 0 1-1 0V7H3.5a.5.5 0 0 1 0-1H6V3.5a.5.5 0 0 1 .5-.5z"></path></svg></g><g ></g><g ></g><g ></g></g><image  id="v-170"></image></g></g><!--z-index:25--><g   id="j_19"  transform="translate(250,1817)" style=""><g  id="v-174" style="opacity: 1;"><path  d="M 0,30 a 225,30 0,0,0 450 0 a 225,30 0,0,0 -450 0 l 0,240 a 225,30 0,0,0 450 0 l 0,-240" id="v-175" stroke-width="2" pointer-events="visiblePainted" fill="#438dd5" stroke="#3c7fc0" stroke-dasharray=""></path><rect  id="v-176" stroke-width="0" pointer-events="visiblePainted" fill="none" stroke="none" width="450" height="270" x="0" y="30"></rect><text  id="v-177" font-size="33.599999999999994px" xml:space="preserve" y="87.5" font-weight="bold" text-anchor="middle" pointer-events="visible" font-family="Tahoma, Verdana, Helvetica, Arial" fill="#ffffff" dominant-baseline="hanging" transform="matrix(1,0,0,1,225,0)"><tspan dy="0" >Base de Datos</tspan></text><text  id="v-178" font-size="16.799999999999997px" xml:space="preserve" y="129.1" text-anchor="middle" font-family="Tahoma, Verdana, Helvetica, Arial" fill="#ffffff" dominant-baseline="hanging" transform="matrix(1,0,0,1,225,0)" style="display: block;"><tspan dy="0" >[Container: PostgreSQL]</tspan></text><text  id="v-179" font-size="24px" xml:space="preserve" y="160.89999999999998" text-anchor="middle" font-family="Tahoma, Verdana, Helvetica, Arial" fill="#ffffff" dominant-baseline="hanging" transform="matrix(1,0,0,1,225,0)" style="display: block;"><tspan dy="0" >Almacena la persistencia de datos</tspan><tspan dy="1.2em" x="0" >de Backstage (entidades, estados,</tspan><tspan dy="1.2em" x="0" >etc.).</tspan></text><g  id="v-180" font-weight="normal" text-anchor="middle" color="#ffffff" transform="matrix(1,0,0,1,222.5,268)" display="none"><g ></g><g ></g><g ></g><g ></g></g><image  id="v-181"></image></g></g><!--z-index:26--><g   id="j_20"  transform="translate(828,1817)" style=""><g  id="v-185" style="opacity: 1;"><rect  id="v-186" rx="10" ry="10" stroke-width="2" pointer-events="visiblePainted" fill="#438dd5" stroke="#3c7fc0" stroke-dasharray="" x="10" y="0" width="150" height="75"></rect><rect  id="v-187" rx="5" ry="5" stroke-width="2" pointer-events="visiblePainted" fill="#438dd5" stroke="#3c7fc0" stroke-dasharray="" x="0" y="37.5" width="450" height="262.5"></rect><text  id="v-188" font-size="33.599999999999994px" xml:space="preserve" y="105.65" font-weight="bold" text-anchor="middle" pointer-events="visible" font-family="Tahoma, Verdana, Helvetica, Arial" fill="#ffffff" dominant-baseline="hanging" transform="matrix(1,0,0,1,225,0)"><tspan dy="0" >Cloud Storage</tspan></text><text  id="v-189" font-size="16.799999999999997px" xml:space="preserve" y="147.25" text-anchor="middle" font-family="Tahoma, Verdana, Helvetica, Arial" fill="#ffffff" dominant-baseline="hanging" transform="matrix(1,0,0,1,225,0)" style="display: block;"><tspan dy="0" >[Container: File Storage]</tspan></text><text  id="v-190" font-size="24px" xml:space="preserve" y="179.05" text-anchor="middle" font-family="Tahoma, Verdana, Helvetica, Arial" fill="#ffffff" dominant-baseline="hanging" transform="matrix(1,0,0,1,225,0)" style="display: block;"><tspan dy="0" >Almacena la documentación técnica</tspan><tspan dy="1.2em" x="0" >renderizada (TechDocs).</tspan></text><g  id="v-191" font-weight="normal" text-anchor="middle" color="#ffffff" transform="matrix(1,0,0,1,222.5,268)" display="none"><g ></g><g ></g><g ></g><g ></g></g><image  id="v-192"></image></g></g><!--z-index:27--><g   id="j_21"  transform="translate(1528,1817)" style=""><g  id="v-196" style="opacity: 1;"><rect  id="v-197" rx="20" ry="20" stroke-width="2" pointer-events="visiblePainted" fill="#999999" stroke="#8a8a8a" stroke-dasharray="" width="450" height="300"></rect><text  id="v-198" font-size="33.599999999999994px" xml:space="preserve" y="86.9" font-weight="bold" text-anchor="middle" pointer-events="visible" font-family="Tahoma, Verdana, Helvetica, Arial" fill="#ffffff" dominant-baseline="hanging" transform="matrix(1,0,0,1,225,0)"><tspan dy="0" >GITHUB</tspan></text><text  id="v-199" font-size="16.799999999999997px" xml:space="preserve" y="128.5" text-anchor="middle" font-family="Tahoma, Verdana, Helvetica, Arial" fill="#ffffff" dominant-baseline="hanging" transform="matrix(1,0,0,1,225,0)" style="display: block;"><tspan dy="0" >[Software System]</tspan></text><text  id="v-200" font-size="24px" xml:space="preserve" y="160.3" text-anchor="middle" font-family="Tahoma, Verdana, Helvetica, Arial" fill="#ffffff" dominant-baseline="hanging" transform="matrix(1,0,0,1,225,0)" style="display: block;"><tspan dy="0" >Plataforma de control de versiones y</tspan><tspan dy="1.2em" x="0" >ejecución de pipelines (CI/CD).</tspan></text><g  id="v-201" color="#ffffff" transform="matrix(1,0,0,1,222.5,268)" display="none"><g ></g><g ></g><g ></g><g ></g></g><image  id="v-202"></image></g></g><!--z-index:28--><g   id="j_22"  style="opacity: 1;"><path fill="none" cursor="pointer" stroke="transparent" stroke-linecap="round" joint-selector="wrapper" id="v-217" stroke-width="10" stroke-linejoin="round" d="M 563 518.04 L 441 625 C 436.16666666666663 629.5333333333333 433.83333333333326 635.1999999999999 434 642 L 434 712 C 433.83333333333326 718.4 436.49999999999994 723.4 442 727 L 540 785.88"></path><path fill="none" pointer-events="none" joint-selector="line" id="v-216" stroke="#cccccc" stroke-width="2" stroke-linejoin="round" stroke-dasharray="8 8" d="M 563 518.04 L 441 625 C 436.16666666666663 629.5333333333333 433.83333333333326 635.1999999999999 434 642 L 434 712 C 433.83333333333326 718.4 436.49999999999994 723.4 442 727 L 540 785.88" marker-end="url(#v-2-527367903)"></path><g id="v-206" ><g id="v-207"  label-idx="0" cursor="move" transform="matrix(1,0,0,1,435.72210693359375,619.0181884765625)" style="cursor: default;"><rect joint-selector="rect" id="v-211" fill="#111111" rx="3" ry="3" x="-96.2248764038086" y="-30.840660095214844" width="192.4497528076172" height="57.168792724609375" pointer-events="none"  style="display: block;"></rect><text joint-selector="text" id="v-210" font-size="24px" xml:space="preserve" fill="#cccccc" text-anchor="middle" pointer-events="none" font-family="Tahoma, Verdana, Helvetica, Arial" font-weight="normal"  style="display: block;"><tspan dy="-0.3em" >Navega y utiliza el</tspan><tspan dy="1.2em" x="0" >portal</tspan></text></g><g id="v-208"  label-idx="1" cursor="move" transform="matrix(1,0,0,1,435.72210693359375,663.8182373046875)" style="cursor: default;"><rect joint-selector="rect" id="v-213" fill="#111111" rx="3" ry="3" x="-30.788267135620117" y="-11.508462905883789" width="62.2412109375" height="21.276596069335938"  pointer-events="none" style="display: block;"></rect><text joint-selector="text" id="v-212" font-size="16.799999999999997px" xml:space="preserve" fill="#cccccc" text-anchor="middle" pointer-events="none" font-family="Tahoma, Verdana, Helvetica, Arial" font-weight="normal"  style="display: block;"><tspan dy="0.3em" >[HTTPS]</tspan></text></g><g id="v-209"  label-idx="2" cursor="move" transform="matrix(1,0,0,1,424,692.2704467773438)" style="cursor: default;"><rect joint-selector="rect" id="v-215" fill="#ffffff" rx="3" ry="3" x="-2.2737367544323206e-13" y="-1.1368683772161603e-13" width="0" height="0"  display="none"></rect><text joint-selector="text" id="v-214" fill="#000000" font-size="14" text-anchor="middle" text-vertical-anchor="middle" pointer-events="none"></text></g></g></g><!--z-index:29--><g   id="j_23"  style="opacity: 1;"><path fill="none" cursor="pointer" stroke="transparent" stroke-linecap="round" joint-selector="wrapper" id="v-232" stroke-width="10" stroke-linejoin="round" d="M 1038 518.04 L 916 625 C 911.1666666666665 629.5333333333333 908.8333333333333 635.1999999999999 909 642 L 909 712 C 908.8333333333333 718.4 906.8333333333333 724.4 903 730 L 873.31 771"></path><path fill="none" pointer-events="none" joint-selector="line" id="v-231" stroke="#cccccc" stroke-width="2" stroke-linejoin="round" stroke-dasharray="8 8" d="M 1038 518.04 L 916 625 C 911.1666666666665 629.5333333333333 908.8333333333333 635.1999999999999 909 642 L 909 712 C 908.8333333333333 718.4 906.8333333333333 724.4 903 730 L 873.31 771" marker-end="url(#v-2-527367903)"></path><g id="v-221" ><g id="v-222"  label-idx="0" cursor="move" transform="matrix(1,0,0,1,910.7931518554688,618.8534545898438)" style="cursor: default;"><rect joint-selector="rect" id="v-226" fill="#111111" rx="3" ry="3" x="-95.98477935791016" y="-30.840660095214844" width="193.07342529296875" height="57.168792724609375" pointer-events="none"  style="display: block;"></rect><text joint-selector="text" id="v-225" font-size="24px" xml:space="preserve" fill="#cccccc" text-anchor="middle" pointer-events="none" font-family="Tahoma, Verdana, Helvetica, Arial" font-weight="normal"  style="display: block;"><tspan dy="-0.3em" >Gestiona plantillas</tspan><tspan dy="1.2em" x="0" >y entidades</tspan></text></g><g id="v-223"  label-idx="1" cursor="move" transform="matrix(1,0,0,1,910.7931518554688,663.6534423828125)" style="cursor: default;"><rect joint-selector="rect" id="v-228" fill="#111111" rx="3" ry="3" x="-30.788267135620117" y="-11.508462905883789" width="62.2412109375" height="21.276596069335938"  pointer-events="none" style="display: block;"></rect><text joint-selector="text" id="v-227" font-size="16.799999999999997px" xml:space="preserve" fill="#cccccc" text-anchor="middle" pointer-events="none" font-family="Tahoma, Verdana, Helvetica, Arial" font-weight="normal"  style="display: block;"><tspan dy="0.3em" >[HTTPS]</tspan></text></g><g id="v-224"  label-idx="2" cursor="move" transform="matrix(1,0,0,1,907.2806396484375,663.67724609375)" style="cursor: default;"><rect joint-selector="rect" id="v-230" fill="#ffffff" rx="3" ry="3" x="0" y="-1.1368683772161603e-13" width="0" height="0"  display="none"></rect><text joint-selector="text" id="v-229" fill="#000000" font-size="14" text-anchor="middle" text-vertical-anchor="middle" pointer-events="none"></text></g></g></g><!--z-index:30--><g   id="j_24"  style="opacity: 1;"><path fill="none" cursor="pointer" stroke="transparent" stroke-linecap="round" joint-selector="wrapper" id="v-247" stroke-width="10" stroke-linejoin="round" d="M 765 1073 L 765 1308"></path><path fill="none" pointer-events="none" joint-selector="line" id="v-246" stroke="#cccccc" stroke-width="2" stroke-linejoin="round" stroke-dasharray="8 8" d="M 765 1073 L 765 1308" marker-end="url(#v-2-527367903)"></path><g id="v-236" ><g id="v-237"  label-idx="0" cursor="move" transform="matrix(1,0,0,1,765,1177.0999755859375)" style="cursor: default;"><rect joint-selector="rect" id="v-241" fill="#111111" rx="3" ry="3" x="-97.24069213867188" y="-30.840660095214844" width="194.48138427734375" height="57.168792724609375" pointer-events="none"  style="display: block;"></rect><text joint-selector="text" id="v-240" font-size="24px" xml:space="preserve" fill="#cccccc" text-anchor="middle" pointer-events="none" font-family="Tahoma, Verdana, Helvetica, Arial" font-weight="normal"  style="display: block;"><tspan dy="-0.3em" >Realiza llamadas a</tspan><tspan dy="1.2em" x="0" >la API</tspan></text></g><g id="v-238"  label-idx="1" cursor="move" transform="matrix(1,0,0,1,765,1221.9000244140625)" style="cursor: default;"><rect joint-selector="rect" id="v-243" fill="#111111" rx="3" ry="3" x="-53.70862579345703" y="-11.508462905883789" width="108.07987213134766" height="21.276596069335938"  pointer-events="none" style="display: block;"></rect><text joint-selector="text" id="v-242" font-size="16.799999999999997px" xml:space="preserve" fill="#cccccc" text-anchor="middle" pointer-events="none" font-family="Tahoma, Verdana, Helvetica, Arial" font-weight="normal"  style="display: block;"><tspan dy="0.3em" >[JSON/HTTPS]</tspan></text></g><g id="v-239"  label-idx="2" cursor="move" transform="matrix(1,0,0,1,755,1230.300048828125)" style="cursor: default;"><rect joint-selector="rect" id="v-245" fill="#ffffff" rx="3" ry="3" x="0" y="0" width="0" height="0"  display="none"></rect><text joint-selector="text" id="v-244" fill="#000000" font-size="14" text-anchor="middle" text-vertical-anchor="middle" pointer-events="none"></text></g></g></g><!--z-index:31--><g   id="j_25"  style="opacity: 1;"><path fill="none" cursor="pointer" stroke="transparent" stroke-linecap="round" joint-selector="wrapper" id="v-262" stroke-width="10" stroke-linejoin="round" d="M 594.41 1608 L 483 1706 C 477.66666666666663 1710.6666666666665 474.99999999999994 1716.3333333333333 475 1723 L 475 1817"></path><path fill="none" pointer-events="none" joint-selector="line" id="v-261" stroke="#cccccc" stroke-width="2" stroke-linejoin="round" stroke-dasharray="8 8" d="M 594.41 1608 L 483 1706 C 477.66666666666663 1710.6666666666665 474.99999999999994 1716.3333333333333 475 1723 L 475 1817" marker-end="url(#v-2-527367903)"></path><g id="v-251" ><g id="v-252"  label-idx="0" cursor="move" transform="matrix(1,0,0,1,477.2082824707031,1699.9202880859375)" style="cursor: default;"><rect joint-selector="rect" id="v-256" fill="#111111" rx="3" ry="3" x="-69.29669189453125" y="-30.840660095214844" width="140.1360321044922" height="57.168792724609375" pointer-events="none"  style="display: block;"></rect><text joint-selector="text" id="v-255" font-size="24px" xml:space="preserve" fill="#cccccc" text-anchor="middle" pointer-events="none" font-family="Tahoma, Verdana, Helvetica, Arial" font-weight="normal"  style="display: block;"><tspan dy="-0.3em" >Lee y escribe</tspan><tspan dy="1.2em" x="0" >datos</tspan></text></g><g id="v-253"  label-idx="1" cursor="move" transform="matrix(1,0,0,1,477.2082824707031,1744.7203369140625)" style="cursor: default;"><rect joint-selector="rect" id="v-258" fill="#111111" rx="3" ry="3" x="-38.84086608886719" y="-11.508462905883789" width="78.32938385009766" height="21.276596069335938"  pointer-events="none" style="display: block;"></rect><text joint-selector="text" id="v-257" font-size="16.799999999999997px" xml:space="preserve" fill="#cccccc" text-anchor="middle" pointer-events="none" font-family="Tahoma, Verdana, Helvetica, Arial" font-weight="normal"  style="display: block;"><tspan dy="0.3em" >[SQL/TCP]</tspan></text></g><g id="v-254"  label-idx="2" cursor="move" transform="matrix(1,0,0,1,486.1275939941406,1734.2525634765625)" style="cursor: default;"><rect joint-selector="rect" id="v-260" fill="#ffffff" rx="3" ry="3" x="0" y="-2.2737367544323206e-13" width="0" height="0"  display="none"></rect><text joint-selector="text" id="v-259" fill="#000000" font-size="14" text-anchor="middle" text-vertical-anchor="middle" pointer-events="none"></text></g></g></g><!--z-index:32--><g   id="j_26"  style="opacity: 1;"><path fill="none" cursor="pointer" stroke="transparent" stroke-linecap="round" joint-selector="wrapper" id="v-277" stroke-width="10" stroke-linejoin="round" d="M 826.76 1608 L 866 1704 C 868.6666666666666 1710 872 1715.6666666666665 876 1721 L 944.93 1817"></path><path fill="none" pointer-events="none" joint-selector="line" id="v-276" stroke="#cccccc" stroke-width="2" stroke-linejoin="round" stroke-dasharray="8 8" d="M 826.76 1608 L 866 1704 C 868.6666666666666 1710 872 1715.6666666666665 876 1721 L 944.93 1817" marker-end="url(#v-2-527367903)"></path><g id="v-266" ><g id="v-267"  label-idx="0" cursor="move" transform="matrix(1,0,0,1,870.170166015625,1698.784423828125)" style="cursor: default;"><rect joint-selector="rect" id="v-271" fill="#111111" rx="3" ry="3" x="-80.24896240234375" y="-45.240657806396484" width="161.2958526611328" height="85.96879577636719" pointer-events="none"  style="display: block;"></rect><text joint-selector="text" id="v-270" font-size="24px" xml:space="preserve" fill="#cccccc" text-anchor="middle" pointer-events="none" font-family="Tahoma, Verdana, Helvetica, Arial" font-weight="normal"  style="display: block;"><tspan dy="-0.8999999999999999em" >Sincroniza y</tspan><tspan dy="1.2em" x="0" >almacena</tspan><tspan dy="1.2em" x="0" >documentación</tspan></text></g><g id="v-268"  label-idx="1" cursor="move" transform="matrix(1,0,0,1,870.170166015625,1757.9844970703125)" style="cursor: default;"><rect joint-selector="rect" id="v-273" fill="#111111" rx="3" ry="3" x="-43.25502395629883" y="-11.508462905883789" width="87.17259216308594" height="21.276596069335938"  pointer-events="none" style="display: block;"></rect><text joint-selector="text" id="v-272" font-size="16.799999999999997px" xml:space="preserve" fill="#cccccc" text-anchor="middle" pointer-events="none" font-family="Tahoma, Verdana, Helvetica, Arial" font-weight="normal"  style="display: block;"><tspan dy="0.3em" >[HTTPS/S3]</tspan></text></g><g id="v-269"  label-idx="2" cursor="move" transform="matrix(1,0,0,1,864.4415283203125,1773.057373046875)" style="cursor: default;"><rect joint-selector="rect" id="v-275" fill="#ffffff" rx="3" ry="3" x="0" y="2.2737367544323206e-13" width="0" height="0"  display="none"></rect><text joint-selector="text" id="v-274" fill="#000000" font-size="14" text-anchor="middle" text-vertical-anchor="middle" pointer-events="none"></text></g></g></g><!--z-index:33--><g   id="j_27"  style="opacity: 1;"><path fill="none" cursor="pointer" stroke="transparent" stroke-linecap="round" joint-selector="wrapper" id="v-295" stroke-width="10" stroke-linejoin="round" d="M 990 1563.52 L 1300 1709 C 1305.8333333333333 1711.6666666666665 1311.5 1714.6666666666665 1317 1718 L 1528 1838.36"></path><path fill="none" pointer-events="none" joint-selector="line" id="v-294" stroke="#cccccc" stroke-width="2" stroke-linejoin="round" stroke-dasharray="8 8" d="M 990 1563.52 L 1300 1709 C 1305.8333333333333 1711.6666666666665 1311.5 1714.6666666666665 1317 1718 L 1528 1838.36" marker-end="url(#v-2-527367903)"></path><g id="v-284" ><g id="v-285"  label-idx="0" cursor="move" transform="matrix(1,0,0,1,1308.12646484375,1699.587158203125)" style="cursor: default;"><rect joint-selector="rect" id="v-289" fill="#111111" rx="3" ry="3" x="-98.86598205566406" y="-30.840660095214844" width="199.9600372314453" height="57.168792724609375" pointer-events="none"  style="display: block;"></rect><text joint-selector="text" id="v-288" font-size="24px" xml:space="preserve" fill="#cccccc" text-anchor="middle" pointer-events="none" font-family="Tahoma, Verdana, Helvetica, Arial" font-weight="normal"  style="display: block;"><tspan dy="-0.3em" >Crea repositorios y</tspan><tspan dy="1.2em" x="0" >andamiaje</tspan></text></g><g id="v-286"  label-idx="1" cursor="move" transform="matrix(1,0,0,1,1308.12646484375,1744.38720703125)" style="cursor: default;"><rect joint-selector="rect" id="v-291" fill="#111111" rx="3" ry="3" x="-74.74512481689453" y="-11.508462905883789" width="150.1403045654297" height="21.276596069335938"  pointer-events="none" style="display: block;"></rect><text joint-selector="text" id="v-290" font-size="16.799999999999997px" xml:space="preserve" fill="#cccccc" text-anchor="middle" pointer-events="none" font-family="Tahoma, Verdana, Helvetica, Arial" font-weight="normal"  style="display: block;"><tspan dy="0.3em" >[GitHub API/HTTPS]</tspan></text></g><g id="v-287"  label-idx="2" cursor="move" transform="matrix(1,0,0,1,1253.6629638671875,1731.7474365234375)" style="cursor: default;"><rect joint-selector="rect" id="v-293" fill="#ffffff" rx="3" ry="3" x="0" y="0" width="0" height="0"  display="none"></rect><text joint-selector="text" id="v-292" fill="#000000" font-size="14" text-anchor="middle" text-vertical-anchor="middle" pointer-events="none"></text></g></g></g><!--z-index:34--><g   id="j_28"  style="opacity: 1;"><path fill="none" cursor="pointer" stroke="transparent" stroke-linecap="round" joint-selector="wrapper" id="v-310" stroke-width="10" stroke-linejoin="round" d="M 963 496.25 L 1131 626 C 1136.1666666666665 629.8666666666666 1138.8333333333333 635.1999999999999 1139 642 L 1139 1703 C 1138.8333333333333 1709.6666666666665 1137.8333333333333 1716 1136 1722 L 1103.64 1817"></path><path fill="none" pointer-events="none" joint-selector="line" id="v-309" stroke="#cccccc" stroke-width="2" stroke-linejoin="round" stroke-dasharray="8 8" d="M 963 496.25 L 1131 626 C 1136.1666666666665 629.8666666666666 1138.8333333333333 635.1999999999999 1139 642 L 1139 1703 C 1138.8333333333333 1709.6666666666665 1137.8333333333333 1716 1136 1722 L 1103.64 1817" marker-end="url(#v-2-527367903)"></path><g id="v-299" ><g id="v-300"  label-idx="0" cursor="move" transform="matrix(1,0,0,1,1139,1176.9166259765625)" style="cursor: default;"><rect joint-selector="rect" id="v-304" fill="#111111" rx="3" ry="3" x="-80.24896240234375" y="-59.640663146972656" width="161.2958526611328" height="114.768798828125" pointer-events="none"  style="display: block;"></rect><text joint-selector="text" id="v-303" font-size="24px" xml:space="preserve" fill="#cccccc" text-anchor="middle" pointer-events="none" font-family="Tahoma, Verdana, Helvetica, Arial" font-weight="normal"  style="display: block;"><tspan dy="-1.4999999999999998em" >Lee</tspan><tspan dy="1.2em" x="0" >documentación</tspan><tspan dy="1.2em" x="0" >técnica</tspan><tspan dy="1.2em" x="0" >(TechDocs)</tspan></text></g><g id="v-301"  label-idx="1" cursor="move" transform="matrix(1,0,0,1,1139,1250.5166015625)" style="cursor: default;"><rect joint-selector="rect" id="v-306" fill="#111111" rx="3" ry="3" x="-30.788267135620117" y="-11.508462905883789" width="62.2412109375" height="21.276596069335938"  pointer-events="none" style="display: block;"></rect><text joint-selector="text" id="v-305" font-size="16.799999999999997px" xml:space="preserve" fill="#cccccc" text-anchor="middle" pointer-events="none" font-family="Tahoma, Verdana, Helvetica, Arial" font-weight="normal"  style="display: block;"><tspan dy="0.3em" >[HTTPS]</tspan></text></g><g id="v-302"  label-idx="2" cursor="move" transform="matrix(1,0,0,1,1129,1185.5076904296875)" style="cursor: default;"><rect joint-selector="rect" id="v-308" fill="#ffffff" rx="3" ry="3" x="0" y="0" width="0" height="0"  display="none"></rect><text joint-selector="text" id="v-307" fill="#000000" font-size="14" text-anchor="middle" text-vertical-anchor="middle" pointer-events="none"></text></g></g></g><!--z-index:35--></g><g  style="user-select: none;"></g><g ></g><g  display="none"></g></g></svg>