<svg xmlns="http://www.w3.org/2000/svg" xmlns:xlink="http://www.w3.org/1999/xlink" version="1.1" width="3106" height="3013" style="width: 3106px; height: 3013px; background: #ffffff" viewBox="0 0 3106 3013"><style id="v-3" type="text/css">        .joint-element .scalable * {            vector-effect: non-scaling-stroke;        }    </style><defs joint-selector="defs"><marker id="v-21252848929" orient="auto" overflow="visible" markerUnits="userSpaceOnUse"><path id="v-122" stroke="#444444" fill="#444444" transform="rotate(180)" d="M 20 -10 0 0 20 10 Z"></path></marker></defs><g joint-selector="layers"  transform="matrix(1,0,0,1,0,0)"><g  style="pointer-events: none;"></g><g ></g><g  style="user-select: none;"><!--z-index:0--><!--z-index:1--><!--z-index:2--><!--z-index:3--><!--z-index:4--><!--z-index:5--><!--z-index:6--><!--z-index:7--><!--z-index:8--><!--z-index:9--><!--z-index:10--><!--z-index:11--><!--z-index:12--><!--z-index:13--><!--z-index:14--><!--z-index:15--><!--z-index:16--><!--z-index:17--><!--z-index:18--><!--z-index:19--><!--z-index:20--><!--z-index:21--><g   id="j_25"  transform="translate(20,2969)"><g id="v-274"><text  id="v-275" font-size="24px" xml:space="preserve" y="0.8em" font-weight="normal" text-anchor="start" fill="#444444" pointer-events="none" display="block" font-family="Tahoma, Verdana, Helvetica, Arial"><tspan dy="0"  display="none">Wednesday, March 11, 2026 at 8:35 PM Coordinated Universal Time</tspan></text></g></g><!--z-index:22--><g   id="j_24"  transform="translate(20,2935)"><g id="v-272"><text  id="v-273" font-size="24px" xml:space="preserve" y="0.8em" font-weight="normal" text-anchor="start" fill="#444444" pointer-events="none" display="block" font-family="Tahoma, Verdana, Helvetica, Arial"><tspan dy="0"  display="none">CONTAINER DIAGRAM - LEVEL 2</tspan></text></g></g><!--z-index:23--><g   id="j_23"  transform="translate(20,2889)"><g id="v-270"><text  id="v-271" font-size="36px" xml:space="preserve" y="0.8em" font-weight="normal" text-anchor="start" fill="#444444" pointer-events="none" display="block" font-family="Tahoma, Verdana, Helvetica, Arial"><tspan dy="0"  display="none">Container View: BACKSTAGE</tspan></text></g></g><!--z-index:24--><g   id="j_26"  transform="translate(866,143)" style=""><g  id="v-279" style="opacity: 1;"><rect  x="0" y="160" width="400" height="240" rx="70" id="v-281" stroke-width="2" pointer-events="visiblePainted" fill="#08427b" stroke="#073b6f" stroke-dasharray="" style="fill: rgb(8, 66, 123); stroke: rgb(7, 59, 111);"></rect><circle  cx="200" cy="88.88888888888889" r="88.88888888888889" id="v-280" stroke-width="2" pointer-events="visiblePainted" fill="#08427b" stroke="#073b6f" stroke-dasharray="" style="fill: rgb(8, 66, 123); stroke: rgb(7, 59, 111);"></circle><line  x1="80" y1="266.6666666666667" x2="80" y2="400" id="v-287" stroke="#073b6f" stroke-width="1" stroke-dasharray="" style="stroke: rgb(7, 59, 111);"></line><line  x1="320" y1="266.6666666666667" x2="320" y2="400" id="v-288" stroke="#073b6f" stroke-width="1" stroke-dasharray="" style="stroke: rgb(7, 59, 111);"></line><text  id="v-282" font-size="33.599999999999994px" xml:space="preserve" y="202.5" font-weight="bold" text-anchor="middle" pointer-events="visible" font-family="Tahoma, Verdana, Helvetica, Arial" fill="#ffffff" dominant-baseline="hanging" transform="matrix(1,0,0,1,200,0)" style="fill: rgb(255, 255, 255);"><tspan dy="0" >Desarrollador</tspan></text><text  id="v-283" font-size="16.799999999999997px" xml:space="preserve" y="244.1" text-anchor="middle" font-family="Tahoma, Verdana, Helvetica, Arial" fill="#ffffff" dominant-baseline="hanging" transform="matrix(1,0,0,1,200,0)" style="display: block; fill: rgb(255, 255, 255);"><tspan dy="0" >[Person]</tspan></text><text  id="v-284" font-size="24px" xml:space="preserve" y="275.9" text-anchor="middle" font-family="Tahoma, Verdana, Helvetica, Arial" fill="#ffffff" dominant-baseline="hanging" transform="matrix(1,0,0,1,200,0)" style="display: block; fill: rgb(255, 255, 255);"><tspan dy="0" >Crea y mantiene servicios</tspan><tspan dy="1.2em" x="0" >digitales siguiendo los</tspan><tspan dy="1.2em" x="0" >estándares de la organización.</tspan></text><g  id="v-285" font-weight="normal" text-anchor="middle" color="#ffffff" transform="matrix(1,0,0,1,197.5,368)" display="none" style="fill: rgb(255, 255, 255);"><g ></g><g ></g><g ></g><g ></g></g><image  id="v-286"></image></g></g><!--z-index:25--><g   id="j_27"  transform="translate(1794,143)" style=""><g  id="v-295" style="opacity: 1;"><rect  x="0" y="160" width="400" height="240" rx="70" id="v-297" stroke-width="2" pointer-events="visiblePainted" fill="#08427b" stroke="#073b6f" stroke-dasharray="" style="fill: rgb(8, 66, 123); stroke: rgb(7, 59, 111);"></rect><circle  cx="200" cy="88.88888888888889" r="88.88888888888889" id="v-296" stroke-width="2" pointer-events="visiblePainted" fill="#08427b" stroke="#073b6f" stroke-dasharray="" style="fill: rgb(8, 66, 123); stroke: rgb(7, 59, 111);"></circle><line  x1="80" y1="266.6666666666667" x2="80" y2="400" id="v-303" stroke="#073b6f" stroke-width="1" stroke-dasharray="" style="stroke: rgb(7, 59, 111);"></line><line  x1="320" y1="266.6666666666667" x2="320" y2="400" id="v-304" stroke="#073b6f" stroke-width="1" stroke-dasharray="" style="stroke: rgb(7, 59, 111);"></line><text  id="v-298" font-size="33.599999999999994px" xml:space="preserve" y="153.54000000000002" font-weight="bold" text-anchor="middle" pointer-events="visible" font-family="Tahoma, Verdana, Helvetica, Arial" fill="#ffffff" dominant-baseline="hanging" transform="matrix(1,0,0,1,200,0)" style="fill: rgb(255, 255, 255);"><tspan dy="0" >Responsable de</tspan><tspan dy="1.2em" x="0" >Gobernanza</tspan></text><text  id="v-299" font-size="16.799999999999997px" xml:space="preserve" y="235.46" text-anchor="middle" font-family="Tahoma, Verdana, Helvetica, Arial" fill="#ffffff" dominant-baseline="hanging" transform="matrix(1,0,0,1,200,0)" style="display: block; fill: rgb(255, 255, 255);"><tspan dy="0" >[Person]</tspan></text><text  id="v-300" font-size="24px" xml:space="preserve" y="267.26" text-anchor="middle" font-family="Tahoma, Verdana, Helvetica, Arial" fill="#ffffff" dominant-baseline="hanging" transform="matrix(1,0,0,1,200,0)" style="display: block; fill: rgb(255, 255, 255);"><tspan dy="0" >Define estándares</tspan><tspan dy="1.2em" x="0" >tecnológicos, gestiona el</tspan><tspan dy="1.2em" x="0" >catálogo de servicios y</tspan><tspan dy="1.2em" x="0" >supervisa el cumplimiento</tspan><tspan dy="1.2em" x="0" >normativo</tspan></text><g  id="v-301" font-weight="normal" text-anchor="middle" color="#ffffff" transform="matrix(1,0,0,1,197.5,368)" display="none" style="fill: rgb(255, 255, 255);"><g ></g><g ></g><g ></g><g ></g></g><image  id="v-302"></image></g></g><!--z-index:26--><g   id="j_29"  transform="translate(199,722)" style="; opacity: 1;"><g id="v-320"><rect  id="v-321" width="1153" height="2033" rx="20" ry="20" stroke-width="2" pointer-events="none" stroke="#0f5eaa" fill="#ffffff" opacity="1" stroke-dasharray=""></rect><text  id="v-322" font-size="33.599999999999994px" xml:space="preserve" y="1994" font-weight="bold" text-anchor="start" pointer-events="visible" font-family="Tahoma, Verdana, Helvetica, Arial" fill="#1168bd" transform="matrix(1,0,0,1,15,0)"><tspan dy="0" >BACKSTAGE</tspan></text><text  id="v-323" font-size="16.799999999999997px" xml:space="preserve" y="2018" font-weight="normal" text-anchor="start" pointer-events="visible" font-family="Tahoma, Verdana, Helvetica, Arial" fill="#1168bd" transform="matrix(1,0,0,1,15,0)"><tspan dy="0" >[Software System]</tspan></text><image  id="v-324" pointer-events="visible"></image></g></g><!--z-index:27--><g   id="j_28"  transform="translate(644,772)" style=""><g  id="v-308" style="opacity: 1;"><rect  id="v-309" rx="10" ry="10" stroke-width="2" pointer-events="visiblePainted" fill="#3c7fc0" stroke="#3c7fc0" stroke-dasharray="" width="450" height="302" style="fill: rgb(60, 127, 192); stroke: rgb(60, 127, 192);"></rect><rect  id="v-310" rx="10" ry="10" stroke-width="0" pointer-events="visiblePainted" fill="#438dd5" stroke="#3c7fc0" width="446" height="260" x="2" y="40" style="fill: rgb(67, 141, 213);"></rect><ellipse  id="v-317" fill="#438dd5" cx="20" cy="20" rx="10" ry="10" style="fill: rgb(67, 141, 213);"></ellipse><ellipse  id="v-318" fill="#438dd5" cx="50" cy="20" rx="10" ry="10" style="fill: rgb(67, 141, 213);"></ellipse><ellipse  id="v-319" fill="#438dd5" cx="80" cy="20" rx="10" ry="10" style="fill: rgb(67, 141, 213);"></ellipse><rect  id="v-311" rx="10" ry="10" stroke-width="0" pointer-events="visiblePainted" fill="#438dd5" width="340" height="20" x="100" y="10" style="fill: rgb(67, 141, 213);"></rect><text  id="v-312" font-size="33.599999999999994px" xml:space="preserve" y="78.10000000000001" font-weight="bold" text-anchor="middle" pointer-events="visible" font-family="Tahoma, Verdana, Helvetica, Arial" fill="#ffffff" dominant-baseline="hanging" transform="matrix(1,0,0,1,225,0)" style="fill: rgb(255, 255, 255);"><tspan dy="0" >Frontend</tspan></text><text  id="v-313" font-size="16.799999999999997px" xml:space="preserve" y="119.7" text-anchor="middle" font-family="Tahoma, Verdana, Helvetica, Arial" fill="#ffffff" dominant-baseline="hanging" transform="matrix(1,0,0,1,225,0)" style="display: block; fill: rgb(255, 255, 255);"><tspan dy="0" >[Container: React]</tspan></text><text  id="v-314" font-size="24px" xml:space="preserve" y="151.5" text-anchor="middle" font-family="Tahoma, Verdana, Helvetica, Arial" fill="#ffffff" dominant-baseline="hanging" transform="matrix(1,0,0,1,225,0)" style="display: block; fill: rgb(255, 255, 255);"><tspan dy="0" >Proporciona la interfaz de usuario</tspan><tspan dy="1.2em" x="0" >donde el desarrollador busca en el</tspan><tspan dy="1.2em" x="0" >catálogo, usa plantillas y ve la</tspan><tspan dy="1.2em" x="0" >documentación.</tspan></text><g  id="v-315" font-weight="normal" text-anchor="middle" color="#ffffff" transform="matrix(1,0,0,1,222.5,268)" display="none" style="fill: rgb(255, 255, 255);"><g ></g><g ></g><g ></g><g ></g></g><image  id="v-316"></image></g></g><!--z-index:28--><g   id="j_30"  transform="translate(644,1281)" style=""><g  id="v-328" style="opacity: 1;"><rect  id="v-329" rx="20" ry="20" stroke-width="2" pointer-events="visiblePainted" fill="#438dd5" stroke="#3c7fc0" stroke-dasharray="" width="450" height="300" style="fill: rgb(67, 141, 213); stroke: rgb(60, 127, 192);"></rect><text  id="v-330" font-size="33.599999999999994px" xml:space="preserve" y="72.5" font-weight="bold" text-anchor="middle" pointer-events="visible" font-family="Tahoma, Verdana, Helvetica, Arial" fill="#ffffff" dominant-baseline="hanging" transform="matrix(1,0,0,1,225,0)" style="fill: rgb(255, 255, 255);"><tspan dy="0" >Backend</tspan></text><text  id="v-331" font-size="16.799999999999997px" xml:space="preserve" y="114.1" text-anchor="middle" font-family="Tahoma, Verdana, Helvetica, Arial" fill="#ffffff" dominant-baseline="hanging" transform="matrix(1,0,0,1,225,0)" style="display: block; fill: rgb(255, 255, 255);"><tspan dy="0" >[Container: Node.js / Express]</tspan></text><text  id="v-332" font-size="24px" xml:space="preserve" y="145.89999999999998" text-anchor="middle" font-family="Tahoma, Verdana, Helvetica, Arial" fill="#ffffff" dominant-baseline="hanging" transform="matrix(1,0,0,1,225,0)" style="display: block; fill: rgb(255, 255, 255);"><tspan dy="0" >Orquesta los plugins, gestiona la</tspan><tspan dy="1.2em" x="0" >autenticación y se comunica con</tspan><tspan dy="1.2em" x="0" >sistemas externos.</tspan></text><g  id="v-333" color="#ffffff" transform="matrix(1,0,0,1,210,268)" display="none" style="fill: rgb(255, 255, 255);"><g  transform="translate(5 0)"><svg xmlns="http://www.w3.org/2000/svg" width="20" height="20" fill="currentColor" viewBox="0 0 16 16"><path fill-rule="evenodd" d="M6.5 12a5.5 5.5 0 1 0 0-11 5.5 5.5 0 0 0 0 11zM13 6.5a6.5 6.5 0 1 1-13 0 6.5 6.5 0 0 1 13 0z"></path><path d="M10.344 11.742c.03.04.062.078.098.115l3.85 3.85a1 1 0 0 0 1.415-1.414l-3.85-3.85a1.007 1.007 0 0 0-.115-.1 6.538 6.538 0 0 1-1.398 1.4z"></path><path fill-rule="evenodd" d="M6.5 3a.5.5 0 0 1 .5.5V6h2.5a.5.5 0 0 1 0 1H7v2.5a.5.5 0 0 1-1 0V7H3.5a.5.5 0 0 1 0-1H6V3.5a.5.5 0 0 1 .5-.5z"></path></svg></g><g ></g><g ></g><g ></g></g><image  id="v-334"></image></g></g><!--z-index:29--><g   id="j_31"  transform="translate(249,1789)" style=""><g  id="v-338" style="opacity: 1;"><path  d="M 0,30 a 225,30 0,0,0 450 0 a 225,30 0,0,0 -450 0 l 0,240 a 225,30 0,0,0 450 0 l 0,-240" id="v-339" stroke-width="2" pointer-events="visiblePainted" fill="#438dd5" stroke="#3c7fc0" stroke-dasharray="" style="fill: rgb(67, 141, 213); stroke: rgb(60, 127, 192);"></path><rect  id="v-340" stroke-width="0" pointer-events="visiblePainted" fill="none" stroke="none" width="450" height="270" x="0" y="30"></rect><text  id="v-341" font-size="33.599999999999994px" xml:space="preserve" y="87.5" font-weight="bold" text-anchor="middle" pointer-events="visible" font-family="Tahoma, Verdana, Helvetica, Arial" fill="#ffffff" dominant-baseline="hanging" transform="matrix(1,0,0,1,225,0)" style="fill: rgb(255, 255, 255);"><tspan dy="0" >Base de Datos</tspan></text><text  id="v-342" font-size="16.799999999999997px" xml:space="preserve" y="129.1" text-anchor="middle" font-family="Tahoma, Verdana, Helvetica, Arial" fill="#ffffff" dominant-baseline="hanging" transform="matrix(1,0,0,1,225,0)" style="display: block; fill: rgb(255, 255, 255);"><tspan dy="0" >[Container: PostgreSQL]</tspan></text><text  id="v-343" font-size="24px" xml:space="preserve" y="160.89999999999998" text-anchor="middle" font-family="Tahoma, Verdana, Helvetica, Arial" fill="#ffffff" dominant-baseline="hanging" transform="matrix(1,0,0,1,225,0)" style="display: block; fill: rgb(255, 255, 255);"><tspan dy="0" >Almacena la persistencia de datos</tspan><tspan dy="1.2em" x="0" >de Backstage (entidades, estados,</tspan><tspan dy="1.2em" x="0" >etc.).</tspan></text><g  id="v-344" font-weight="normal" text-anchor="middle" color="#ffffff" transform="matrix(1,0,0,1,222.5,268)" display="none" style="fill: rgb(255, 255, 255);"><g ></g><g ></g><g ></g><g ></g></g><image  id="v-345"></image></g></g><!--z-index:30--><g   id="j_32"  transform="translate(852,2326)" style=""><g  id="v-349" style="opacity: 1;"><rect  id="v-350" rx="10" ry="10" stroke-width="2" pointer-events="visiblePainted" fill="#438dd5" stroke="#3c7fc0" stroke-dasharray="" x="10" y="0" width="150" height="75" style="fill: rgb(67, 141, 213); stroke: rgb(60, 127, 192);"></rect><rect  id="v-351" rx="5" ry="5" stroke-width="2" pointer-events="visiblePainted" fill="#438dd5" stroke="#3c7fc0" stroke-dasharray="" x="0" y="37.5" width="450" height="262.5" style="fill: rgb(67, 141, 213); stroke: rgb(60, 127, 192);"></rect><text  id="v-352" font-size="33.599999999999994px" xml:space="preserve" y="105.65" font-weight="bold" text-anchor="middle" pointer-events="visible" font-family="Tahoma, Verdana, Helvetica, Arial" fill="#ffffff" dominant-baseline="hanging" transform="matrix(1,0,0,1,225,0)" style="fill: rgb(255, 255, 255);"><tspan dy="0" >Cloud Storage</tspan></text><text  id="v-353" font-size="16.799999999999997px" xml:space="preserve" y="147.25" text-anchor="middle" font-family="Tahoma, Verdana, Helvetica, Arial" fill="#ffffff" dominant-baseline="hanging" transform="matrix(1,0,0,1,225,0)" style="display: block; fill: rgb(255, 255, 255);"><tspan dy="0" >[Container: File Storage]</tspan></text><text  id="v-354" font-size="24px" xml:space="preserve" y="179.05" text-anchor="middle" font-family="Tahoma, Verdana, Helvetica, Arial" fill="#ffffff" dominant-baseline="hanging" transform="matrix(1,0,0,1,225,0)" style="display: block; fill: rgb(255, 255, 255);"><tspan dy="0" >Almacena la documentación técnica</tspan><tspan dy="1.2em" x="0" >renderizada (TechDocs).</tspan></text><g  id="v-355" font-weight="normal" text-anchor="middle" color="#ffffff" transform="matrix(1,0,0,1,222.5,268)" display="none" style="fill: rgb(255, 255, 255);"><g ></g><g ></g><g ></g><g ></g></g><image  id="v-356"></image></g></g><!--z-index:31--><g   id="j_33"  transform="translate(2455,1789)" style=""><g  id="v-360" style="opacity: 1;"><rect  id="v-361" rx="20" ry="20" stroke-width="2" pointer-events="visiblePainted" fill="#1168bd" stroke="#0f5eaa" stroke-dasharray="" width="450" height="300" style="fill: rgb(17, 104, 189); stroke: rgb(15, 94, 170);"></rect><text  id="v-362" font-size="33.599999999999994px" xml:space="preserve" y="86.9" font-weight="bold" text-anchor="middle" pointer-events="visible" font-family="Tahoma, Verdana, Helvetica, Arial" fill="#ffffff" dominant-baseline="hanging" transform="matrix(1,0,0,1,225,0)" style="fill: rgb(255, 255, 255);"><tspan dy="0" >GITHUB</tspan></text><text  id="v-363" font-size="16.799999999999997px" xml:space="preserve" y="128.5" text-anchor="middle" font-family="Tahoma, Verdana, Helvetica, Arial" fill="#ffffff" dominant-baseline="hanging" transform="matrix(1,0,0,1,225,0)" style="display: block; fill: rgb(255, 255, 255);"><tspan dy="0" >[Software System]</tspan></text><text  id="v-364" font-size="24px" xml:space="preserve" y="160.3" text-anchor="middle" font-family="Tahoma, Verdana, Helvetica, Arial" fill="#ffffff" dominant-baseline="hanging" transform="matrix(1,0,0,1,225,0)" style="display: block; fill: rgb(255, 255, 255);"><tspan dy="0" >Plataforma de control de versiones y</tspan><tspan dy="1.2em" x="0" >ejecución de pipelines (CI/CD).</tspan></text><g  id="v-365" color="#ffffff" transform="matrix(1,0,0,1,222.5,268)" display="none" style="fill: rgb(255, 255, 255);"><g ></g><g ></g><g ></g><g ></g></g><image  id="v-366"></image></g></g><!--z-index:32--><g   id="j_34"  transform="translate(1955,1789)" style=""><g  id="v-370" style="opacity: 1;"><rect  id="v-371" rx="20" ry="20" stroke-width="2" pointer-events="visiblePainted" fill="#999999" stroke="#8a8a8a" stroke-dasharray="" width="450" height="300" style="fill: rgb(153, 153, 153); stroke: rgb(138, 138, 138);"></rect><text  id="v-372" font-size="33.599999999999994px" xml:space="preserve" y="72.5" font-weight="bold" text-anchor="middle" pointer-events="visible" font-family="Tahoma, Verdana, Helvetica, Arial" fill="#ffffff" dominant-baseline="hanging" transform="matrix(1,0,0,1,225,0)" style="fill: rgb(255, 255, 255);"><tspan dy="0" >BITBUCKET</tspan></text><text  id="v-373" font-size="16.799999999999997px" xml:space="preserve" y="114.1" text-anchor="middle" font-family="Tahoma, Verdana, Helvetica, Arial" fill="#ffffff" dominant-baseline="hanging" transform="matrix(1,0,0,1,225,0)" style="display: block; fill: rgb(255, 255, 255);"><tspan dy="0" >[Software System]</tspan></text><text  id="v-374" font-size="24px" xml:space="preserve" y="145.89999999999998" text-anchor="middle" font-family="Tahoma, Verdana, Helvetica, Arial" fill="#ffffff" dominant-baseline="hanging" transform="matrix(1,0,0,1,225,0)" style="display: block; fill: rgb(255, 255, 255);"><tspan dy="0" >Forja de código del Gobierno de</tspan><tspan dy="1.2em" x="0" >Aragón donde residen los starters</tspan><tspan dy="1.2em" x="0" >oficiales.</tspan></text><g  id="v-375" color="#ffffff" transform="matrix(1,0,0,1,222.5,268)" display="none" style="fill: rgb(255, 255, 255);"><g ></g><g ></g><g ></g><g ></g></g><image  id="v-376"></image></g></g><!--z-index:33--><g   id="j_35"  style="opacity: 1;"><path fill="none" cursor="pointer" stroke="transparent" stroke-linecap="round" joint-selector="wrapper" id="v-391" stroke-width="10" stroke-linejoin="round" d="M 2194 428.36 L 2671 629 C 2677.1666666666665 631.5333333333333 2680.1666666666665 636.1999999999999 2680 643 L 2680.03 1789"></path><path fill="none" pointer-events="none" joint-selector="line" id="v-390" stroke="#444444" stroke-width="2" stroke-linejoin="round" stroke-dasharray="8 8" d="M 2194 428.36 L 2671 629 C 2677.1666666666665 631.5333333333333 2680.1666666666665 636.1999999999999 2680 643 L 2680.03 1789" marker-end="url(#v-21252848929)"></path><g id="v-380" ><g id="v-381"  label-idx="0" cursor="move" transform="matrix(1,0,0,1,2680.013916015625,1164.1192626953125)" style="cursor: default;"><rect joint-selector="rect" id="v-385" fill="#ffffff" rx="3" ry="3" x="-92.6204833984375" y="-41.680320739746094" width="187.93360900878906" height="81.69639587402344" pointer-events="none"  style="display: block;"></rect><text joint-selector="text" id="v-384" font-size="24px" xml:space="preserve" fill="#444444" text-anchor="middle" pointer-events="none" font-family="Tahoma, Verdana, Helvetica, Arial" font-weight="normal"  style="display: block;"><tspan dy="-0.8999999999999999em" >Define y versiona</tspan><tspan dy="1.2em" x="0" >plantillas de</tspan><tspan dy="1.2em" x="0" >software (YAML)</tspan></text></g><g id="v-382"  label-idx="1" cursor="move" transform="matrix(1,0,0,1,2680.013916015625,1223.3192138671875)" style="cursor: default;"><rect joint-selector="rect" id="v-387" fill="#ffffff" rx="3" ry="3" x="-32.12851333618164" y="-11.024256706237793" width="64.25702667236328" height="20.080320358276367"  pointer-events="none" style="display: block;"></rect><text joint-selector="text" id="v-386" font-size="16.799999999999997px" xml:space="preserve" fill="#444444" text-anchor="middle" pointer-events="none" font-family="Tahoma, Verdana, Helvetica, Arial" font-weight="normal"  style="display: block;"><tspan dy="0.3em" >[HTTPS]</tspan></text></g><g id="v-383"  label-idx="2" cursor="move" transform="matrix(1,0,0,1,2670.008056640625,1002.5239868164062)" style="cursor: default;"><rect joint-selector="rect" id="v-389" fill="#ffffff" rx="3" ry="3" x="0" y="0" width="0" height="0"  display="none"></rect><text joint-selector="text" id="v-388" fill="#000000" font-size="14" text-anchor="middle" text-vertical-anchor="middle" pointer-events="none"></text></g></g></g><!--z-index:34--><g   id="j_36"  style="opacity: 1;"><path fill="none" cursor="pointer" stroke="transparent" stroke-linecap="round" joint-selector="wrapper" id="v-406" stroke-width="10" stroke-linejoin="round" d="M 866 433.46 L 434 629 C 428.16666666666663 631.5333333333333 425.16666666666663 636.1999999999999 425 643 L 425 713 C 425.16666666666663 719.4 428.16666666666663 724.0666666666666 434 727 L 644 821.39"></path><path fill="none" pointer-events="none" joint-selector="line" id="v-405" stroke="#444444" stroke-width="2" stroke-linejoin="round" stroke-dasharray="8 8" d="M 866 433.46 L 434 629 C 428.16666666666663 631.5333333333333 425.16666666666663 636.1999999999999 425 643 L 425 713 C 425.16666666666663 719.4 428.16666666666663 724.0666666666666 434 727 L 644 821.39" marker-end="url(#v-21252848929)"></path><g id="v-395" ><g id="v-396"  label-idx="0" cursor="move" transform="matrix(1,0,0,1,428.0498352050781,620.0472412109375)" style="cursor: default;"><rect joint-selector="rect" id="v-400" fill="#ffffff" rx="3" ry="3" x="-97.2954330444336" y="-27.28032112121582" width="194.5908660888672" height="52.89638900756836" pointer-events="none"  style="display: block;"></rect><text joint-selector="text" id="v-399" font-size="24px" xml:space="preserve" fill="#444444" text-anchor="middle" pointer-events="none" font-family="Tahoma, Verdana, Helvetica, Arial" font-weight="normal"  style="display: block;"><tspan dy="-0.3em" >Navega y utiliza el</tspan><tspan dy="1.2em" x="0" >portal</tspan></text></g><g id="v-397"  label-idx="1" cursor="move" transform="matrix(1,0,0,1,428.0498352050781,664.8472900390625)" style="cursor: default;"><rect joint-selector="rect" id="v-402" fill="#ffffff" rx="3" ry="3" x="-32.12851333618164" y="-11.024256706237793" width="64.25702667236328" height="20.080320358276367"  pointer-events="none" style="display: block;"></rect><text joint-selector="text" id="v-401" font-size="16.799999999999997px" xml:space="preserve" fill="#444444" text-anchor="middle" pointer-events="none" font-family="Tahoma, Verdana, Helvetica, Arial" font-weight="normal"  style="display: block;"><tspan dy="0.3em" >[HTTPS]</tspan></text></g><g id="v-398"  label-idx="2" cursor="move" transform="matrix(1,0,0,1,487.16192626953125,640.21044921875)" style="cursor: default;"><rect joint-selector="rect" id="v-404" fill="#ffffff" rx="3" ry="3" x="2.2737367544323206e-13" y="0" width="0" height="0"  display="none"></rect><text joint-selector="text" id="v-403" fill="#000000" font-size="14" text-anchor="middle" text-vertical-anchor="middle" pointer-events="none"></text></g></g></g><!--z-index:35--><g   id="j_37"  style="opacity: 1;"><path fill="none" cursor="pointer" stroke="transparent" stroke-linecap="round" joint-selector="wrapper" id="v-421" stroke-width="10" stroke-linejoin="round" d="M 1794 401.9 L 1002 630 C 995.8333333333333 631.8666666666666 992.8333333333333 636.1999999999999 993 643 L 993 713 C 992.8333333333333 719.4 990.8333333333333 725.4 987 731 L 962.24 772"></path><path fill="none" pointer-events="none" joint-selector="line" id="v-420" stroke="#444444" stroke-width="2" stroke-linejoin="round" stroke-dasharray="8 8" d="M 1794 401.9 L 1002 630 C 995.8333333333333 631.8666666666666 992.8333333333333 636.1999999999999 993 643 L 993 713 C 992.8333333333333 719.4 990.8333333333333 725.4 987 731 L 962.24 772" marker-end="url(#v-21252848929)"></path><g id="v-410" ><g id="v-411"  label-idx="0" cursor="move" transform="matrix(1,0,0,1,996.4653930664062,619.675537109375)" style="cursor: default;"><rect joint-selector="rect" id="v-415" fill="#ffffff" rx="3" ry="3" x="-97.95431518554688" y="-27.28032112121582" width="195.9381103515625" height="52.89638900756836" pointer-events="none"  style="display: block;"></rect><text joint-selector="text" id="v-414" font-size="24px" xml:space="preserve" fill="#444444" text-anchor="middle" pointer-events="none" font-family="Tahoma, Verdana, Helvetica, Arial" font-weight="normal"  style="display: block;"><tspan dy="-0.3em" >Gestiona plantillas</tspan><tspan dy="1.2em" x="0" >y entidades</tspan></text></g><g id="v-412"  label-idx="1" cursor="move" transform="matrix(1,0,0,1,996.4653930664062,664.4755249023438)" style="cursor: default;"><rect joint-selector="rect" id="v-417" fill="#ffffff" rx="3" ry="3" x="-32.12851333618164" y="-11.024256706237793" width="64.25702667236328" height="20.080320358276367"  pointer-events="none" style="display: block;"></rect><text joint-selector="text" id="v-416" font-size="16.799999999999997px" xml:space="preserve" fill="#444444" text-anchor="middle" pointer-events="none" font-family="Tahoma, Verdana, Helvetica, Arial" font-weight="normal"  style="display: block;"><tspan dy="0.3em" >[HTTPS]</tspan></text></g><g id="v-413"  label-idx="2" cursor="move" transform="matrix(1,0,0,1,1313.8353271484375,577.1098022460938)" style="cursor: default;"><rect joint-selector="rect" id="v-419" fill="#ffffff" rx="3" ry="3" x="0" y="1.1368683772161603e-13" width="0" height="0"  display="none"></rect><text joint-selector="text" id="v-418" fill="#000000" font-size="14" text-anchor="middle" text-vertical-anchor="middle" pointer-events="none"></text></g></g></g><!--z-index:36--><g   id="j_38"  style="opacity: 1;"><path fill="none" cursor="pointer" stroke="transparent" stroke-linecap="round" joint-selector="wrapper" id="v-436" stroke-width="10" stroke-linejoin="round" d="M 869 1074 L 869 1281"></path><path fill="none" pointer-events="none" joint-selector="line" id="v-435" stroke="#444444" stroke-width="2" stroke-linejoin="round" stroke-dasharray="8 8" d="M 869 1074 L 869 1281" marker-end="url(#v-21252848929)"></path><g id="v-425" ><g id="v-426"  label-idx="0" cursor="move" transform="matrix(1,0,0,1,869,1164.0999755859375)" style="cursor: default;"><rect joint-selector="rect" id="v-430" fill="#ffffff" rx="3" ry="3" x="-91.27133178710938" y="-27.28032112121582" width="182.59494018554688" height="52.89638900756836" pointer-events="none"  style="display: block;"></rect><text joint-selector="text" id="v-429" font-size="24px" xml:space="preserve" fill="#444444" text-anchor="middle" pointer-events="none" font-family="Tahoma, Verdana, Helvetica, Arial" font-weight="normal"  style="display: block;"><tspan dy="-0.3em" >Realiza llamadas</tspan><tspan dy="1.2em" x="0" >a la API</tspan></text></g><g id="v-427"  label-idx="1" cursor="move" transform="matrix(1,0,0,1,869,1208.9000244140625)" style="cursor: default;"><rect joint-selector="rect" id="v-432" fill="#ffffff" rx="3" ry="3" x="-56.78965759277344" y="-11.024256706237793" width="113.57931518554688" height="20.080320358276367"  pointer-events="none" style="display: block;"></rect><text joint-selector="text" id="v-431" font-size="16.799999999999997px" xml:space="preserve" fill="#444444" text-anchor="middle" pointer-events="none" font-family="Tahoma, Verdana, Helvetica, Arial" font-weight="normal"  style="display: block;"><tspan dy="0.3em" >[JSON/HTTPS]</tspan></text></g><g id="v-428"  label-idx="2" cursor="move" transform="matrix(1,0,0,1,859,1217.300048828125)" style="cursor: default;"><rect joint-selector="rect" id="v-434" fill="#ffffff" rx="3" ry="3" x="0" y="0" width="0" height="0"  display="none"></rect><text joint-selector="text" id="v-433" fill="#000000" font-size="14" text-anchor="middle" text-vertical-anchor="middle" pointer-events="none"></text></g></g></g><!--z-index:37--><g   id="j_39"  style="opacity: 1;"><path fill="none" cursor="pointer" stroke="transparent" stroke-linecap="round" joint-selector="wrapper" id="v-451" stroke-width="10" stroke-linejoin="round" d="M 644 1575.8 L 482 1680 C 476.66666666666663 1683.4666666666667 474 1688.4666666666667 474 1695 L 474 1789"></path><path fill="none" pointer-events="none" joint-selector="line" id="v-450" stroke="#444444" stroke-width="2" stroke-linejoin="round" stroke-dasharray="8 8" d="M 644 1575.8 L 482 1680 C 476.66666666666663 1683.4666666666667 474 1688.4666666666667 474 1695 L 474 1789" marker-end="url(#v-21252848929)"></path><g id="v-440" ><g id="v-441"  label-idx="0" cursor="move" transform="matrix(1,0,0,1,476.2744445800781,1672.45703125)" style="cursor: default;"><rect joint-selector="rect" id="v-445" fill="#ffffff" rx="3" ry="3" x="-71.31651306152344" y="-27.28032112121582" width="145.3057098388672" height="52.89638900756836" pointer-events="none"  style="display: block;"></rect><text joint-selector="text" id="v-444" font-size="24px" xml:space="preserve" fill="#444444" text-anchor="middle" pointer-events="none" font-family="Tahoma, Verdana, Helvetica, Arial" font-weight="normal"  style="display: block;"><tspan dy="-0.3em" >Lee y escribe</tspan><tspan dy="1.2em" x="0" >datos</tspan></text></g><g id="v-442"  label-idx="1" cursor="move" transform="matrix(1,0,0,1,476.2744445800781,1717.257080078125)" style="cursor: default;"><rect joint-selector="rect" id="v-447" fill="#ffffff" rx="3" ry="3" x="-40.50577163696289" y="-11.024256706237793" width="81.01154327392578" height="20.080320358276367"  pointer-events="none" style="display: block;"></rect><text joint-selector="text" id="v-446" font-size="16.799999999999997px" xml:space="preserve" fill="#444444" text-anchor="middle" pointer-events="none" font-family="Tahoma, Verdana, Helvetica, Arial" font-weight="normal"  style="display: block;"><tspan dy="0.3em" >[SQL/TCP]</tspan></text></g><g id="v-443"  label-idx="2" cursor="move" transform="matrix(1,0,0,1,505.986572265625,1697.939453125)" style="cursor: default;"><rect joint-selector="rect" id="v-449" fill="#ffffff" rx="3" ry="3" x="0" y="2.2737367544323206e-13" width="0" height="0"  display="none"></rect><text joint-selector="text" id="v-448" fill="#000000" font-size="14" text-anchor="middle" text-vertical-anchor="middle" pointer-events="none"></text></g></g></g><!--z-index:38--><g   id="j_40"  style="opacity: 1;"><path fill="none" cursor="pointer" stroke="transparent" stroke-linecap="round" joint-selector="wrapper" id="v-466" stroke-width="10" stroke-linejoin="round" d="M 869 1581 L 869 2198 C 868.9999999999999 2204.6666666666665 870.9999999999999 2210.6666666666665 875 2216 L 960.58 2326"></path><path fill="none" pointer-events="none" joint-selector="line" id="v-465" stroke="#444444" stroke-width="2" stroke-linejoin="round" stroke-dasharray="8 8" d="M 869 1581 L 869 2198 C 868.9999999999999 2204.6666666666665 870.9999999999999 2210.6666666666665 875 2216 L 960.58 2326" marker-end="url(#v-21252848929)"></path><g id="v-455" ><g id="v-456"  label-idx="0" cursor="move" transform="matrix(1,0,0,1,869,1925.298095703125)" style="cursor: default;"><rect joint-selector="rect" id="v-460" fill="#ffffff" rx="3" ry="3" x="-81.2939224243164" y="-41.680320739746094" width="162.5878448486328" height="81.69639587402344" pointer-events="none"  style="display: block;"></rect><text joint-selector="text" id="v-459" font-size="24px" xml:space="preserve" fill="#444444" text-anchor="middle" pointer-events="none" font-family="Tahoma, Verdana, Helvetica, Arial" font-weight="normal"  style="display: block;"><tspan dy="-0.8999999999999999em" >Lee</tspan><tspan dy="1.2em" x="0" >documentación</tspan><tspan dy="1.2em" x="0" >estática</tspan></text></g><g id="v-457"  label-idx="1" cursor="move" transform="matrix(1,0,0,1,869,1984.498046875)" style="cursor: default;"><rect joint-selector="rect" id="v-462" fill="#ffffff" rx="3" ry="3" x="-44.71009063720703" y="-11.024256706237793" width="89.42018127441406" height="20.080320358276367"  pointer-events="none" style="display: block;"></rect><text joint-selector="text" id="v-461" font-size="16.799999999999997px" xml:space="preserve" fill="#444444" text-anchor="middle" pointer-events="none" font-family="Tahoma, Verdana, Helvetica, Arial" font-weight="normal"  style="display: block;"><tspan dy="0.3em" >[HTTPS/S3]</tspan></text></g><g id="v-458"  label-idx="2" cursor="move" transform="matrix(1,0,0,1,859,2023.0419921875)" style="cursor: default;"><rect joint-selector="rect" id="v-464" fill="#ffffff" rx="3" ry="3" x="0" y="0" width="0" height="0"  display="none"></rect><text joint-selector="text" id="v-463" fill="#000000" font-size="14" text-anchor="middle" text-vertical-anchor="middle" pointer-events="none"></text></g></g></g><!--z-index:39--><g   id="j_41"  style="opacity: 1;"><path fill="none" cursor="pointer" stroke="transparent" stroke-linecap="round" joint-selector="wrapper" id="v-484" stroke-width="10" stroke-linejoin="round" d="M 1094 1497.03 L 1726 1682 C 1732.1666666666665 1684.1333333333332 1738.5 1686.1333333333332 1745 1688 L 2455 1878.56"></path><path fill="none" pointer-events="none" joint-selector="line" id="v-483" stroke="#444444" stroke-width="2" stroke-linejoin="round" stroke-dasharray="8 8" d="M 1094 1497.03 L 1726 1682 C 1732.1666666666665 1684.1333333333332 1738.5 1686.1333333333332 1745 1688 L 2455 1878.56" marker-end="url(#v-21252848929)"></path><g id="v-473" ><g id="v-474"  label-idx="0" cursor="move" transform="matrix(1,0,0,1,1735.1524658203125,1671.629638671875)" style="cursor: default;"><rect joint-selector="rect" id="v-478" fill="#ffffff" rx="3" ry="3" x="-91.27133178710938" y="-27.28032112121582" width="182.58323669433594" height="52.89638900756836" pointer-events="none"  style="display: block;"></rect><text joint-selector="text" id="v-477" font-size="24px" xml:space="preserve" fill="#444444" text-anchor="middle" pointer-events="none" font-family="Tahoma, Verdana, Helvetica, Arial" font-weight="normal"  style="display: block;"><tspan dy="-0.3em" >Crea repositorios</tspan><tspan dy="1.2em" x="0" >y andamiaje</tspan></text></g><g id="v-475"  label-idx="1" cursor="move" transform="matrix(1,0,0,1,1735.1524658203125,1716.4296875)" style="cursor: default;"><rect joint-selector="rect" id="v-480" fill="#ffffff" rx="3" ry="3" x="-76.36797332763672" y="-11.024256706237793" width="152.73594665527344" height="20.080320358276367"  pointer-events="none" style="display: block;"></rect><text joint-selector="text" id="v-479" font-size="16.799999999999997px" xml:space="preserve" fill="#444444" text-anchor="middle" pointer-events="none" font-family="Tahoma, Verdana, Helvetica, Arial" font-weight="normal"  style="display: block;"><tspan dy="0.3em" >[GitHub API/HTTPS]</tspan></text></g><g id="v-476"  label-idx="2" cursor="move" transform="matrix(1,0,0,1,1762.3756103515625,1735.1474609375)" style="cursor: default;"><rect joint-selector="rect" id="v-482" fill="#ffffff" rx="3" ry="3" x="0" y="2.2737367544323206e-13" width="0" height="0"  display="none"></rect><text joint-selector="text" id="v-481" fill="#000000" font-size="14" text-anchor="middle" text-vertical-anchor="middle" pointer-events="none"></text></g></g></g><!--z-index:40--><g   id="j_42"  style="opacity: 1;"><path fill="none" cursor="pointer" stroke="transparent" stroke-linecap="round" joint-selector="wrapper" id="v-499" stroke-width="10" stroke-linejoin="round" d="M 2455 1976.78 L 1088 2206 C 1081.1666666666665 2207.333333333333 1077.8333333333333 2211.333333333333 1078 2218 L 1077.42 2326"></path><path fill="none" pointer-events="none" joint-selector="line" id="v-498" stroke="#444444" stroke-width="2" stroke-linejoin="round" stroke-dasharray="8 8" d="M 2455 1976.78 L 1088 2206 C 1081.1666666666665 2207.333333333333 1077.8333333333333 2211.333333333333 1078 2218 L 1077.42 2326" marker-end="url(#v-21252848929)"></path><g id="v-488" ><g id="v-489"  label-idx="0" cursor="move" transform="matrix(1,0,0,1,1081.618408203125,2195.36328125)" style="cursor: default;"><rect joint-selector="rect" id="v-493" fill="#ffffff" rx="3" ry="3" x="-94.28337860107422" y="-56.080322265625" width="190.57884216308594" height="110.49639129638672" pointer-events="none"  style="display: block;"></rect><text joint-selector="text" id="v-492" font-size="24px" xml:space="preserve" fill="#444444" text-anchor="middle" pointer-events="none" font-family="Tahoma, Verdana, Helvetica, Arial" font-weight="normal"  style="display: block;"><tspan dy="-1.4999999999999998em" >CI/CD publica</tspan><tspan dy="1.2em" x="0" >docs estáticos</tspan><tspan dy="1.2em" x="0" >(GitHub Actions +</tspan><tspan dy="1.2em" x="0" >techdocs-cli)</tspan></text></g><g id="v-490"  label-idx="1" cursor="move" transform="matrix(1,0,0,1,1081.618408203125,2268.963134765625)" style="cursor: default;"><rect joint-selector="rect" id="v-495" fill="#ffffff" rx="3" ry="3" x="-44.71009063720703" y="-11.024256706237793" width="89.42018127441406" height="20.080320358276367"  pointer-events="none" style="display: block;"></rect><text joint-selector="text" id="v-494" font-size="16.799999999999997px" xml:space="preserve" fill="#444444" text-anchor="middle" pointer-events="none" font-family="Tahoma, Verdana, Helvetica, Arial" font-weight="normal"  style="display: block;"><tspan dy="0.3em" >[HTTPS/S3]</tspan></text></g><g id="v-491"  label-idx="2" cursor="move" transform="matrix(1,0,0,1,1699.7064208984375,2170.3515625)" style="cursor: default;"><rect joint-selector="rect" id="v-497" fill="#ffffff" rx="3" ry="3" x="0" y="4.547473508864641e-13" width="0" height="0"  display="none"></rect><text joint-selector="text" id="v-496" fill="#000000" font-size="14" text-anchor="middle" text-vertical-anchor="middle" pointer-events="none"></text></g></g></g><!--z-index:41--><g   id="j_43"  style="opacity: 1;"><path fill="none" cursor="pointer" stroke="transparent" stroke-linecap="round" joint-selector="wrapper" id="v-514" stroke-width="10" stroke-linejoin="round" d="M 1210.41 543 L 1269 625 C 1273.1666666666665 630.1999999999999 1275.1666666666665 636.1999999999999 1275 643 L 1275 2198 C 1275.1666666666665 2204.6666666666665 1273.1666666666665 2210.6666666666665 1269 2216 L 1187.96 2326"></path><path fill="none" pointer-events="none" joint-selector="line" id="v-513" stroke="#444444" stroke-width="2" stroke-linejoin="round" stroke-dasharray="8 8" d="M 1210.41 543 L 1269 625 C 1273.1666666666665 630.1999999999999 1275.1666666666665 636.1999999999999 1275 643 L 1275 2198 C 1275.1666666666665 2204.6666666666665 1273.1666666666665 2210.6666666666665 1269 2216 L 1187.96 2326" marker-end="url(#v-21252848929)"></path><g id="v-503" ><g id="v-504"  label-idx="0" cursor="move" transform="matrix(1,0,0,1,1275,1417.3555908203125)" style="cursor: default;"><rect joint-selector="rect" id="v-508" fill="#ffffff" rx="3" ry="3" x="-81.2939224243164" y="-56.080322265625" width="162.5878448486328" height="110.49639129638672" pointer-events="none"  style="display: block;"></rect><text joint-selector="text" id="v-507" font-size="24px" xml:space="preserve" fill="#444444" text-anchor="middle" pointer-events="none" font-family="Tahoma, Verdana, Helvetica, Arial" font-weight="normal"  style="display: block;"><tspan dy="-1.4999999999999998em" >Lee</tspan><tspan dy="1.2em" x="0" >documentación</tspan><tspan dy="1.2em" x="0" >técnica</tspan><tspan dy="1.2em" x="0" >(TechDocs)</tspan></text></g><g id="v-505"  label-idx="1" cursor="move" transform="matrix(1,0,0,1,1275,1490.95556640625)" style="cursor: default;"><rect joint-selector="rect" id="v-510" fill="#ffffff" rx="3" ry="3" x="-32.12851333618164" y="-11.024256706237793" width="64.25702667236328" height="20.080320358276367"  pointer-events="none" style="display: block;"></rect><text joint-selector="text" id="v-509" font-size="16.799999999999997px" xml:space="preserve" fill="#444444" text-anchor="middle" pointer-events="none" font-family="Tahoma, Verdana, Helvetica, Arial" font-weight="normal"  style="display: block;"><tspan dy="0.3em" >[HTTPS]</tspan></text></g><g id="v-506"  label-idx="2" cursor="move" transform="matrix(1,0,0,1,1265,1507.016845703125)" style="cursor: default;"><rect joint-selector="rect" id="v-512" fill="#ffffff" rx="3" ry="3" x="2.2737367544323206e-13" y="2.2737367544323206e-13" width="0" height="0"  display="none"></rect><text joint-selector="text" id="v-511" fill="#000000" font-size="14" text-anchor="middle" text-vertical-anchor="middle" pointer-events="none"></text></g></g></g><!--z-index:42--><g   id="j_44"  style="opacity: 1;"><path fill="none" cursor="pointer" stroke="transparent" stroke-linecap="round" joint-selector="wrapper" id="v-532" stroke-width="10" stroke-linejoin="round" d="M 1094 1530.25 L 1436 1681 C 1442.1666666666665 1683.8 1448.5 1686.1333333333332 1455 1688 L 1955 1861.28"></path><path fill="none" pointer-events="none" joint-selector="line" id="v-531" stroke="#444444" stroke-width="2" stroke-linejoin="round" stroke-dasharray="8 8" d="M 1094 1530.25 L 1436 1681 C 1442.1666666666665 1683.8 1448.5 1686.1333333333332 1455 1688 L 1955 1861.28" marker-end="url(#v-21252848929)"></path><g id="v-521" ><g id="v-522"  label-idx="0" cursor="move" transform="matrix(1,0,0,1,1445.263671875,1671.408935546875)" style="cursor: default;"><rect joint-selector="rect" id="v-526" fill="#ffffff" rx="3" ry="3" x="-68.64959716796875" y="-41.680320739746094" width="140.0152587890625" height="81.69639587402344" pointer-events="none"  style="display: block;"></rect><text joint-selector="text" id="v-525" font-size="24px" xml:space="preserve" fill="#444444" text-anchor="middle" pointer-events="none" font-family="Tahoma, Verdana, Helvetica, Arial" font-weight="normal"  style="display: block;"><tspan dy="-0.8999999999999999em" >Descubre</tspan><tspan dy="1.2em" x="0" >entidades de</tspan><tspan dy="1.2em" x="0" >catálogo</tspan></text></g><g id="v-523"  label-idx="1" cursor="move" transform="matrix(1,0,0,1,1445.263671875,1730.60888671875)" style="cursor: default;"><rect joint-selector="rect" id="v-528" fill="#ffffff" rx="3" ry="3" x="-84.74523162841797" y="-11.024256706237793" width="169.49046325683594" height="20.080320358276367"  pointer-events="none" style="display: block;"></rect><text joint-selector="text" id="v-527" font-size="16.799999999999997px" xml:space="preserve" fill="#444444" text-anchor="middle" pointer-events="none" font-family="Tahoma, Verdana, Helvetica, Arial" font-weight="normal"  style="display: block;"><tspan dy="0.3em" >[Bitbucket API/HTTPS]</tspan></text></g><g id="v-524"  label-idx="2" cursor="move" transform="matrix(1,0,0,1,1508.853515625,1764.3291015625)" style="cursor: default;"><rect joint-selector="rect" id="v-530" fill="#ffffff" rx="3" ry="3" x="0" y="2.2737367544323206e-13" width="0" height="0"  display="none"></rect><text joint-selector="text" id="v-529" fill="#000000" font-size="14" text-anchor="middle" text-vertical-anchor="middle" pointer-events="none"></text></g></g></g><!--z-index:43--></g><g  style="user-select: none;"></g><g ></g><g  display="none"></g></g></svg>