<svg xmlns="http://www.w3.org/2000/svg" xmlns:xlink="http://www.w3.org/1999/xlink" version="1.1" viewBox="0 0 3106 3013" style="background: #111111"><style id="v-3" type="text/css">
        .joint-element .scalable * {
            vector-effect: non-scaling-stroke;
        }
    </style><defs joint-selector="defs"><marker id="v-2-527367903" orient="auto" overflow="visible" markerUnits="userSpaceOnUse"><path id="v-162" stroke="#cccccc" fill="#cccccc" transform="rotate(180)" d="M 20 -10 0 0 20 10 Z"></path></marker></defs><g joint-selector="layers"  transform="matrix(1,0,0,1,0,0)"><g  style="pointer-events: none;"></g><g ></g><g  style="user-select: none;"><!--z-index:0--><!--z-index:1--><!--z-index:2--><!--z-index:3--><!--z-index:4--><!--z-index:5--><!--z-index:6--><!--z-index:7--><!--z-index:8--><!--z-index:9--><!--z-index:10--><!--z-index:11--><!--z-index:12--><!--z-index:13--><!--z-index:14--><!--z-index:15--><!--z-index:16--><!--z-index:17--><!--z-index:18--><!--z-index:19--><!--z-index:20--><!--z-index:21--><g   id="j_137"  transform="translate(20,2969)"><g id="v-1715"><text  id="v-1716" font-size="24px" xml:space="preserve" y="0.8em" font-weight="normal" text-anchor="start" fill="#cccccc" pointer-events="none" display="block" font-family="Tahoma, Verdana, Helvetica, Arial"><tspan dy="0" >jueves, 5 de marzo de 2026, 11:53 hora estándar de Europa central</tspan></text></g></g><!--z-index:22--><g   id="j_136"  transform="translate(20,2935)"><g id="v-1713"><text  id="v-1714" font-size="24px" xml:space="preserve" y="0.8em" font-weight="normal" text-anchor="start" fill="#cccccc" pointer-events="none" display="block" font-family="Tahoma, Verdana, Helvetica, Arial"><tspan dy="0" >CONTAINER DIAGRAM - LEVEL 2</tspan></text></g></g><!--z-index:23--><g   id="j_135"  transform="translate(20,2889)"><g id="v-1711"><text  id="v-1712" font-size="36px" xml:space="preserve" y="0.8em" font-weight="normal" text-anchor="start" fill="#cccccc" pointer-events="none" display="block" font-family="Tahoma, Verdana, Helvetica, Arial"><tspan dy="0" >Container View: BACKSTAGE</tspan></text></g></g><!--z-index:24--><g   id="j_138"  transform="translate(866,143)" style=""><g  id="v-1720" style="opacity: 1;"><rect  x="0" y="160" width="400" height="240" rx="70" id="v-1722" stroke-width="2" pointer-events="visiblePainted" fill="#08427b" stroke="#073b6f" stroke-dasharray=""></rect><circle  cx="200" cy="88.88888888888889" r="88.88888888888889" id="v-1721" stroke-width="2" pointer-events="visiblePainted" fill="#08427b" stroke="#073b6f" stroke-dasharray=""></circle><line  x1="80" y1="266.6666666666667" x2="80" y2="400" id="v-1728" stroke="#073b6f" stroke-width="1" stroke-dasharray=""></line><line  x1="320" y1="266.6666666666667" x2="320" y2="400" id="v-1729" stroke="#073b6f" stroke-width="1" stroke-dasharray=""></line><text  id="v-1723" font-size="33.599999999999994px" xml:space="preserve" y="202.5" font-weight="bold" text-anchor="middle" pointer-events="visible" font-family="Tahoma, Verdana, Helvetica, Arial" fill="#ffffff" dominant-baseline="hanging" transform="matrix(1,0,0,1,200,0)"><tspan dy="0" >Desarrollador</tspan></text><text  id="v-1724" font-size="16.799999999999997px" xml:space="preserve" y="244.1" text-anchor="middle" font-family="Tahoma, Verdana, Helvetica, Arial" fill="#ffffff" dominant-baseline="hanging" transform="matrix(1,0,0,1,200,0)" style="display: block;"><tspan dy="0" >[Person]</tspan></text><text  id="v-1725" font-size="24px" xml:space="preserve" y="275.9" text-anchor="middle" font-family="Tahoma, Verdana, Helvetica, Arial" fill="#ffffff" dominant-baseline="hanging" transform="matrix(1,0,0,1,200,0)" style="display: block;"><tspan dy="0" >Crea y mantiene servicios</tspan><tspan dy="1.2em" x="0" >digitales siguiendo los</tspan><tspan dy="1.2em" x="0" >estándares de la organización.</tspan></text><g  id="v-1726" font-weight="normal" text-anchor="middle" color="#ffffff" transform="matrix(1,0,0,1,197.5,368)" display="none"><g ></g><g ></g><g ></g><g ></g></g><image  id="v-1727"></image></g></g><!--z-index:25--><g   id="j_139"  transform="translate(1794,143)" style=""><g  id="v-1736" style="opacity: 1;"><rect  x="0" y="160" width="400" height="240" rx="70" id="v-1738" stroke-width="2" pointer-events="visiblePainted" fill="#08427b" stroke="#073b6f" stroke-dasharray=""></rect><circle  cx="200" cy="88.88888888888889" r="88.88888888888889" id="v-1737" stroke-width="2" pointer-events="visiblePainted" fill="#08427b" stroke="#073b6f" stroke-dasharray=""></circle><line  x1="80" y1="266.6666666666667" x2="80" y2="400" id="v-1744" stroke="#073b6f" stroke-width="1" stroke-dasharray=""></line><line  x1="320" y1="266.6666666666667" x2="320" y2="400" id="v-1745" stroke="#073b6f" stroke-width="1" stroke-dasharray=""></line><text  id="v-1739" font-size="33.599999999999994px" xml:space="preserve" y="167.94" font-weight="bold" text-anchor="middle" pointer-events="visible" font-family="Tahoma, Verdana, Helvetica, Arial" fill="#ffffff" dominant-baseline="hanging" transform="matrix(1,0,0,1,200,0)"><tspan dy="0" >Responsable de</tspan><tspan dy="1.2em" x="0" >Gobernanza</tspan></text><text  id="v-1740" font-size="16.799999999999997px" xml:space="preserve" y="249.85999999999999" text-anchor="middle" font-family="Tahoma, Verdana, Helvetica, Arial" fill="#ffffff" dominant-baseline="hanging" transform="matrix(1,0,0,1,200,0)" style="display: block;"><tspan dy="0" >[Person]</tspan></text><text  id="v-1741" font-size="24px" xml:space="preserve" y="281.65999999999997" text-anchor="middle" font-family="Tahoma, Verdana, Helvetica, Arial" fill="#ffffff" dominant-baseline="hanging" transform="matrix(1,0,0,1,200,0)" style="display: block;"><tspan dy="0" >Define estándares tecnológicos,</tspan><tspan dy="1.2em" x="0" >gestiona el catálogo de</tspan><tspan dy="1.2em" x="0" >servicios y supervisa el</tspan><tspan dy="1.2em" x="0" >cumplimiento normativo.</tspan></text><g  id="v-1742" font-weight="normal" text-anchor="middle" color="#ffffff" transform="matrix(1,0,0,1,197.5,368)" display="none"><g ></g><g ></g><g ></g><g ></g></g><image  id="v-1743"></image></g></g><!--z-index:26--><g   id="j_141"  transform="translate(199,722)" style="; opacity: 1;"><g id="v-1761"><rect  id="v-1762" width="1153" height="2033" rx="20" ry="20" stroke-width="2" pointer-events="none" stroke="#0f5eaa" fill="#111111" opacity="1" stroke-dasharray=""></rect><text  id="v-1763" font-size="33.599999999999994px" xml:space="preserve" y="1994" font-weight="bold" text-anchor="start" pointer-events="visible" font-family="Tahoma, Verdana, Helvetica, Arial" fill="#1168bd" transform="matrix(1,0,0,1,15,0)"><tspan dy="0" >BACKSTAGE</tspan></text><text  id="v-1764" font-size="16.799999999999997px" xml:space="preserve" y="2018" font-weight="normal" text-anchor="start" pointer-events="visible" font-family="Tahoma, Verdana, Helvetica, Arial" fill="#1168bd" transform="matrix(1,0,0,1,15,0)"><tspan dy="0" >[Software System]</tspan></text><image  id="v-1765" pointer-events="visible"></image></g></g><!--z-index:27--><g   id="j_140"  transform="translate(644,772)" style=""><g  id="v-1749" style="opacity: 1;"><rect  id="v-1750" rx="10" ry="10" stroke-width="2" pointer-events="visiblePainted" fill="#3c7fc0" stroke="#3c7fc0" stroke-dasharray="" width="450" height="302"></rect><rect  id="v-1751" rx="10" ry="10" stroke-width="0" pointer-events="visiblePainted" fill="#438dd5" stroke="#3c7fc0" width="446" height="260" x="2" y="40"></rect><ellipse  id="v-1758" fill="#438dd5" cx="20" cy="20" rx="10" ry="10"></ellipse><ellipse  id="v-1759" fill="#438dd5" cx="50" cy="20" rx="10" ry="10"></ellipse><ellipse  id="v-1760" fill="#438dd5" cx="80" cy="20" rx="10" ry="10"></ellipse><rect  id="v-1752" rx="10" ry="10" stroke-width="0" pointer-events="visiblePainted" fill="#438dd5" width="340" height="20" x="100" y="10"></rect><text  id="v-1753" font-size="33.599999999999994px" xml:space="preserve" y="78.10000000000001" font-weight="bold" text-anchor="middle" pointer-events="visible" font-family="Tahoma, Verdana, Helvetica, Arial" fill="#ffffff" dominant-baseline="hanging" transform="matrix(1,0,0,1,225,0)"><tspan dy="0" >Frontend</tspan></text><text  id="v-1754" font-size="16.799999999999997px" xml:space="preserve" y="119.7" text-anchor="middle" font-family="Tahoma, Verdana, Helvetica, Arial" fill="#ffffff" dominant-baseline="hanging" transform="matrix(1,0,0,1,225,0)" style="display: block;"><tspan dy="0" >[Container: React]</tspan></text><text  id="v-1755" font-size="24px" xml:space="preserve" y="151.5" text-anchor="middle" font-family="Tahoma, Verdana, Helvetica, Arial" fill="#ffffff" dominant-baseline="hanging" transform="matrix(1,0,0,1,225,0)" style="display: block;"><tspan dy="0" >Proporciona la interfaz de usuario</tspan><tspan dy="1.2em" x="0" >donde el desarrollador busca en el</tspan><tspan dy="1.2em" x="0" >catálogo, usa plantillas y ve la</tspan><tspan dy="1.2em" x="0" >documentación.</tspan></text><g  id="v-1756" font-weight="normal" text-anchor="middle" color="#ffffff" transform="matrix(1,0,0,1,222.5,268)" display="none"><g ></g><g ></g><g ></g><g ></g></g><image  id="v-1757"></image></g></g><!--z-index:28--><g   id="j_142"  transform="translate(644,1281)" style=""><g  id="v-1769" style="opacity: 1;"><rect  id="v-1770" rx="20" ry="20" stroke-width="2" pointer-events="visiblePainted" fill="#438dd5" stroke="#3c7fc0" stroke-dasharray="" width="450" height="300"></rect><text  id="v-1771" font-size="33.599999999999994px" xml:space="preserve" y="72.5" font-weight="bold" text-anchor="middle" pointer-events="visible" font-family="Tahoma, Verdana, Helvetica, Arial" fill="#ffffff" dominant-baseline="hanging" transform="matrix(1,0,0,1,225,0)"><tspan dy="0" >Backend</tspan></text><text  id="v-1772" font-size="16.799999999999997px" xml:space="preserve" y="114.1" text-anchor="middle" font-family="Tahoma, Verdana, Helvetica, Arial" fill="#ffffff" dominant-baseline="hanging" transform="matrix(1,0,0,1,225,0)" style="display: block;"><tspan dy="0" >[Container: Node.js / Express]</tspan></text><text  id="v-1773" font-size="24px" xml:space="preserve" y="145.89999999999998" text-anchor="middle" font-family="Tahoma, Verdana, Helvetica, Arial" fill="#ffffff" dominant-baseline="hanging" transform="matrix(1,0,0,1,225,0)" style="display: block;"><tspan dy="0" >Orquesta los plugins, gestiona la</tspan><tspan dy="1.2em" x="0" >autenticación y se comunica con</tspan><tspan dy="1.2em" x="0" >sistemas externos.</tspan></text><g  id="v-1774" color="#ffffff" transform="matrix(1,0,0,1,210,268)" display="none"><g  transform="translate(5 0)"><svg xmlns="http://www.w3.org/2000/svg" width="20" height="20" fill="currentColor" viewBox="0 0 16 16"><path fill-rule="evenodd" d="M6.5 12a5.5 5.5 0 1 0 0-11 5.5 5.5 0 0 0 0 11zM13 6.5a6.5 6.5 0 1 1-13 0 6.5 6.5 0 0 1 13 0z"></path><path d="M10.344 11.742c.03.04.062.078.098.115l3.85 3.85a1 1 0 0 0 1.415-1.414l-3.85-3.85a1.007 1.007 0 0 0-.115-.1 6.538 6.538 0 0 1-1.398 1.4z"></path><path fill-rule="evenodd" d="M6.5 3a.5.5 0 0 1 .5.5V6h2.5a.5.5 0 0 1 0 1H7v2.5a.5.5 0 0 1-1 0V7H3.5a.5.5 0 0 1 0-1H6V3.5a.5.5 0 0 1 .5-.5z"></path></svg></g><g ></g><g ></g><g ></g></g><image  id="v-1775"></image></g></g><!--z-index:29--><g   id="j_143"  transform="translate(249,1789)" style=""><g  id="v-1779" style="opacity: 1;"><path  d="M 0,30 a 225,30 0,0,0 450 0 a 225,30 0,0,0 -450 0 l 0,240 a 225,30 0,0,0 450 0 l 0,-240" id="v-1780" stroke-width="2" pointer-events="visiblePainted" fill="#438dd5" stroke="#3c7fc0" stroke-dasharray=""></path><rect  id="v-1781" stroke-width="0" pointer-events="visiblePainted" fill="none" stroke="none" width="450" height="270" x="0" y="30"></rect><text  id="v-1782" font-size="33.599999999999994px" xml:space="preserve" y="87.5" font-weight="bold" text-anchor="middle" pointer-events="visible" font-family="Tahoma, Verdana, Helvetica, Arial" fill="#ffffff" dominant-baseline="hanging" transform="matrix(1,0,0,1,225,0)"><tspan dy="0" >Base de Datos</tspan></text><text  id="v-1783" font-size="16.799999999999997px" xml:space="preserve" y="129.1" text-anchor="middle" font-family="Tahoma, Verdana, Helvetica, Arial" fill="#ffffff" dominant-baseline="hanging" transform="matrix(1,0,0,1,225,0)" style="display: block;"><tspan dy="0" >[Container: PostgreSQL]</tspan></text><text  id="v-1784" font-size="24px" xml:space="preserve" y="160.89999999999998" text-anchor="middle" font-family="Tahoma, Verdana, Helvetica, Arial" fill="#ffffff" dominant-baseline="hanging" transform="matrix(1,0,0,1,225,0)" style="display: block;"><tspan dy="0" >Almacena la persistencia de datos</tspan><tspan dy="1.2em" x="0" >de Backstage (entidades, estados,</tspan><tspan dy="1.2em" x="0" >etc.).</tspan></text><g  id="v-1785" font-weight="normal" text-anchor="middle" color="#ffffff" transform="matrix(1,0,0,1,222.5,268)" display="none"><g ></g><g ></g><g ></g><g ></g></g><image  id="v-1786"></image></g></g><!--z-index:30--><g   id="j_144"  transform="translate(852,2326)" style=""><g  id="v-1790" style="opacity: 1;"><rect  id="v-1791" rx="10" ry="10" stroke-width="2" pointer-events="visiblePainted" fill="#438dd5" stroke="#3c7fc0" stroke-dasharray="" x="10" y="0" width="150" height="75"></rect><rect  id="v-1792" rx="5" ry="5" stroke-width="2" pointer-events="visiblePainted" fill="#438dd5" stroke="#3c7fc0" stroke-dasharray="" x="0" y="37.5" width="450" height="262.5"></rect><text  id="v-1793" font-size="33.599999999999994px" xml:space="preserve" y="105.65" font-weight="bold" text-anchor="middle" pointer-events="visible" font-family="Tahoma, Verdana, Helvetica, Arial" fill="#ffffff" dominant-baseline="hanging" transform="matrix(1,0,0,1,225,0)"><tspan dy="0" >Cloud Storage</tspan></text><text  id="v-1794" font-size="16.799999999999997px" xml:space="preserve" y="147.25" text-anchor="middle" font-family="Tahoma, Verdana, Helvetica, Arial" fill="#ffffff" dominant-baseline="hanging" transform="matrix(1,0,0,1,225,0)" style="display: block;"><tspan dy="0" >[Container: File Storage]</tspan></text><text  id="v-1795" font-size="24px" xml:space="preserve" y="179.05" text-anchor="middle" font-family="Tahoma, Verdana, Helvetica, Arial" fill="#ffffff" dominant-baseline="hanging" transform="matrix(1,0,0,1,225,0)" style="display: block;"><tspan dy="0" >Almacena la documentación técnica</tspan><tspan dy="1.2em" x="0" >renderizada (TechDocs).</tspan></text><g  id="v-1796" font-weight="normal" text-anchor="middle" color="#ffffff" transform="matrix(1,0,0,1,222.5,268)" display="none"><g ></g><g ></g><g ></g><g ></g></g><image  id="v-1797"></image></g></g><!--z-index:31--><g   id="j_145"  transform="translate(2455,1789)" style=""><g  id="v-1801" style="opacity: 1;"><rect  id="v-1802" rx="20" ry="20" stroke-width="2" pointer-events="visiblePainted" fill="#1168bd" stroke="#0f5eaa" stroke-dasharray="" width="450" height="300"></rect><text  id="v-1803" font-size="33.599999999999994px" xml:space="preserve" y="86.9" font-weight="bold" text-anchor="middle" pointer-events="visible" font-family="Tahoma, Verdana, Helvetica, Arial" fill="#ffffff" dominant-baseline="hanging" transform="matrix(1,0,0,1,225,0)"><tspan dy="0" >GITHUB</tspan></text><text  id="v-1804" font-size="16.799999999999997px" xml:space="preserve" y="128.5" text-anchor="middle" font-family="Tahoma, Verdana, Helvetica, Arial" fill="#ffffff" dominant-baseline="hanging" transform="matrix(1,0,0,1,225,0)" style="display: block;"><tspan dy="0" >[Software System]</tspan></text><text  id="v-1805" font-size="24px" xml:space="preserve" y="160.3" text-anchor="middle" font-family="Tahoma, Verdana, Helvetica, Arial" fill="#ffffff" dominant-baseline="hanging" transform="matrix(1,0,0,1,225,0)" style="display: block;"><tspan dy="0" >Plataforma de control de versiones y</tspan><tspan dy="1.2em" x="0" >ejecución de pipelines (CI/CD).</tspan></text><g  id="v-1806" color="#ffffff" transform="matrix(1,0,0,1,222.5,268)" display="none"><g ></g><g ></g><g ></g><g ></g></g><image  id="v-1807"></image></g></g><!--z-index:32--><g   id="j_146"  transform="translate(1955,1789)" style=""><g  id="v-1811" style="opacity: 1;"><rect  id="v-1812" rx="20" ry="20" stroke-width="2" pointer-events="visiblePainted" fill="#999999" stroke="#8a8a8a" stroke-dasharray="" width="450" height="300"></rect><text  id="v-1813" font-size="33.599999999999994px" xml:space="preserve" y="72.5" font-weight="bold" text-anchor="middle" pointer-events="visible" font-family="Tahoma, Verdana, Helvetica, Arial" fill="#ffffff" dominant-baseline="hanging" transform="matrix(1,0,0,1,225,0)"><tspan dy="0" >BITBUCKET</tspan></text><text  id="v-1814" font-size="16.799999999999997px" xml:space="preserve" y="114.1" text-anchor="middle" font-family="Tahoma, Verdana, Helvetica, Arial" fill="#ffffff" dominant-baseline="hanging" transform="matrix(1,0,0,1,225,0)" style="display: block;"><tspan dy="0" >[Software System]</tspan></text><text  id="v-1815" font-size="24px" xml:space="preserve" y="145.89999999999998" text-anchor="middle" font-family="Tahoma, Verdana, Helvetica, Arial" fill="#ffffff" dominant-baseline="hanging" transform="matrix(1,0,0,1,225,0)" style="display: block;"><tspan dy="0" >Forja de código del Gobierno de</tspan><tspan dy="1.2em" x="0" >Aragón donde residen los starters</tspan><tspan dy="1.2em" x="0" >oficiales.</tspan></text><g  id="v-1816" color="#ffffff" transform="matrix(1,0,0,1,222.5,268)" display="none"><g ></g><g ></g><g ></g><g ></g></g><image  id="v-1817"></image></g></g><!--z-index:33--><g   id="j_147"  style="opacity: 1;"><path fill="none" cursor="pointer" stroke="transparent" stroke-linecap="round" joint-selector="wrapper" id="v-1832" stroke-width="10" stroke-linejoin="round" d="M 2194 427.46 L 2671 629 C 2677.1666666666665 631.5333333333333 2680.1666666666665 636.1999999999999 2680 643 L 2680.03 1789"></path><path fill="none" pointer-events="none" joint-selector="line" id="v-1831" stroke="#cccccc" stroke-width="2" stroke-linejoin="round" stroke-dasharray="8 8" d="M 2194 427.46 L 2671 629 C 2677.1666666666665 631.5333333333333 2680.1666666666665 636.1999999999999 2680 643 L 2680.03 1789" marker-end="url(#v-2-527367903)"></path><g id="v-1821" ><g id="v-1822"  label-idx="0" cursor="move" transform="matrix(1,0,0,1,2680.013916015625,1163.9920654296875)" style="cursor: default;"><rect joint-selector="rect" id="v-1826" fill="#111111" rx="3" ry="3" x="-91.51297760009766" y="-46.53025817871094" width="184.6829376220703" height="89.65319061279297" pointer-events="none"  style="display: block;"></rect><text joint-selector="text" id="v-1825" font-size="24px" xml:space="preserve" fill="#cccccc" text-anchor="middle" pointer-events="none" font-family="Tahoma, Verdana, Helvetica, Arial" font-weight="normal"  style="display: block;"><tspan dy="-0.8999999999999999em" >Define y versiona</tspan><tspan dy="1.2em" x="0" >plantillas de</tspan><tspan dy="1.2em" x="0" >software (YAML)</tspan></text></g><g id="v-1823"  label-idx="1" cursor="move" transform="matrix(1,0,0,1,2680.013916015625,1223.1920166015625)" style="cursor: default;"><rect joint-selector="rect" id="v-1828" fill="#111111" rx="3" ry="3" x="-30.773290634155273" y="-12.767328262329102" width="62.237831115722656" height="21.368793487548828"  pointer-events="none" style="display: block;"></rect><text joint-selector="text" id="v-1827" font-size="16.799999999999997px" xml:space="preserve" fill="#cccccc" text-anchor="middle" pointer-events="none" font-family="Tahoma, Verdana, Helvetica, Arial" font-weight="normal"  style="display: block;"><tspan dy="0.3em" >[HTTPS]</tspan></text></g><g id="v-1824"  label-idx="2" cursor="move" transform="matrix(1,0,0,1,2670.008056640625,1002.3491821289062)" style="cursor: default;"><rect joint-selector="rect" id="v-1830" fill="#ffffff" rx="3" ry="3" x="0" y="0" width="0" height="0"  display="none"></rect><text joint-selector="text" id="v-1829" fill="#000000" font-size="14" text-anchor="middle" text-vertical-anchor="middle" pointer-events="none"></text></g></g></g><!--z-index:34--><g   id="j_148"  style="opacity: 1;"><path fill="none" cursor="pointer" stroke="transparent" stroke-linecap="round" joint-selector="wrapper" id="v-1847" stroke-width="10" stroke-linejoin="round" d="M 866 433.46 L 434 629 C 428.16666666666663 631.5333333333333 425.16666666666663 636.1999999999999 425 643 L 425 713 C 425.16666666666663 719.4 428.16666666666663 724.0666666666666 434 727 L 644 821.39"></path><path fill="none" pointer-events="none" joint-selector="line" id="v-1846" stroke="#cccccc" stroke-width="2" stroke-linejoin="round" stroke-dasharray="8 8" d="M 866 433.46 L 434 629 C 428.16666666666663 631.5333333333333 425.16666666666663 636.1999999999999 425 643 L 425 713 C 425.16666666666663 719.4 428.16666666666663 724.0666666666666 434 727 L 644 821.39" marker-end="url(#v-2-527367903)"></path><g id="v-1836" ><g id="v-1837"  label-idx="0" cursor="move" transform="matrix(1,0,0,1,428.0498352050781,620.0472412109375)" style="cursor: default;"><rect joint-selector="rect" id="v-1841" fill="#111111" rx="3" ry="3" x="-96.10392761230469" y="-32.1302604675293" width="193.85121154785156" height="60.85319137573242" pointer-events="none"  style="display: block;"></rect><text joint-selector="text" id="v-1840" font-size="24px" xml:space="preserve" fill="#cccccc" text-anchor="middle" pointer-events="none" font-family="Tahoma, Verdana, Helvetica, Arial" font-weight="normal"  style="display: block;"><tspan dy="-0.3em" >Navega y utiliza el</tspan><tspan dy="1.2em" x="0" >portal</tspan></text></g><g id="v-1838"  label-idx="1" cursor="move" transform="matrix(1,0,0,1,428.0498352050781,664.8472900390625)" style="cursor: default;"><rect joint-selector="rect" id="v-1843" fill="#111111" rx="3" ry="3" x="-30.773290634155273" y="-12.767328262329102" width="62.237831115722656" height="21.368793487548828"  pointer-events="none" style="display: block;"></rect><text joint-selector="text" id="v-1842" font-size="16.799999999999997px" xml:space="preserve" fill="#cccccc" text-anchor="middle" pointer-events="none" font-family="Tahoma, Verdana, Helvetica, Arial" font-weight="normal"  style="display: block;"><tspan dy="0.3em" >[HTTPS]</tspan></text></g><g id="v-1839"  label-idx="2" cursor="move" transform="matrix(1,0,0,1,487.16192626953125,640.21044921875)" style="cursor: default;"><rect joint-selector="rect" id="v-1845" fill="#ffffff" rx="3" ry="3" x="0" y="1.1368683772161603e-13" width="0" height="0"  display="none"></rect><text joint-selector="text" id="v-1844" fill="#000000" font-size="14" text-anchor="middle" text-vertical-anchor="middle" pointer-events="none"></text></g></g></g><!--z-index:35--><g   id="j_149"  style="opacity: 1;"><path fill="none" cursor="pointer" stroke="transparent" stroke-linecap="round" joint-selector="wrapper" id="v-1862" stroke-width="10" stroke-linejoin="round" d="M 1794 400.89 L 1002 630 C 995.8333333333333 631.8666666666666 992.8333333333333 636.1999999999999 993 643 L 993 713 C 992.8333333333333 719.4 990.8333333333333 725.4 987 731 L 962.24 772"></path><path fill="none" pointer-events="none" joint-selector="line" id="v-1861" stroke="#cccccc" stroke-width="2" stroke-linejoin="round" stroke-dasharray="8 8" d="M 1794 400.89 L 1002 630 C 995.8333333333333 631.8666666666666 992.8333333333333 636.1999999999999 993 643 L 993 713 C 992.8333333333333 719.4 990.8333333333333 725.4 987 731 L 962.24 772" marker-end="url(#v-2-527367903)"></path><g id="v-1851" ><g id="v-1852"  label-idx="0" cursor="move" transform="matrix(1,0,0,1,996.4879150390625,619.6539916992188)" style="cursor: default;"><rect joint-selector="rect" id="v-1856" fill="#111111" rx="3" ry="3" x="-99.44280242919922" y="-32.1302604675293" width="198.85940551757812" height="60.85319137573242" pointer-events="none"  style="display: block;"></rect><text joint-selector="text" id="v-1855" font-size="24px" xml:space="preserve" fill="#cccccc" text-anchor="middle" pointer-events="none" font-family="Tahoma, Verdana, Helvetica, Arial" font-weight="normal"  style="display: block;"><tspan dy="-0.3em" >Gestiona plantillas</tspan><tspan dy="1.2em" x="0" >y entidades</tspan></text></g><g id="v-1853"  label-idx="1" cursor="move" transform="matrix(1,0,0,1,996.4879150390625,664.4539794921875)" style="cursor: default;"><rect joint-selector="rect" id="v-1858" fill="#111111" rx="3" ry="3" x="-30.773290634155273" y="-12.767328262329102" width="62.237831115722656" height="21.368793487548828"  pointer-events="none" style="display: block;"></rect><text joint-selector="text" id="v-1857" font-size="16.799999999999997px" xml:space="preserve" fill="#cccccc" text-anchor="middle" pointer-events="none" font-family="Tahoma, Verdana, Helvetica, Arial" font-weight="normal"  style="display: block;"><tspan dy="0.3em" >[HTTPS]</tspan></text></g><g id="v-1854"  label-idx="2" cursor="move" transform="matrix(1,0,0,1,1313.860595703125,576.6920776367188)" style="cursor: default;"><rect joint-selector="rect" id="v-1860" fill="#ffffff" rx="3" ry="3" x="0" y="1.1368683772161603e-13" width="0" height="0"  display="none"></rect><text joint-selector="text" id="v-1859" fill="#000000" font-size="14" text-anchor="middle" text-vertical-anchor="middle" pointer-events="none"></text></g></g></g><!--z-index:36--><g   id="j_150"  style="opacity: 1;"><path fill="none" cursor="pointer" stroke="transparent" stroke-linecap="round" joint-selector="wrapper" id="v-1877" stroke-width="10" stroke-linejoin="round" d="M 869 1074 L 869 1281"></path><path fill="none" pointer-events="none" joint-selector="line" id="v-1876" stroke="#cccccc" stroke-width="2" stroke-linejoin="round" stroke-dasharray="8 8" d="M 869 1074 L 869 1281" marker-end="url(#v-2-527367903)"></path><g id="v-1866" ><g id="v-1867"  label-idx="0" cursor="move" transform="matrix(1,0,0,1,869,1164.0999755859375)" style="cursor: default;"><rect joint-selector="rect" id="v-1871" fill="#111111" rx="3" ry="3" x="-97.13341522216797" y="-32.1302604675293" width="195.91827392578125" height="57.291725158691406" pointer-events="none"  style="display: block;"></rect><text joint-selector="text" id="v-1870" font-size="24px" xml:space="preserve" fill="#cccccc" text-anchor="middle" pointer-events="none" font-family="Tahoma, Verdana, Helvetica, Arial" font-weight="normal"  style="display: block;"><tspan dy="-0.3em" >Realiza llamadas a</tspan><tspan dy="1.2em" x="0" >la API</tspan></text></g><g id="v-1868"  label-idx="1" cursor="move" transform="matrix(1,0,0,1,869,1208.9000244140625)" style="cursor: default;"><rect joint-selector="rect" id="v-1873" fill="#111111" rx="3" ry="3" x="-53.700225830078125" y="-12.767328262329102" width="108.04817199707031" height="21.368793487548828"  pointer-events="none" style="display: block;"></rect><text joint-selector="text" id="v-1872" font-size="16.799999999999997px" xml:space="preserve" fill="#cccccc" text-anchor="middle" pointer-events="none" font-family="Tahoma, Verdana, Helvetica, Arial" font-weight="normal"  style="display: block;"><tspan dy="0.3em" >[JSON/HTTPS]</tspan></text></g><g id="v-1869"  label-idx="2" cursor="move" transform="matrix(1,0,0,1,859,1217.300048828125)" style="cursor: default;"><rect joint-selector="rect" id="v-1875" fill="#ffffff" rx="3" ry="3" x="0" y="0" width="0" height="0"  display="none"></rect><text joint-selector="text" id="v-1874" fill="#000000" font-size="14" text-anchor="middle" text-vertical-anchor="middle" pointer-events="none"></text></g></g></g><!--z-index:37--><g   id="j_151"  style="opacity: 1;"><path fill="none" cursor="pointer" stroke="transparent" stroke-linecap="round" joint-selector="wrapper" id="v-1892" stroke-width="10" stroke-linejoin="round" d="M 644 1575.8 L 482 1680 C 476.66666666666663 1683.4666666666667 474 1688.4666666666667 474 1695 L 474 1789"></path><path fill="none" pointer-events="none" joint-selector="line" id="v-1891" stroke="#cccccc" stroke-width="2" stroke-linejoin="round" stroke-dasharray="8 8" d="M 644 1575.8 L 482 1680 C 476.66666666666663 1683.4666666666667 474 1688.4666666666667 474 1695 L 474 1789" marker-end="url(#v-2-527367903)"></path><g id="v-1881" ><g id="v-1882"  label-idx="0" cursor="move" transform="matrix(1,0,0,1,476.2744445800781,1672.45703125)" style="cursor: default;"><rect joint-selector="rect" id="v-1886" fill="#111111" rx="3" ry="3" x="-69.22599029541016" y="-32.1302604675293" width="140.05772399902344" height="57.291725158691406" pointer-events="none"  style="display: block;"></rect><text joint-selector="text" id="v-1885" font-size="24px" xml:space="preserve" fill="#cccccc" text-anchor="middle" pointer-events="none" font-family="Tahoma, Verdana, Helvetica, Arial" font-weight="normal"  style="display: block;"><tspan dy="-0.3em" >Lee y escribe</tspan><tspan dy="1.2em" x="0" >datos</tspan></text></g><g id="v-1883"  label-idx="1" cursor="move" transform="matrix(1,0,0,1,476.2744445800781,1717.257080078125)" style="cursor: default;"><rect joint-selector="rect" id="v-1888" fill="#111111" rx="3" ry="3" x="-38.81441116333008" y="-12.767328262329102" width="78.31605529785156" height="21.368793487548828"  pointer-events="none" style="display: block;"></rect><text joint-selector="text" id="v-1887" font-size="16.799999999999997px" xml:space="preserve" fill="#cccccc" text-anchor="middle" pointer-events="none" font-family="Tahoma, Verdana, Helvetica, Arial" font-weight="normal"  style="display: block;"><tspan dy="0.3em" >[SQL/TCP]</tspan></text></g><g id="v-1884"  label-idx="2" cursor="move" transform="matrix(1,0,0,1,505.986572265625,1697.939453125)" style="cursor: default;"><rect joint-selector="rect" id="v-1890" fill="#ffffff" rx="3" ry="3" x="0" y="2.2737367544323206e-13" width="0" height="0"  display="none"></rect><text joint-selector="text" id="v-1889" fill="#000000" font-size="14" text-anchor="middle" text-vertical-anchor="middle" pointer-events="none"></text></g></g></g><!--z-index:38--><g   id="j_152"  style="opacity: 1;"><path fill="none" cursor="pointer" stroke="transparent" stroke-linecap="round" joint-selector="wrapper" id="v-1907" stroke-width="10" stroke-linejoin="round" d="M 869 1581 L 869 2198 C 868.9999999999999 2204.6666666666665 870.9999999999999 2210.6666666666665 875 2216 L 960.58 2326"></path><path fill="none" pointer-events="none" joint-selector="line" id="v-1906" stroke="#cccccc" stroke-width="2" stroke-linejoin="round" stroke-dasharray="8 8" d="M 869 1581 L 869 2198 C 868.9999999999999 2204.6666666666665 870.9999999999999 2210.6666666666665 875 2216 L 960.58 2326" marker-end="url(#v-2-527367903)"></path><g id="v-1896" ><g id="v-1897"  label-idx="0" cursor="move" transform="matrix(1,0,0,1,869,1925.298095703125)" style="cursor: default;"><rect joint-selector="rect" id="v-1901" fill="#111111" rx="3" ry="3" x="-83.7222671508789" y="-46.53025817871094" width="164.7556610107422" height="86.09172821044922" pointer-events="none"  style="display: block;"></rect><text joint-selector="text" id="v-1900" font-size="24px" xml:space="preserve" fill="#cccccc" text-anchor="middle" pointer-events="none" font-family="Tahoma, Verdana, Helvetica, Arial" font-weight="normal"  style="display: block;"><tspan dy="-0.8999999999999999em" >Lee</tspan><tspan dy="1.2em" x="0" >documentación</tspan><tspan dy="1.2em" x="0" >estática</tspan></text></g><g id="v-1898"  label-idx="1" cursor="move" transform="matrix(1,0,0,1,869,1984.498046875)" style="cursor: default;"><rect joint-selector="rect" id="v-1903" fill="#111111" rx="3" ry="3" x="-43.23841857910156" y="-12.767328262329102" width="87.15374755859375" height="21.368793487548828"  pointer-events="none" style="display: block;"></rect><text joint-selector="text" id="v-1902" font-size="16.799999999999997px" xml:space="preserve" fill="#cccccc" text-anchor="middle" pointer-events="none" font-family="Tahoma, Verdana, Helvetica, Arial" font-weight="normal"  style="display: block;"><tspan dy="0.3em" >[HTTPS/S3]</tspan></text></g><g id="v-1899"  label-idx="2" cursor="move" transform="matrix(1,0,0,1,859,2023.0419921875)" style="cursor: default;"><rect joint-selector="rect" id="v-1905" fill="#ffffff" rx="3" ry="3" x="0" y="0" width="0" height="0"  display="none"></rect><text joint-selector="text" id="v-1904" fill="#000000" font-size="14" text-anchor="middle" text-vertical-anchor="middle" pointer-events="none"></text></g></g></g><!--z-index:39--><g   id="j_153"  style="opacity: 1;"><path fill="none" cursor="pointer" stroke="transparent" stroke-linecap="round" joint-selector="wrapper" id="v-1925" stroke-width="10" stroke-linejoin="round" d="M 1094 1497.03 L 1726 1682 C 1732.1666666666665 1684.1333333333332 1738.5 1686.1333333333332 1745 1688 L 2455 1878.56"></path><path fill="none" pointer-events="none" joint-selector="line" id="v-1924" stroke="#cccccc" stroke-width="2" stroke-linejoin="round" stroke-dasharray="8 8" d="M 1094 1497.03 L 1726 1682 C 1732.1666666666665 1684.1333333333332 1738.5 1686.1333333333332 1745 1688 L 2455 1878.56" marker-end="url(#v-2-527367903)"></path><g id="v-1914" ><g id="v-1915"  label-idx="0" cursor="move" transform="matrix(1,0,0,1,1735.1524658203125,1671.629638671875)" style="cursor: default;"><rect joint-selector="rect" id="v-1919" fill="#111111" rx="3" ry="3" x="-102.33649444580078" y="-32.1302604675293" width="203.3767852783203" height="60.85319137573242" pointer-events="none"  style="display: block;"></rect><text joint-selector="text" id="v-1918" font-size="24px" xml:space="preserve" fill="#cccccc" text-anchor="middle" pointer-events="none" font-family="Tahoma, Verdana, Helvetica, Arial" font-weight="normal"  style="display: block;"><tspan dy="-0.3em" >Crea repositorios y</tspan><tspan dy="1.2em" x="0" >andamiaje</tspan></text></g><g id="v-1916"  label-idx="1" cursor="move" transform="matrix(1,0,0,1,1735.1524658203125,1716.4296875)" style="cursor: default;"><rect joint-selector="rect" id="v-1921" fill="#111111" rx="3" ry="3" x="-74.70730590820312" y="-12.767328262329102" width="150.08255004882812" height="21.368793487548828"  pointer-events="none" style="display: block;"></rect><text joint-selector="text" id="v-1920" font-size="16.799999999999997px" xml:space="preserve" fill="#cccccc" text-anchor="middle" pointer-events="none" font-family="Tahoma, Verdana, Helvetica, Arial" font-weight="normal"  style="display: block;"><tspan dy="0.3em" >[GitHub API/HTTPS]</tspan></text></g><g id="v-1917"  label-idx="2" cursor="move" transform="matrix(1,0,0,1,1762.3756103515625,1735.1474609375)" style="cursor: default;"><rect joint-selector="rect" id="v-1923" fill="#ffffff" rx="3" ry="3" x="4.547473508864641e-13" y="2.2737367544323206e-13" width="0" height="0"  display="none"></rect><text joint-selector="text" id="v-1922" fill="#000000" font-size="14" text-anchor="middle" text-vertical-anchor="middle" pointer-events="none"></text></g></g></g><!--z-index:40--><g   id="j_154"  style="opacity: 1;"><path fill="none" cursor="pointer" stroke="transparent" stroke-linecap="round" joint-selector="wrapper" id="v-1940" stroke-width="10" stroke-linejoin="round" d="M 2455 1976.78 L 1088 2206 C 1081.1666666666665 2207.333333333333 1077.8333333333333 2211.333333333333 1078 2218 L 1077.42 2326"></path><path fill="none" pointer-events="none" joint-selector="line" id="v-1939" stroke="#cccccc" stroke-width="2" stroke-linejoin="round" stroke-dasharray="8 8" d="M 2455 1976.78 L 1088 2206 C 1081.1666666666665 2207.333333333333 1077.8333333333333 2211.333333333333 1078 2218 L 1077.42 2326" marker-end="url(#v-2-527367903)"></path><g id="v-1929" ><g id="v-1930"  label-idx="0" cursor="move" transform="matrix(1,0,0,1,1081.618408203125,2195.36328125)" style="cursor: default;"><rect joint-selector="rect" id="v-1934" fill="#111111" rx="3" ry="3" x="-94.990966796875" y="-60.93025588989258" width="190.30413818359375" height="118.45319366455078" pointer-events="none"  style="display: block;"></rect><text joint-selector="text" id="v-1933" font-size="24px" xml:space="preserve" fill="#cccccc" text-anchor="middle" pointer-events="none" font-family="Tahoma, Verdana, Helvetica, Arial" font-weight="normal"  style="display: block;"><tspan dy="-1.4999999999999998em" >CI/CD publica</tspan><tspan dy="1.2em" x="0" >docs estáticos</tspan><tspan dy="1.2em" x="0" >(GitHub Actions +</tspan><tspan dy="1.2em" x="0" >techdocs-cli)</tspan></text></g><g id="v-1931"  label-idx="1" cursor="move" transform="matrix(1,0,0,1,1081.618408203125,2268.963134765625)" style="cursor: default;"><rect joint-selector="rect" id="v-1936" fill="#111111" rx="3" ry="3" x="-43.23841857910156" y="-12.767328262329102" width="87.15374755859375" height="21.368793487548828"  pointer-events="none" style="display: block;"></rect><text joint-selector="text" id="v-1935" font-size="16.799999999999997px" xml:space="preserve" fill="#cccccc" text-anchor="middle" pointer-events="none" font-family="Tahoma, Verdana, Helvetica, Arial" font-weight="normal"  style="display: block;"><tspan dy="0.3em" >[HTTPS/S3]</tspan></text></g><g id="v-1932"  label-idx="2" cursor="move" transform="matrix(1,0,0,1,1699.7064208984375,2170.3515625)" style="cursor: default;"><rect joint-selector="rect" id="v-1938" fill="#ffffff" rx="3" ry="3" x="-4.547473508864641e-13" y="0" width="0" height="0"  display="none"></rect><text joint-selector="text" id="v-1937" fill="#000000" font-size="14" text-anchor="middle" text-vertical-anchor="middle" pointer-events="none"></text></g></g></g><!--z-index:41--><g   id="j_155"  style="opacity: 1;"><path fill="none" cursor="pointer" stroke="transparent" stroke-linecap="round" joint-selector="wrapper" id="v-1955" stroke-width="10" stroke-linejoin="round" d="M 1210.41 543 L 1269 625 C 1273.1666666666665 630.1999999999999 1275.1666666666665 636.1999999999999 1275 643 L 1275 2198 C 1275.1666666666665 2204.6666666666665 1273.1666666666665 2210.6666666666665 1269 2216 L 1187.96 2326"></path><path fill="none" pointer-events="none" joint-selector="line" id="v-1954" stroke="#cccccc" stroke-width="2" stroke-linejoin="round" stroke-dasharray="8 8" d="M 1210.41 543 L 1269 625 C 1273.1666666666665 630.1999999999999 1275.1666666666665 636.1999999999999 1275 643 L 1275 2198 C 1275.1666666666665 2204.6666666666665 1273.1666666666665 2210.6666666666665 1269 2216 L 1187.96 2326" marker-end="url(#v-2-527367903)"></path><g id="v-1944" ><g id="v-1945"  label-idx="0" cursor="move" transform="matrix(1,0,0,1,1275,1417.3555908203125)" style="cursor: default;"><rect joint-selector="rect" id="v-1949" fill="#111111" rx="3" ry="3" x="-83.7222671508789" y="-60.93025588989258" width="164.7556610107422" height="118.45319366455078" pointer-events="none"  style="display: block;"></rect><text joint-selector="text" id="v-1948" font-size="24px" xml:space="preserve" fill="#cccccc" text-anchor="middle" pointer-events="none" font-family="Tahoma, Verdana, Helvetica, Arial" font-weight="normal"  style="display: block;"><tspan dy="-1.4999999999999998em" >Lee</tspan><tspan dy="1.2em" x="0" >documentación</tspan><tspan dy="1.2em" x="0" >técnica</tspan><tspan dy="1.2em" x="0" >(TechDocs)</tspan></text></g><g id="v-1946"  label-idx="1" cursor="move" transform="matrix(1,0,0,1,1275,1490.95556640625)" style="cursor: default;"><rect joint-selector="rect" id="v-1951" fill="#111111" rx="3" ry="3" x="-30.773290634155273" y="-12.767328262329102" width="62.237831115722656" height="21.368793487548828"  pointer-events="none" style="display: block;"></rect><text joint-selector="text" id="v-1950" font-size="16.799999999999997px" xml:space="preserve" fill="#cccccc" text-anchor="middle" pointer-events="none" font-family="Tahoma, Verdana, Helvetica, Arial" font-weight="normal"  style="display: block;"><tspan dy="0.3em" >[HTTPS]</tspan></text></g><g id="v-1947"  label-idx="2" cursor="move" transform="matrix(1,0,0,1,1265,1507.016845703125)" style="cursor: default;"><rect joint-selector="rect" id="v-1953" fill="#ffffff" rx="3" ry="3" x="0" y="-2.2737367544323206e-13" width="0" height="0"  display="none"></rect><text joint-selector="text" id="v-1952" fill="#000000" font-size="14" text-anchor="middle" text-vertical-anchor="middle" pointer-events="none"></text></g></g></g><!--z-index:42--><g   id="j_156"  style="opacity: 1;"><path fill="none" cursor="pointer" stroke="transparent" stroke-linecap="round" joint-selector="wrapper" id="v-1973" stroke-width="10" stroke-linejoin="round" d="M 1094 1530.25 L 1436 1681 C 1442.1666666666665 1683.8 1448.5 1686.1333333333332 1455 1688 L 1955 1861.28"></path><path fill="none" pointer-events="none" joint-selector="line" id="v-1972" stroke="#cccccc" stroke-width="2" stroke-linejoin="round" stroke-dasharray="8 8" d="M 1094 1530.25 L 1436 1681 C 1442.1666666666665 1683.8 1448.5 1686.1333333333332 1455 1688 L 1955 1861.28" marker-end="url(#v-2-527367903)"></path><g id="v-1962" ><g id="v-1963"  label-idx="0" cursor="move" transform="matrix(1,0,0,1,1445.263671875,1671.408935546875)" style="cursor: default;"><rect joint-selector="rect" id="v-1967" fill="#111111" rx="3" ry="3" x="-71.17366790771484" y="-46.53025817871094" width="140.4124755859375" height="89.65319061279297" pointer-events="none"  style="display: block;"></rect><text joint-selector="text" id="v-1966" font-size="24px" xml:space="preserve" fill="#cccccc" text-anchor="middle" pointer-events="none" font-family="Tahoma, Verdana, Helvetica, Arial" font-weight="normal"  style="display: block;"><tspan dy="-0.8999999999999999em" >Descubre</tspan><tspan dy="1.2em" x="0" >entidades de</tspan><tspan dy="1.2em" x="0" >catálogo</tspan></text></g><g id="v-1964"  label-idx="1" cursor="move" transform="matrix(1,0,0,1,1445.263671875,1730.60888671875)" style="cursor: default;"><rect joint-selector="rect" id="v-1969" fill="#111111" rx="3" ry="3" x="-83.61096954345703" y="-12.767328262329102" width="167.91363525390625" height="21.368793487548828"  pointer-events="none" style="display: block;"></rect><text joint-selector="text" id="v-1968" font-size="16.799999999999997px" xml:space="preserve" fill="#cccccc" text-anchor="middle" pointer-events="none" font-family="Tahoma, Verdana, Helvetica, Arial" font-weight="normal"  style="display: block;"><tspan dy="0.3em" >[Bitbucket API/HTTPS]</tspan></text></g><g id="v-1965"  label-idx="2" cursor="move" transform="matrix(1,0,0,1,1508.853515625,1764.3291015625)" style="cursor: default;"><rect joint-selector="rect" id="v-1971" fill="#ffffff" rx="3" ry="3" x="4.547473508864641e-13" y="2.2737367544323206e-13" width="0" height="0"  display="none"></rect><text joint-selector="text" id="v-1970" fill="#000000" font-size="14" text-anchor="middle" text-vertical-anchor="middle" pointer-events="none"></text></g></g></g><!--z-index:43--><!--z-index:44--><!--z-index:45--><!--z-index:46--><!--z-index:47--><!--z-index:48--><!--z-index:49--><!--z-index:50--><!--z-index:51--><!--z-index:52--><!--z-index:53--><!--z-index:54--><!--z-index:55--><!--z-index:56--><!--z-index:57--><!--z-index:58--><!--z-index:59--><!--z-index:60--><!--z-index:61--><!--z-index:62--><!--z-index:63--><!--z-index:64--><!--z-index:65--><!--z-index:66--><!--z-index:67--></g><g  style="user-select: none;"></g><g ></g><g  display="none"></g></g></svg>