<svg xmlns="http://www.w3.org/2000/svg" xmlns:xlink="http://www.w3.org/1999/xlink" version="1.1" width="2380" height="2224" style="width: 2380px; height: 2224px; background: #ffffff" viewBox="0 0 2380 2224"><style id="v-3" type="text/css">        .joint-element .scalable * {            vector-effect: non-scaling-stroke;        }    </style><defs joint-selector="defs"><marker id="v-21252848929" orient="auto" overflow="visible" markerUnits="userSpaceOnUse"><path id="v-122" stroke="#444444" fill="#444444" transform="rotate(180)" d="M 20 -10 0 0 20 10 Z"></path></marker></defs><g joint-selector="layers"  transform="matrix(1,0,0,1,0,0)"><g  style="pointer-events: none;"></g><g ></g><g  style="user-select: none;"><!--z-index:0--><!--z-index:1--><!--z-index:2--><!--z-index:3--><!--z-index:4--><!--z-index:5--><!--z-index:6--><!--z-index:7--><!--z-index:8--><!--z-index:9--><!--z-index:10--><!--z-index:11--><!--z-index:12--><!--z-index:13--><!--z-index:14--><!--z-index:15--><!--z-index:16--><!--z-index:17--><!--z-index:18--><!--z-index:19--><!--z-index:20--><!--z-index:21--><g   id="j_3"  transform="translate(20,2180)"><g id="v-8"><text  id="v-9" font-size="24px" xml:space="preserve" y="0.8em" font-weight="normal" text-anchor="start" fill="#444444" pointer-events="none" display="block" font-family="Tahoma, Verdana, Helvetica, Arial"><tspan dy="0"  display="none">Wednesday, March 11, 2026 at 8:37 PM Coordinated Universal Time</tspan></text></g></g><!--z-index:22--><g   id="j_2"  transform="translate(20,2146)"><g id="v-6"><text  id="v-7" font-size="24px" xml:space="preserve" y="0.8em" font-weight="normal" text-anchor="start" fill="#444444" pointer-events="none" display="block" font-family="Tahoma, Verdana, Helvetica, Arial"><tspan dy="0"  display="none">SYSTEM LANDSCAPE DIAGRAM - LEVEL 1</tspan></text></g></g><!--z-index:23--><g   id="j_1"  transform="translate(20,2100)"><g id="v-4"><text  id="v-5" font-size="36px" xml:space="preserve" y="0.8em" font-weight="normal" text-anchor="start" fill="#444444" pointer-events="none" display="block" font-family="Tahoma, Verdana, Helvetica, Arial"><tspan dy="0"  display="none">System Landscape View</tspan></text></g></g><!--z-index:24--><g   id="j_4"  transform="translate(200,160)" style=""><g  id="v-13" style="opacity: 1;"><rect  x="0" y="160" width="400" height="240" rx="70" id="v-15" stroke-width="2" pointer-events="visiblePainted" fill="#08427b" stroke="#073b6f" stroke-dasharray="" style="fill: rgb(8, 66, 123); stroke: rgb(7, 59, 111);"></rect><circle  cx="200" cy="88.88888888888889" r="88.88888888888889" id="v-14" stroke-width="2" pointer-events="visiblePainted" fill="#08427b" stroke="#073b6f" stroke-dasharray="" style="fill: rgb(8, 66, 123); stroke: rgb(7, 59, 111);"></circle><line  x1="80" y1="266.6666666666667" x2="80" y2="400" id="v-21" stroke="#073b6f" stroke-width="1" stroke-dasharray="" style="stroke: rgb(7, 59, 111);"></line><line  x1="320" y1="266.6666666666667" x2="320" y2="400" id="v-22" stroke="#073b6f" stroke-width="1" stroke-dasharray="" style="stroke: rgb(7, 59, 111);"></line><text  id="v-16" font-size="33.599999999999994px" xml:space="preserve" y="202.5" font-weight="bold" text-anchor="middle" pointer-events="visible" font-family="Tahoma, Verdana, Helvetica, Arial" fill="#ffffff" dominant-baseline="hanging" transform="matrix(1,0,0,1,200,0)" style="fill: rgb(255, 255, 255);"><tspan dy="0" >Desarrollador</tspan></text><text  id="v-17" font-size="16.799999999999997px" xml:space="preserve" y="244.1" text-anchor="middle" font-family="Tahoma, Verdana, Helvetica, Arial" fill="#ffffff" dominant-baseline="hanging" transform="matrix(1,0,0,1,200,0)" style="display: block; fill: rgb(255, 255, 255);"><tspan dy="0" >[Person]</tspan></text><text  id="v-18" font-size="24px" xml:space="preserve" y="275.9" text-anchor="middle" font-family="Tahoma, Verdana, Helvetica, Arial" fill="#ffffff" dominant-baseline="hanging" transform="matrix(1,0,0,1,200,0)" style="display: block; fill: rgb(255, 255, 255);"><tspan dy="0" >Crea y mantiene servicios</tspan><tspan dy="1.2em" x="0" >digitales siguiendo los</tspan><tspan dy="1.2em" x="0" >estándares de la organización.</tspan></text><g  id="v-19" font-weight="normal" text-anchor="middle" color="#ffffff" transform="matrix(1,0,0,1,197.5,368)" display="none" style="fill: rgb(255, 255, 255);"><g ></g><g ></g><g ></g><g ></g></g><image  id="v-20"></image></g></g><!--z-index:25--><g   id="j_5"  transform="translate(200,1564)" style=""><g  id="v-29" style="opacity: 1;"><rect  x="0" y="160" width="400" height="240" rx="70" id="v-31" stroke-width="2" pointer-events="visiblePainted" fill="#08427b" stroke="#073b6f" stroke-dasharray="" style="fill: rgb(8, 66, 123); stroke: rgb(7, 59, 111);"></rect><circle  cx="200" cy="88.88888888888889" r="88.88888888888889" id="v-30" stroke-width="2" pointer-events="visiblePainted" fill="#08427b" stroke="#073b6f" stroke-dasharray="" style="fill: rgb(8, 66, 123); stroke: rgb(7, 59, 111);"></circle><line  x1="80" y1="266.6666666666667" x2="80" y2="400" id="v-37" stroke="#073b6f" stroke-width="1" stroke-dasharray="" style="stroke: rgb(7, 59, 111);"></line><line  x1="320" y1="266.6666666666667" x2="320" y2="400" id="v-38" stroke="#073b6f" stroke-width="1" stroke-dasharray="" style="stroke: rgb(7, 59, 111);"></line><text  id="v-32" font-size="33.599999999999994px" xml:space="preserve" y="153.54000000000002" font-weight="bold" text-anchor="middle" pointer-events="visible" font-family="Tahoma, Verdana, Helvetica, Arial" fill="#ffffff" dominant-baseline="hanging" transform="matrix(1,0,0,1,200,0)" style="fill: rgb(255, 255, 255);"><tspan dy="0" >Responsable de</tspan><tspan dy="1.2em" x="0" >Gobernanza</tspan></text><text  id="v-33" font-size="16.799999999999997px" xml:space="preserve" y="235.46" text-anchor="middle" font-family="Tahoma, Verdana, Helvetica, Arial" fill="#ffffff" dominant-baseline="hanging" transform="matrix(1,0,0,1,200,0)" style="display: block; fill: rgb(255, 255, 255);"><tspan dy="0" >[Person]</tspan></text><text  id="v-34" font-size="24px" xml:space="preserve" y="267.26" text-anchor="middle" font-family="Tahoma, Verdana, Helvetica, Arial" fill="#ffffff" dominant-baseline="hanging" transform="matrix(1,0,0,1,200,0)" style="display: block; fill: rgb(255, 255, 255);"><tspan dy="0" >Define estándares</tspan><tspan dy="1.2em" x="0" >tecnológicos, gestiona el</tspan><tspan dy="1.2em" x="0" >catálogo de servicios y</tspan><tspan dy="1.2em" x="0" >supervisa el cumplimiento</tspan><tspan dy="1.2em" x="0" >normativo</tspan></text><g  id="v-35" font-weight="normal" text-anchor="middle" color="#ffffff" transform="matrix(1,0,0,1,197.5,368)" display="none" style="fill: rgb(255, 255, 255);"><g ></g><g ></g><g ></g><g ></g></g><image  id="v-36"></image></g></g><!--z-index:26--><g   id="j_6"  transform="translate(940,268)" style=""><g  id="v-42" style="opacity: 1;"><rect  id="v-43" rx="20" ry="20" stroke-width="2" pointer-events="visiblePainted" fill="#1168bd" stroke="#0f5eaa" stroke-dasharray="" width="450" height="300" style="fill: rgb(17, 104, 189); stroke: rgb(15, 94, 170);"></rect><text  id="v-44" font-size="33.599999999999994px" xml:space="preserve" y="72.5" font-weight="bold" text-anchor="middle" pointer-events="visible" font-family="Tahoma, Verdana, Helvetica, Arial" fill="#ffffff" dominant-baseline="hanging" transform="matrix(1,0,0,1,225,0)" style="fill: rgb(255, 255, 255);"><tspan dy="0" >BACKSTAGE</tspan></text><text  id="v-45" font-size="16.799999999999997px" xml:space="preserve" y="114.1" text-anchor="middle" font-family="Tahoma, Verdana, Helvetica, Arial" fill="#ffffff" dominant-baseline="hanging" transform="matrix(1,0,0,1,225,0)" style="display: block; fill: rgb(255, 255, 255);"><tspan dy="0" >[Software System]</tspan></text><text  id="v-46" font-size="24px" xml:space="preserve" y="145.89999999999998" text-anchor="middle" font-family="Tahoma, Verdana, Helvetica, Arial" fill="#ffffff" dominant-baseline="hanging" transform="matrix(1,0,0,1,225,0)" style="display: block; fill: rgb(255, 255, 255);"><tspan dy="0" >Portal de autoservicio para</tspan><tspan dy="1.2em" x="0" >desarrolladores que centraliza el</tspan><tspan dy="1.2em" x="0" >catálogo, plantillas y documentación</tspan></text><g  id="v-47" color="#ffffff" transform="matrix(1,0,0,1,210,268)" display="none" style="fill: rgb(255, 255, 255);"><g  transform="translate(5 0)"><svg xmlns="http://www.w3.org/2000/svg" width="20" height="20" fill="currentColor" viewBox="0 0 16 16"><path fill-rule="evenodd" d="M6.5 12a5.5 5.5 0 1 0 0-11 5.5 5.5 0 0 0 0 11zM13 6.5a6.5 6.5 0 1 1-13 0 6.5 6.5 0 0 1 13 0z"></path><path d="M10.344 11.742c.03.04.062.078.098.115l3.85 3.85a1 1 0 0 0 1.415-1.414l-3.85-3.85a1.007 1.007 0 0 0-.115-.1 6.538 6.538 0 0 1-1.398 1.4z"></path><path fill-rule="evenodd" d="M6.5 3a.5.5 0 0 1 .5.5V6h2.5a.5.5 0 0 1 0 1H7v2.5a.5.5 0 0 1-1 0V7H3.5a.5.5 0 0 1 0-1H6V3.5a.5.5 0 0 1 .5-.5z"></path></svg></g><g ></g><g ></g><g ></g></g><image  id="v-48"></image></g></g><!--z-index:27--><g   id="j_7"  transform="translate(1730,944)" style=""><g  id="v-52" style="opacity: 1;"><rect  id="v-53" rx="20" ry="20" stroke-width="2" pointer-events="visiblePainted" fill="#1168bd" stroke="#0f5eaa" stroke-dasharray="" width="450" height="300" style="fill: rgb(17, 104, 189); stroke: rgb(15, 94, 170);"></rect><text  id="v-54" font-size="33.599999999999994px" xml:space="preserve" y="86.9" font-weight="bold" text-anchor="middle" pointer-events="visible" font-family="Tahoma, Verdana, Helvetica, Arial" fill="#ffffff" dominant-baseline="hanging" transform="matrix(1,0,0,1,225,0)" style="fill: rgb(255, 255, 255);"><tspan dy="0" >GITHUB</tspan></text><text  id="v-55" font-size="16.799999999999997px" xml:space="preserve" y="128.5" text-anchor="middle" font-family="Tahoma, Verdana, Helvetica, Arial" fill="#ffffff" dominant-baseline="hanging" transform="matrix(1,0,0,1,225,0)" style="display: block; fill: rgb(255, 255, 255);"><tspan dy="0" >[Software System]</tspan></text><text  id="v-56" font-size="24px" xml:space="preserve" y="160.3" text-anchor="middle" font-family="Tahoma, Verdana, Helvetica, Arial" fill="#ffffff" dominant-baseline="hanging" transform="matrix(1,0,0,1,225,0)" style="display: block; fill: rgb(255, 255, 255);"><tspan dy="0" >Plataforma de control de versiones y</tspan><tspan dy="1.2em" x="0" >ejecución de pipelines (CI/CD).</tspan></text><g  id="v-57" color="#ffffff" transform="matrix(1,0,0,1,222.5,268)" display="none" style="fill: rgb(255, 255, 255);"><g ></g><g ></g><g ></g><g ></g></g><image  id="v-58"></image></g></g><!--z-index:28--><g   id="j_8"  transform="translate(1730,142)" style=""><g  id="v-62" style="opacity: 1;"><rect  id="v-63" rx="20" ry="20" stroke-width="2" pointer-events="visiblePainted" fill="#999999" stroke="#8a8a8a" stroke-dasharray="" width="450" height="300" style="fill: rgb(153, 153, 153); stroke: rgb(138, 138, 138);"></rect><text  id="v-64" font-size="33.599999999999994px" xml:space="preserve" y="72.5" font-weight="bold" text-anchor="middle" pointer-events="visible" font-family="Tahoma, Verdana, Helvetica, Arial" fill="#ffffff" dominant-baseline="hanging" transform="matrix(1,0,0,1,225,0)" style="fill: rgb(255, 255, 255);"><tspan dy="0" >BITBUCKET</tspan></text><text  id="v-65" font-size="16.799999999999997px" xml:space="preserve" y="114.1" text-anchor="middle" font-family="Tahoma, Verdana, Helvetica, Arial" fill="#ffffff" dominant-baseline="hanging" transform="matrix(1,0,0,1,225,0)" style="display: block; fill: rgb(255, 255, 255);"><tspan dy="0" >[Software System]</tspan></text><text  id="v-66" font-size="24px" xml:space="preserve" y="145.89999999999998" text-anchor="middle" font-family="Tahoma, Verdana, Helvetica, Arial" fill="#ffffff" dominant-baseline="hanging" transform="matrix(1,0,0,1,225,0)" style="display: block; fill: rgb(255, 255, 255);"><tspan dy="0" >Forja de código del Gobierno de</tspan><tspan dy="1.2em" x="0" >Aragón donde residen los starters</tspan><tspan dy="1.2em" x="0" >oficiales.</tspan></text><g  id="v-67" color="#ffffff" transform="matrix(1,0,0,1,222.5,268)" display="none" style="fill: rgb(255, 255, 255);"><g ></g><g ></g><g ></g><g ></g></g><image  id="v-68"></image></g></g><!--z-index:29--><g   id="j_9"  transform="translate(1730,492)" style=""><g  id="v-72" style="opacity: 1;"><rect  id="v-73" rx="20" ry="20" stroke-width="2" pointer-events="visiblePainted" fill="#999999" stroke="#8a8a8a" stroke-dasharray="" width="450" height="300" style="fill: rgb(153, 153, 153); stroke: rgb(138, 138, 138);"></rect><text  id="v-74" font-size="33.599999999999994px" xml:space="preserve" y="86.9" font-weight="bold" text-anchor="middle" pointer-events="visible" font-family="Tahoma, Verdana, Helvetica, Arial" fill="#ffffff" dominant-baseline="hanging" transform="matrix(1,0,0,1,225,0)" style="fill: rgb(255, 255, 255);"><tspan dy="0" >Portal CTT</tspan></text><text  id="v-75" font-size="16.799999999999997px" xml:space="preserve" y="128.5" text-anchor="middle" font-family="Tahoma, Verdana, Helvetica, Arial" fill="#ffffff" dominant-baseline="hanging" transform="matrix(1,0,0,1,225,0)" style="display: block; fill: rgb(255, 255, 255);"><tspan dy="0" >[Software System]</tspan></text><text  id="v-76" font-size="24px" xml:space="preserve" y="160.3" text-anchor="middle" font-family="Tahoma, Verdana, Helvetica, Arial" fill="#ffffff" dominant-baseline="hanging" transform="matrix(1,0,0,1,225,0)" style="display: block; fill: rgb(255, 255, 255);"><tspan dy="0" >Portal de activos del Centro de</tspan><tspan dy="1.2em" x="0" >Transferencia de Tecnología (CTT).</tspan></text><g  id="v-77" color="#ffffff" transform="matrix(1,0,0,1,222.5,268)" display="none" style="fill: rgb(255, 255, 255);"><g ></g><g ></g><g ></g><g ></g></g><image  id="v-78"></image></g></g><!--z-index:30--><g   id="j_10"  transform="translate(940,769)" style=""><g  id="v-82" style="opacity: 1;"><rect  id="v-83" rx="20" ry="20" stroke-width="2" pointer-events="visiblePainted" fill="#1168bd" stroke="#0f5eaa" stroke-dasharray="" width="450" height="300" style="fill: rgb(17, 104, 189); stroke: rgb(15, 94, 170);"></rect><text  id="v-84" font-size="33.599999999999994px" xml:space="preserve" y="58.10000000000001" font-weight="bold" text-anchor="middle" pointer-events="visible" font-family="Tahoma, Verdana, Helvetica, Arial" fill="#ffffff" dominant-baseline="hanging" transform="matrix(1,0,0,1,225,0)" style="fill: rgb(255, 255, 255);"><tspan dy="0" >CTT Scraper</tspan></text><text  id="v-85" font-size="16.799999999999997px" xml:space="preserve" y="99.7" text-anchor="middle" font-family="Tahoma, Verdana, Helvetica, Arial" fill="#ffffff" dominant-baseline="hanging" transform="matrix(1,0,0,1,225,0)" style="display: block; fill: rgb(255, 255, 255);"><tspan dy="0" >[Software System]</tspan></text><text  id="v-86" font-size="24px" xml:space="preserve" y="131.5" text-anchor="middle" font-family="Tahoma, Verdana, Helvetica, Arial" fill="#ffffff" dominant-baseline="hanging" transform="matrix(1,0,0,1,225,0)" style="display: block; fill: rgb(255, 255, 255);"><tspan dy="0" >Proceso externo que scrapea el</tspan><tspan dy="1.2em" x="0" >portal CTT, genera documentación</tspan><tspan dy="1.2em" x="0" >Markdown y la commitea en un</tspan><tspan dy="1.2em" x="0" >repositorio.</tspan></text><g  id="v-87" color="#ffffff" transform="matrix(1,0,0,1,222.5,268)" display="none" style="fill: rgb(255, 255, 255);"><g ></g><g ></g><g ></g><g ></g></g><image  id="v-88"></image></g></g><!--z-index:31--><g   id="j_11"  transform="translate(1730,1402)" style=""><g  id="v-92" style="opacity: 1;"><rect  id="v-93" rx="20" ry="20" stroke-width="2" pointer-events="visiblePainted" fill="#999999" stroke="#8a8a8a" stroke-dasharray="" width="450" height="300" style="fill: rgb(153, 153, 153); stroke: rgb(138, 138, 138);"></rect><text  id="v-94" font-size="33.599999999999994px" xml:space="preserve" y="72.5" font-weight="bold" text-anchor="middle" pointer-events="visible" font-family="Tahoma, Verdana, Helvetica, Arial" fill="#ffffff" dominant-baseline="hanging" transform="matrix(1,0,0,1,225,0)" style="fill: rgb(255, 255, 255);"><tspan dy="0" >Forja DESY</tspan></text><text  id="v-95" font-size="16.799999999999997px" xml:space="preserve" y="114.1" text-anchor="middle" font-family="Tahoma, Verdana, Helvetica, Arial" fill="#ffffff" dominant-baseline="hanging" transform="matrix(1,0,0,1,225,0)" style="display: block; fill: rgb(255, 255, 255);"><tspan dy="0" >[Software System]</tspan></text><text  id="v-96" font-size="24px" xml:space="preserve" y="145.89999999999998" text-anchor="middle" font-family="Tahoma, Verdana, Helvetica, Arial" fill="#ffffff" dominant-baseline="hanging" transform="matrix(1,0,0,1,225,0)" style="display: block; fill: rgb(255, 255, 255);"><tspan dy="0" >Portal de la forja de DESY con</tspan><tspan dy="1.2em" x="0" >documentación de estándares y</tspan><tspan dy="1.2em" x="0" >frameworks.</tspan></text><g  id="v-97" color="#ffffff" transform="matrix(1,0,0,1,222.5,268)" display="none" style="fill: rgb(255, 255, 255);"><g ></g><g ></g><g ></g><g ></g></g><image  id="v-98"></image></g></g><!--z-index:32--><g   id="j_12"  transform="translate(940,1379)" style=""><g  id="v-102" style="opacity: 1;"><rect  id="v-103" rx="20" ry="20" stroke-width="2" pointer-events="visiblePainted" fill="#1168bd" stroke="#0f5eaa" stroke-dasharray="" width="450" height="300" style="fill: rgb(17, 104, 189); stroke: rgb(15, 94, 170);"></rect><text  id="v-104" font-size="33.599999999999994px" xml:space="preserve" y="58.10000000000001" font-weight="bold" text-anchor="middle" pointer-events="visible" font-family="Tahoma, Verdana, Helvetica, Arial" fill="#ffffff" dominant-baseline="hanging" transform="matrix(1,0,0,1,225,0)" style="fill: rgb(255, 255, 255);"><tspan dy="0" >DESY Scraper</tspan></text><text  id="v-105" font-size="16.799999999999997px" xml:space="preserve" y="99.7" text-anchor="middle" font-family="Tahoma, Verdana, Helvetica, Arial" fill="#ffffff" dominant-baseline="hanging" transform="matrix(1,0,0,1,225,0)" style="display: block; fill: rgb(255, 255, 255);"><tspan dy="0" >[Software System]</tspan></text><text  id="v-106" font-size="24px" xml:space="preserve" y="131.5" text-anchor="middle" font-family="Tahoma, Verdana, Helvetica, Arial" fill="#ffffff" dominant-baseline="hanging" transform="matrix(1,0,0,1,225,0)" style="display: block; fill: rgb(255, 255, 255);"><tspan dy="0" >Proceso externo que scrapea la</tspan><tspan dy="1.2em" x="0" >forja de DESY, genera</tspan><tspan dy="1.2em" x="0" >documentación Markdown y la</tspan><tspan dy="1.2em" x="0" >commitea en un repositorio.</tspan></text><g  id="v-107" color="#ffffff" transform="matrix(1,0,0,1,222.5,268)" display="none" style="fill: rgb(255, 255, 255);"><g ></g><g ></g><g ></g><g ></g></g><image  id="v-108"></image></g></g><!--z-index:33--><g   id="j_13"  style="opacity: 1;"><path fill="none" cursor="pointer" stroke="transparent" stroke-linecap="round" joint-selector="wrapper" id="v-120" stroke-width="10" stroke-linejoin="round" d="M 600 360 L 760 360 C 766.6666666666665 360 773.3333333333333 360.3333333333333 780 361 L 940 384.96"></path><path fill="none" pointer-events="none" joint-selector="line" id="v-119" stroke="#444444" stroke-width="2" stroke-linejoin="round" stroke-dasharray="8 8" d="M 600 360 L 760 360 C 766.6666666666665 360 773.3333333333333 360.3333333333333 780 361 L 940 384.96" marker-end="url(#v-21252848929)"></path><g id="v-112" ><g id="v-113"  label-idx="0" cursor="move" transform="matrix(1,0,0,1,769.9609375,360.248046875)" style="cursor: default;"><rect joint-selector="rect" id="v-116" fill="#ffffff" rx="3" ry="3" x="-91.93022155761719" y="-41.680320739746094" width="183.90585327148438" height="81.69639587402344" pointer-events="none"  style="display: block;"></rect><text joint-selector="text" id="v-115" font-size="24px" xml:space="preserve" fill="#444444" text-anchor="middle" pointer-events="none" font-family="Tahoma, Verdana, Helvetica, Arial" font-weight="normal"  style="display: block;"><tspan dy="-0.8999999999999999em" >Utiliza plantillas y</tspan><tspan dy="1.2em" x="0" >consulta el</tspan><tspan dy="1.2em" x="0" >catálogo</tspan></text></g><g id="v-114"  label-idx="1" cursor="move" transform="matrix(1,0,0,1,759.9609375,401.0480651855469)" style="cursor: default;"><rect joint-selector="rect" id="v-118" fill="#ffffff" rx="3" ry="3" x="0" y="1.1368683772161603e-13" width="0" height="0"  display="none"></rect><text joint-selector="text" id="v-117" fill="#000000" font-size="14" text-anchor="middle" text-vertical-anchor="middle" pointer-events="none"></text></g></g></g><!--z-index:34--><g   id="j_14"  style="opacity: 1;"><path fill="none" cursor="pointer" stroke="transparent" stroke-linecap="round" joint-selector="wrapper" id="v-134" stroke-width="10" stroke-linejoin="round" d="M 515.74 1564 L 765 1131 C 768.3333333333333 1124.8999999999999 771.6666666666665 1118.8999999999999 775 1113 L 1080.82 568"></path><path fill="none" pointer-events="none" joint-selector="line" id="v-133" stroke="#444444" stroke-width="2" stroke-linejoin="round" stroke-dasharray="8 8" d="M 515.74 1564 L 765 1131 C 768.3333333333333 1124.8999999999999 771.6666666666665 1118.8999999999999 775 1113 L 1080.82 568" marker-end="url(#v-21252848929)"></path><g id="v-126" ><g id="v-127"  label-idx="0" cursor="move" transform="matrix(1,0,0,1,770.3515625,1121.2926025390625)" style="cursor: default;"><rect joint-selector="rect" id="v-130" fill="#ffffff" rx="3" ry="3" x="-93.9696273803711" y="-27.28032112121582" width="187.9392547607422" height="52.89638900756836" pointer-events="none"  style="display: block;"></rect><text joint-selector="text" id="v-129" font-size="24px" xml:space="preserve" fill="#444444" text-anchor="middle" pointer-events="none" font-family="Tahoma, Verdana, Helvetica, Arial" font-weight="normal"  style="display: block;"><tspan dy="-0.3em" >Gestiona el portal</tspan><tspan dy="1.2em" x="0" >y audita activos</tspan></text></g><g id="v-128"  label-idx="1" cursor="move" transform="matrix(1,0,0,1,760.3515625,1147.6925048828125)" style="cursor: default;"><rect joint-selector="rect" id="v-132" fill="#ffffff" rx="3" ry="3" x="0" y="-2.2737367544323206e-13" width="0" height="0"  display="none"></rect><text joint-selector="text" id="v-131" fill="#000000" font-size="14" text-anchor="middle" text-vertical-anchor="middle" pointer-events="none"></text></g></g></g><!--z-index:35--><g   id="j_15"  style="opacity: 1;"><path fill="none" cursor="pointer" stroke="transparent" stroke-linecap="round" joint-selector="wrapper" id="v-149" stroke-width="10" stroke-linejoin="round" d="M 600 1785.53 L 760 1802 C 766.6666666666665 1802.5 773.3333333333333 1802.8333333333333 780 1803 L 1550 1803 C 1556.6666666666665 1802.8333333333333 1561.6666666666665 1799.8333333333333 1565 1794 L 1871.4 1244"></path><path fill="none" pointer-events="none" joint-selector="line" id="v-148" stroke="#444444" stroke-width="2" stroke-linejoin="round" stroke-dasharray="8 8" d="M 600 1785.53 L 760 1802 C 766.6666666666665 1802.5 773.3333333333333 1802.8333333333333 780 1803 L 1550 1803 C 1556.6666666666665 1802.8333333333333 1561.6666666666665 1799.8333333333333 1565 1794 L 1871.4 1244" marker-end="url(#v-21252848929)"></path><g id="v-138" ><g id="v-139"  label-idx="0" cursor="move" transform="matrix(1,0,0,1,1164.681640625,1789.5999755859375)" style="cursor: default;"><rect joint-selector="rect" id="v-143" fill="#ffffff" rx="3" ry="3" x="-92.6204833984375" y="-41.680320739746094" width="187.93360900878906" height="81.69639587402344" pointer-events="none"  style="display: block;"></rect><text joint-selector="text" id="v-142" font-size="24px" xml:space="preserve" fill="#444444" text-anchor="middle" pointer-events="none" font-family="Tahoma, Verdana, Helvetica, Arial" font-weight="normal"  style="display: block;"><tspan dy="-0.8999999999999999em" >Define y versiona</tspan><tspan dy="1.2em" x="0" >plantillas de</tspan><tspan dy="1.2em" x="0" >software (YAML)</tspan></text></g><g id="v-140"  label-idx="1" cursor="move" transform="matrix(1,0,0,1,1164.681640625,1848.800048828125)" style="cursor: default;"><rect joint-selector="rect" id="v-145" fill="#ffffff" rx="3" ry="3" x="-32.12851333618164" y="-11.024256706237793" width="64.25702667236328" height="20.080320358276367"  pointer-events="none" style="display: block;"></rect><text joint-selector="text" id="v-144" font-size="16.799999999999997px" xml:space="preserve" fill="#444444" text-anchor="middle" pointer-events="none" font-family="Tahoma, Verdana, Helvetica, Arial" font-weight="normal"  style="display: block;"><tspan dy="0.3em" >[HTTPS]</tspan></text></g><g id="v-141"  label-idx="2" cursor="move" transform="matrix(1,0,0,1,1388.5460205078125,1857.199951171875)" style="cursor: default;"><rect joint-selector="rect" id="v-147" fill="#ffffff" rx="3" ry="3" x="0" y="0" width="0" height="0"  display="none"></rect><text joint-selector="text" id="v-146" fill="#000000" font-size="14" text-anchor="middle" text-vertical-anchor="middle" pointer-events="none"></text></g></g></g><!--z-index:36--><g   id="j_16"  style="opacity: 1;"><path fill="none" cursor="pointer" stroke="transparent" stroke-linecap="round" joint-selector="wrapper" id="v-164" stroke-width="10" stroke-linejoin="round" d="M 1390 326.86 L 1551 262 C 1557 259.3333333333335 1561.3333333333333 261.0000000000001 1564 267 L 1884.13 944"></path><path fill="none" pointer-events="none" joint-selector="line" id="v-163" stroke="#444444" stroke-width="2" stroke-linejoin="round" stroke-dasharray="8 8" d="M 1390 326.86 L 1551 262 C 1557 259.3333333333335 1561.3333333333333 261.0000000000001 1564 267 L 1884.13 944" marker-end="url(#v-21252848929)"></path><g id="v-153" ><g id="v-154"  label-idx="0" cursor="move" transform="matrix(1,0,0,1,1559.711181640625,248.30628967285156)" style="cursor: default;"><rect joint-selector="rect" id="v-158" fill="#ffffff" rx="3" ry="3" x="-93.93824768066406" y="-27.28032112121582" width="187.8970947265625" height="52.89638900756836" pointer-events="none"  style="display: block;"></rect><text joint-selector="text" id="v-157" font-size="24px" xml:space="preserve" fill="#444444" text-anchor="middle" pointer-events="none" font-family="Tahoma, Verdana, Helvetica, Arial" font-weight="normal"  style="display: block;"><tspan dy="-0.3em" >Crea repositorios</tspan><tspan dy="1.2em" x="0" >y lanza workflows</tspan></text></g><g id="v-155"  label-idx="1" cursor="move" transform="matrix(1,0,0,1,1559.711181640625,293.1062927246094)" style="cursor: default;"><rect joint-selector="rect" id="v-160" fill="#ffffff" rx="3" ry="3" x="-47.973140716552734" y="-11.024256706237793" width="95.94628143310547" height="20.080320358276367"  pointer-events="none" style="display: block;"></rect><text joint-selector="text" id="v-159" font-size="16.799999999999997px" xml:space="preserve" fill="#444444" text-anchor="middle" pointer-events="none" font-family="Tahoma, Verdana, Helvetica, Arial" font-weight="normal"  style="display: block;"><tspan dy="0.3em" >[API/HTTPS]</tspan></text></g><g id="v-156"  label-idx="2" cursor="move" transform="matrix(1,0,0,1,1673.5484619140625,559.6170654296875)" style="cursor: default;"><rect joint-selector="rect" id="v-162" fill="#ffffff" rx="3" ry="3" x="0" y="1.1368683772161603e-13" width="0" height="0"  display="none"></rect><text joint-selector="text" id="v-161" fill="#000000" font-size="14" text-anchor="middle" text-vertical-anchor="middle" pointer-events="none"></text></g></g></g><!--z-index:37--><g   id="j_17"  style="opacity: 1;"><path fill="none" cursor="pointer" stroke="transparent" stroke-linecap="round" joint-selector="wrapper" id="v-179" stroke-width="10" stroke-linejoin="round" d="M 1390 823.87 L 1551 756 C 1557 753.3333333333334 1563.3333333333333 751 1570 749 L 1730 704.66"></path><path fill="none" pointer-events="none" joint-selector="line" id="v-178" stroke="#444444" stroke-width="2" stroke-linejoin="round" stroke-dasharray="8 8" d="M 1390 823.87 L 1551 756 C 1557 753.3333333333334 1563.3333333333333 751 1570 749 L 1730 704.66" marker-end="url(#v-21252848929)"></path><g id="v-168" ><g id="v-169"  label-idx="0" cursor="move" transform="matrix(1,0,0,1,1560.212890625,738.8636474609375)" style="cursor: default;"><rect joint-selector="rect" id="v-173" fill="#ffffff" rx="3" ry="3" x="-88.60441589355469" y="-27.28032112121582" width="177.20883178710938" height="52.89638900756836" pointer-events="none"  style="display: block;"></rect><text joint-selector="text" id="v-172" font-size="24px" xml:space="preserve" fill="#444444" text-anchor="middle" pointer-events="none" font-family="Tahoma, Verdana, Helvetica, Arial" font-weight="normal"  style="display: block;"><tspan dy="-0.3em" >Realiza scraping</tspan><tspan dy="1.2em" x="0" >de activos</tspan></text></g><g id="v-170"  label-idx="1" cursor="move" transform="matrix(1,0,0,1,1560.212890625,783.6636962890625)" style="cursor: default;"><rect joint-selector="rect" id="v-175" fill="#ffffff" rx="3" ry="3" x="-57.26028823852539" y="-11.024256706237793" width="114.52057647705078" height="20.080320358276367"  pointer-events="none" style="display: block;"></rect><text joint-selector="text" id="v-174" font-size="16.799999999999997px" xml:space="preserve" fill="#444444" text-anchor="middle" pointer-events="none" font-family="Tahoma, Verdana, Helvetica, Arial" font-weight="normal"  style="display: block;"><tspan dy="0.3em" >[HTTPS/HTML]</tspan></text></g><g id="v-171"  label-idx="2" cursor="move" transform="matrix(1,0,0,1,1546.322998046875,793.5565795898438)" style="cursor: default;"><rect joint-selector="rect" id="v-177" fill="#ffffff" rx="3" ry="3" x="0" y="0" width="0" height="0"  display="none"></rect><text joint-selector="text" id="v-176" fill="#000000" font-size="14" text-anchor="middle" text-vertical-anchor="middle" pointer-events="none"></text></g></g></g><!--z-index:38--><g   id="j_18"  style="opacity: 1;"><path fill="none" cursor="pointer" stroke="transparent" stroke-linecap="round" joint-selector="wrapper" id="v-197" stroke-width="10" stroke-linejoin="round" d="M 1390 1019.14 L 1551 1091 C 1557 1093.5333333333333 1563.3333333333333 1094.8666666666668 1570 1095 L 1730 1094.46"></path><path fill="none" pointer-events="none" joint-selector="line" id="v-196" stroke="#444444" stroke-width="2" stroke-linejoin="round" stroke-dasharray="8 8" d="M 1390 1019.14 L 1551 1091 C 1557 1093.5333333333333 1563.3333333333333 1094.8666666666668 1570 1095 L 1730 1094.46" marker-end="url(#v-21252848929)"></path><g id="v-186" ><g id="v-187"  label-idx="0" cursor="move" transform="matrix(1,0,0,1,1560.138671875,1080.4764404296875)" style="cursor: default;"><rect joint-selector="rect" id="v-191" fill="#ffffff" rx="3" ry="3" x="-81.2939224243164" y="-56.080322265625" width="162.5878448486328" height="110.49639129638672" pointer-events="none"  style="display: block;"></rect><text joint-selector="text" id="v-190" font-size="24px" xml:space="preserve" fill="#444444" text-anchor="middle" pointer-events="none" font-family="Tahoma, Verdana, Helvetica, Arial" font-weight="normal"  style="display: block;"><tspan dy="-1.4999999999999998em" >Commitea</tspan><tspan dy="1.2em" x="0" >documentación</tspan><tspan dy="1.2em" x="0" >generada</tspan><tspan dy="1.2em" x="0" >(Markdown)</tspan></text></g><g id="v-188"  label-idx="1" cursor="move" transform="matrix(1,0,0,1,1560.138671875,1154.076416015625)" style="cursor: default;"><rect joint-selector="rect" id="v-193" fill="#ffffff" rx="3" ry="3" x="-76.36797332763672" y="-11.024256706237793" width="152.73594665527344" height="20.080320358276367"  pointer-events="none" style="display: block;"></rect><text joint-selector="text" id="v-192" font-size="16.799999999999997px" xml:space="preserve" fill="#444444" text-anchor="middle" pointer-events="none" font-family="Tahoma, Verdana, Helvetica, Arial" font-weight="normal"  style="display: block;"><tspan dy="0.3em" >[GitHub API/HTTPS]</tspan></text></g><g id="v-189"  label-idx="2" cursor="move" transform="matrix(1,0,0,1,1542.4832763671875,1160.19921875)" style="cursor: default;"><rect joint-selector="rect" id="v-195" fill="#ffffff" rx="3" ry="3" x="0" y="0" width="0" height="0"  display="none"></rect><text joint-selector="text" id="v-194" fill="#000000" font-size="14" text-anchor="middle" text-vertical-anchor="middle" pointer-events="none"></text></g></g></g><!--z-index:39--><g   id="j_19"  style="opacity: 1;"><path fill="none" cursor="pointer" stroke="transparent" stroke-linecap="round" joint-selector="wrapper" id="v-212" stroke-width="10" stroke-linejoin="round" d="M 1390 1480.33 L 1550 1446 C 1556.6666666666665 1444.3666666666668 1563.3333333333333 1444.3666666666668 1570 1446 L 1730 1490.22"></path><path fill="none" pointer-events="none" joint-selector="line" id="v-211" stroke="#444444" stroke-width="2" stroke-linejoin="round" stroke-dasharray="8 8" d="M 1390 1480.33 L 1550 1446 C 1556.6666666666665 1444.3666666666668 1563.3333333333333 1444.3666666666668 1570 1446 L 1730 1490.22" marker-end="url(#v-21252848929)"></path><g id="v-201" ><g id="v-202"  label-idx="0" cursor="move" transform="matrix(1,0,0,1,1560,1431.375)" style="cursor: default;"><rect joint-selector="rect" id="v-206" fill="#ffffff" rx="3" ry="3" x="-97.95431518554688" y="-41.680320739746094" width="195.90863037109375" height="81.69639587402344" pointer-events="none"  style="display: block;"></rect><text joint-selector="text" id="v-205" font-size="24px" xml:space="preserve" fill="#444444" text-anchor="middle" pointer-events="none" font-family="Tahoma, Verdana, Helvetica, Arial" font-weight="normal"  style="display: block;"><tspan dy="-0.8999999999999999em" >Realiza scraping</tspan><tspan dy="1.2em" x="0" >de documentación</tspan><tspan dy="1.2em" x="0" >DESY</tspan></text></g><g id="v-203"  label-idx="1" cursor="move" transform="matrix(1,0,0,1,1560,1490.574951171875)" style="cursor: default;"><rect joint-selector="rect" id="v-208" fill="#ffffff" rx="3" ry="3" x="-57.26028823852539" y="-11.024256706237793" width="114.52057647705078" height="20.080320358276367"  pointer-events="none" style="display: block;"></rect><text joint-selector="text" id="v-207" font-size="16.799999999999997px" xml:space="preserve" fill="#444444" text-anchor="middle" pointer-events="none" font-family="Tahoma, Verdana, Helvetica, Arial" font-weight="normal"  style="display: block;"><tspan dy="0.3em" >[HTTPS/HTML]</tspan></text></g><g id="v-204"  label-idx="2" cursor="move" transform="matrix(1,0,0,1,1551.171875,1498.9918212890625)" style="cursor: default;"><rect joint-selector="rect" id="v-210" fill="#ffffff" rx="3" ry="3" x="0" y="2.2737367544323206e-13" width="0" height="0"  display="none"></rect><text joint-selector="text" id="v-209" fill="#000000" font-size="14" text-anchor="middle" text-vertical-anchor="middle" pointer-events="none"></text></g></g></g><!--z-index:40--><g   id="j_20"  style="opacity: 1;"><path fill="none" cursor="pointer" stroke="transparent" stroke-linecap="round" joint-selector="wrapper" id="v-230" stroke-width="10" stroke-linejoin="round" d="M 1390 1578.76 L 1550 1614 C 1556.6666666666665 1615.5666666666666 1562 1613.5666666666666 1566 1608 L 1841.57 1244"></path><path fill="none" pointer-events="none" joint-selector="line" id="v-229" stroke="#444444" stroke-width="2" stroke-linejoin="round" stroke-dasharray="8 8" d="M 1390 1578.76 L 1550 1614 C 1556.6666666666665 1615.5666666666666 1562 1613.5666666666666 1566 1608 L 1841.57 1244" marker-end="url(#v-21252848929)"></path><g id="v-219" ><g id="v-220"  label-idx="0" cursor="move" transform="matrix(1,0,0,1,1559.618896484375,1600.0242919921875)" style="cursor: default;"><rect joint-selector="rect" id="v-224" fill="#ffffff" rx="3" ry="3" x="-81.2939224243164" y="-56.080322265625" width="162.5878448486328" height="110.49639129638672" pointer-events="none"  style="display: block;"></rect><text joint-selector="text" id="v-223" font-size="24px" xml:space="preserve" fill="#444444" text-anchor="middle" pointer-events="none" font-family="Tahoma, Verdana, Helvetica, Arial" font-weight="normal"  style="display: block;"><tspan dy="-1.4999999999999998em" >Commitea</tspan><tspan dy="1.2em" x="0" >documentación</tspan><tspan dy="1.2em" x="0" >generada</tspan><tspan dy="1.2em" x="0" >(Markdown)</tspan></text></g><g id="v-221"  label-idx="1" cursor="move" transform="matrix(1,0,0,1,1559.618896484375,1673.624267578125)" style="cursor: default;"><rect joint-selector="rect" id="v-226" fill="#ffffff" rx="3" ry="3" x="-76.36797332763672" y="-11.024256706237793" width="152.73594665527344" height="20.080320358276367"  pointer-events="none" style="display: block;"></rect><text joint-selector="text" id="v-225" font-size="16.799999999999997px" xml:space="preserve" fill="#444444" text-anchor="middle" pointer-events="none" font-family="Tahoma, Verdana, Helvetica, Arial" font-weight="normal"  style="display: block;"><tspan dy="0.3em" >[GitHub API/HTTPS]</tspan></text></g><g id="v-222"  label-idx="2" cursor="move" transform="matrix(1,0,0,1,1638.822265625,1567.2001953125)" style="cursor: default;"><rect joint-selector="rect" id="v-228" fill="#ffffff" rx="3" ry="3" x="0" y="2.2737367544323206e-13" width="0" height="0"  display="none"></rect><text joint-selector="text" id="v-227" fill="#000000" font-size="14" text-anchor="middle" text-vertical-anchor="middle" pointer-events="none"></text></g></g></g><!--z-index:41--><g   id="j_21"  style="opacity: 1;"><path fill="none" cursor="pointer" stroke="transparent" stroke-linecap="round" joint-selector="wrapper" id="v-245" stroke-width="10" stroke-linejoin="round" d="M 1838.27 944 L 1566 594 C 1562 588.9333333333334 1557 584.9333333333334 1551 582 L 1390 513.92"></path><path fill="none" pointer-events="none" joint-selector="line" id="v-244" stroke="#444444" stroke-width="2" stroke-linejoin="round" stroke-dasharray="8 8" d="M 1838.27 944 L 1566 594 C 1562 588.9333333333334 1557 584.9333333333334 1551 582 L 1390 513.92" marker-end="url(#v-21252848929)"></path><g id="v-234" ><g id="v-235"  label-idx="0" cursor="move" transform="matrix(1,0,0,1,1559.132568359375,573.7064208984375)" style="cursor: default;"><rect joint-selector="rect" id="v-239" fill="#ffffff" rx="3" ry="3" x="-88.60441589355469" y="-56.080322265625" width="177.20883178710938" height="110.49639129638672" pointer-events="none"  style="display: block;"></rect><text joint-selector="text" id="v-238" font-size="24px" xml:space="preserve" fill="#444444" text-anchor="middle" pointer-events="none" font-family="Tahoma, Verdana, Helvetica, Arial" font-weight="normal"  style="display: block;"><tspan dy="-1.4999999999999998em" >CI/CD publica</tspan><tspan dy="1.2em" x="0" >docs estáticos al</tspan><tspan dy="1.2em" x="0" >Cloud Storage</tspan><tspan dy="1.2em" x="0" >(techdocs-cli)</tspan></text></g><g id="v-236"  label-idx="1" cursor="move" transform="matrix(1,0,0,1,1559.132568359375,647.3064575195312)" style="cursor: default;"><rect joint-selector="rect" id="v-241" fill="#ffffff" rx="3" ry="3" x="-44.71009063720703" y="-11.024256706237793" width="89.42018127441406" height="20.080320358276367"  pointer-events="none" style="display: block;"></rect><text joint-selector="text" id="v-240" font-size="16.799999999999997px" xml:space="preserve" fill="#444444" text-anchor="middle" pointer-events="none" font-family="Tahoma, Verdana, Helvetica, Arial" font-weight="normal"  style="display: block;"><tspan dy="0.3em" >[HTTPS/S3]</tspan></text></g><g id="v-237"  label-idx="2" cursor="move" transform="matrix(1,0,0,1,1632.5228271484375,760.96923828125)" style="cursor: default;"><rect joint-selector="rect" id="v-243" fill="#ffffff" rx="3" ry="3" x="0" y="0" width="0" height="0"  display="none"></rect><text joint-selector="text" id="v-242" fill="#000000" font-size="14" text-anchor="middle" text-vertical-anchor="middle" pointer-events="none"></text></g></g></g><!--z-index:42--><g   id="j_22"  style="opacity: 1;"><path fill="none" cursor="pointer" stroke="transparent" stroke-linecap="round" joint-selector="wrapper" id="v-263" stroke-width="10" stroke-linejoin="round" d="M 1390 408.89 L 1550 402 C 1556.6666666666665 402.0000000000001 1563.3333333333333 401.0000000000001 1570 399 L 1730 354.66"></path><path fill="none" pointer-events="none" joint-selector="line" id="v-262" stroke="#444444" stroke-width="2" stroke-linejoin="round" stroke-dasharray="8 8" d="M 1390 408.89 L 1550 402 C 1556.6666666666665 402.0000000000001 1563.3333333333333 401.0000000000001 1570 399 L 1730 354.66" marker-end="url(#v-21252848929)"></path><g id="v-252" ><g id="v-253"  label-idx="0" cursor="move" transform="matrix(1,0,0,1,1559.921875,387.8616638183594)" style="cursor: default;"><rect joint-selector="rect" id="v-257" fill="#ffffff" rx="3" ry="3" x="-68.64959716796875" y="-41.680320739746094" width="140.0152587890625" height="81.69639587402344" pointer-events="none"  style="display: block;"></rect><text joint-selector="text" id="v-256" font-size="24px" xml:space="preserve" fill="#444444" text-anchor="middle" pointer-events="none" font-family="Tahoma, Verdana, Helvetica, Arial" font-weight="normal"  style="display: block;"><tspan dy="-0.8999999999999999em" >Descubre</tspan><tspan dy="1.2em" x="0" >entidades de</tspan><tspan dy="1.2em" x="0" >catálogo</tspan></text></g><g id="v-254"  label-idx="1" cursor="move" transform="matrix(1,0,0,1,1559.921875,447.0616760253906)" style="cursor: default;"><rect joint-selector="rect" id="v-259" fill="#ffffff" rx="3" ry="3" x="-84.74523162841797" y="-11.024256706237793" width="169.49046325683594" height="20.080320358276367"  pointer-events="none" style="display: block;"></rect><text joint-selector="text" id="v-258" font-size="16.799999999999997px" xml:space="preserve" fill="#444444" text-anchor="middle" pointer-events="none" font-family="Tahoma, Verdana, Helvetica, Arial" font-weight="normal"  style="display: block;"><tspan dy="0.3em" >[Bitbucket API/HTTPS]</tspan></text></g><g id="v-255"  label-idx="2" cursor="move" transform="matrix(1,0,0,1,1553.0078125,454.93096923828125)" style="cursor: default;"><rect joint-selector="rect" id="v-261" fill="#ffffff" rx="3" ry="3" x="0" y="1.1368683772161603e-13" width="0" height="0"  display="none"></rect><text joint-selector="text" id="v-260" fill="#000000" font-size="14" text-anchor="middle" text-vertical-anchor="middle" pointer-events="none"></text></g></g></g><!--z-index:43--></g><g  style="user-select: none;"></g><g ></g><g  display="none"></g></g></svg>