<svg xmlns="http://www.w3.org/2000/svg" xmlns:xlink="http://www.w3.org/1999/xlink" version="1.1" viewBox="0 0 2780 2430" style="background: #111111"><style id="v-3" type="text/css">
        .joint-element .scalable * {
            vector-effect: non-scaling-stroke;
        }
    </style><defs joint-selector="defs"><marker id="v-2-527367903" orient="auto" overflow="visible" markerUnits="userSpaceOnUse"><path id="v-162" stroke="#cccccc" fill="#cccccc" transform="rotate(180)" d="M 20 -10 0 0 20 10 Z"></path></marker></defs><g joint-selector="layers"  transform="matrix(1,0,0,1,0,0)"><g  style="pointer-events: none;"></g><g ></g><g  style="user-select: none;"><!--z-index:0--><!--z-index:1--><!--z-index:2--><!--z-index:3--><!--z-index:4--><!--z-index:5--><!--z-index:6--><!--z-index:7--><!--z-index:8--><!--z-index:9--><!--z-index:10--><!--z-index:11--><!--z-index:12--><!--z-index:13--><!--z-index:14--><!--z-index:15--><!--z-index:16--><!--z-index:17--><!--z-index:18--><!--z-index:19--><!--z-index:20--><!--z-index:21--><g   id="j_115"  transform="translate(20,2386)"><g id="v-1451"><text  id="v-1452" font-size="24px" xml:space="preserve" y="0.8em" font-weight="normal" text-anchor="start" fill="#cccccc" pointer-events="none" display="block" font-family="Tahoma, Verdana, Helvetica, Arial"><tspan dy="0"  display="block">jueves, 5 de marzo de 2026, 11:53 hora estándar de Europa central</tspan></text></g></g><!--z-index:22--><g   id="j_114"  transform="translate(20,2352)"><g id="v-1449"><text  id="v-1450" font-size="24px" xml:space="preserve" y="0.8em" font-weight="normal" text-anchor="start" fill="#cccccc" pointer-events="none" display="block" font-family="Tahoma, Verdana, Helvetica, Arial"><tspan dy="0"  display="block">SYSTEM LANDSCAPE DIAGRAM - LEVEL 1</tspan></text></g></g><!--z-index:23--><g   id="j_113"  transform="translate(20,2306)"><g id="v-1447"><text  id="v-1448" font-size="36px" xml:space="preserve" y="0.8em" font-weight="normal" text-anchor="start" fill="#cccccc" pointer-events="none" display="block" font-family="Tahoma, Verdana, Helvetica, Arial"><tspan dy="0"  display="block">System Landscape View</tspan></text></g></g><!--z-index:24--><g   id="j_116"  transform="translate(200,190)" style=""><g  id="v-1456" style="opacity: 1;"><rect  x="0" y="160" width="400" height="240" rx="70" id="v-1458" stroke-width="2" pointer-events="visiblePainted" fill="#08427b" stroke="#073b6f" stroke-dasharray=""></rect><circle  cx="200" cy="88.88888888888889" r="88.88888888888889" id="v-1457" stroke-width="2" pointer-events="visiblePainted" fill="#08427b" stroke="#073b6f" stroke-dasharray=""></circle><line  x1="80" y1="266.6666666666667" x2="80" y2="400" id="v-1464" stroke="#073b6f" stroke-width="1" stroke-dasharray=""></line><line  x1="320" y1="266.6666666666667" x2="320" y2="400" id="v-1465" stroke="#073b6f" stroke-width="1" stroke-dasharray=""></line><text  id="v-1459" font-size="33.599999999999994px" xml:space="preserve" y="202.5" font-weight="bold" text-anchor="middle" pointer-events="visible" font-family="Tahoma, Verdana, Helvetica, Arial" fill="#ffffff" dominant-baseline="hanging" transform="matrix(1,0,0,1,200,0)"><tspan dy="0" >Desarrollador</tspan></text><text  id="v-1460" font-size="16.799999999999997px" xml:space="preserve" y="244.1" text-anchor="middle" font-family="Tahoma, Verdana, Helvetica, Arial" fill="#ffffff" dominant-baseline="hanging" transform="matrix(1,0,0,1,200,0)" style="display: block;"><tspan dy="0" >[Person]</tspan></text><text  id="v-1461" font-size="24px" xml:space="preserve" y="275.9" text-anchor="middle" font-family="Tahoma, Verdana, Helvetica, Arial" fill="#ffffff" dominant-baseline="hanging" transform="matrix(1,0,0,1,200,0)" style="display: block;"><tspan dy="0" >Crea y mantiene servicios</tspan><tspan dy="1.2em" x="0" >digitales siguiendo los</tspan><tspan dy="1.2em" x="0" >estándares de la organización.</tspan></text><g  id="v-1462" font-weight="normal" text-anchor="middle" color="#ffffff" transform="matrix(1,0,0,1,197.5,368)" display="none"><g ></g><g ></g><g ></g><g ></g></g><image  id="v-1463"></image></g></g><!--z-index:25--><g   id="j_117"  transform="translate(200,1773)" style=""><g  id="v-1472" style="opacity: 1;"><rect  x="0" y="160" width="400" height="240" rx="70" id="v-1474" stroke-width="2" pointer-events="visiblePainted" fill="#08427b" stroke="#073b6f" stroke-dasharray=""></rect><circle  cx="200" cy="88.88888888888889" r="88.88888888888889" id="v-1473" stroke-width="2" pointer-events="visiblePainted" fill="#08427b" stroke="#073b6f" stroke-dasharray=""></circle><line  x1="80" y1="266.6666666666667" x2="80" y2="400" id="v-1480" stroke="#073b6f" stroke-width="1" stroke-dasharray=""></line><line  x1="320" y1="266.6666666666667" x2="320" y2="400" id="v-1481" stroke="#073b6f" stroke-width="1" stroke-dasharray=""></line><text  id="v-1475" font-size="33.599999999999994px" xml:space="preserve" y="167.94" font-weight="bold" text-anchor="middle" pointer-events="visible" font-family="Tahoma, Verdana, Helvetica, Arial" fill="#ffffff" dominant-baseline="hanging" transform="matrix(1,0,0,1,200,0)"><tspan dy="0" >Responsable de</tspan><tspan dy="1.2em" x="0" >Gobernanza</tspan></text><text  id="v-1476" font-size="16.799999999999997px" xml:space="preserve" y="249.85999999999999" text-anchor="middle" font-family="Tahoma, Verdana, Helvetica, Arial" fill="#ffffff" dominant-baseline="hanging" transform="matrix(1,0,0,1,200,0)" style="display: block;"><tspan dy="0" >[Person]</tspan></text><text  id="v-1477" font-size="24px" xml:space="preserve" y="281.65999999999997" text-anchor="middle" font-family="Tahoma, Verdana, Helvetica, Arial" fill="#ffffff" dominant-baseline="hanging" transform="matrix(1,0,0,1,200,0)" style="display: block;"><tspan dy="0" >Define estándares tecnológicos,</tspan><tspan dy="1.2em" x="0" >gestiona el catálogo de</tspan><tspan dy="1.2em" x="0" >servicios y supervisa el</tspan><tspan dy="1.2em" x="0" >cumplimiento normativo.</tspan></text><g  id="v-1478" font-weight="normal" text-anchor="middle" color="#ffffff" transform="matrix(1,0,0,1,197.5,368)" display="none"><g ></g><g ></g><g ></g><g ></g></g><image  id="v-1479"></image></g></g><!--z-index:26--><g   id="j_118"  transform="translate(1140,323)" style=""><g  id="v-1485" style="opacity: 1;"><rect  id="v-1486" rx="20" ry="20" stroke-width="2" pointer-events="visiblePainted" fill="#1168bd" stroke="#0f5eaa" stroke-dasharray="" width="450" height="300"></rect><text  id="v-1487" font-size="33.599999999999994px" xml:space="preserve" y="58.10000000000001" font-weight="bold" text-anchor="middle" pointer-events="visible" font-family="Tahoma, Verdana, Helvetica, Arial" fill="#ffffff" dominant-baseline="hanging" transform="matrix(1,0,0,1,225,0)"><tspan dy="0" >BACKSTAGE</tspan></text><text  id="v-1488" font-size="16.799999999999997px" xml:space="preserve" y="99.7" text-anchor="middle" font-family="Tahoma, Verdana, Helvetica, Arial" fill="#ffffff" dominant-baseline="hanging" transform="matrix(1,0,0,1,225,0)" style="display: block;"><tspan dy="0" >[Software System]</tspan></text><text  id="v-1489" font-size="24px" xml:space="preserve" y="131.5" text-anchor="middle" font-family="Tahoma, Verdana, Helvetica, Arial" fill="#ffffff" dominant-baseline="hanging" transform="matrix(1,0,0,1,225,0)" style="display: block;"><tspan dy="0" >Portal de autoservicio para</tspan><tspan dy="1.2em" x="0" >desarrolladores que centraliza el</tspan><tspan dy="1.2em" x="0" >catálogo, plantillas y</tspan><tspan dy="1.2em" x="0" >documentación.</tspan></text><g  id="v-1490" color="#ffffff" transform="matrix(1,0,0,1,210,268)" display="none"><g  transform="translate(5 0)"><svg xmlns="http://www.w3.org/2000/svg" width="20" height="20" fill="currentColor" viewBox="0 0 16 16"><path fill-rule="evenodd" d="M6.5 12a5.5 5.5 0 1 0 0-11 5.5 5.5 0 0 0 0 11zM13 6.5a6.5 6.5 0 1 1-13 0 6.5 6.5 0 0 1 13 0z"></path><path d="M10.344 11.742c.03.04.062.078.098.115l3.85 3.85a1 1 0 0 0 1.415-1.414l-3.85-3.85a1.007 1.007 0 0 0-.115-.1 6.538 6.538 0 0 1-1.398 1.4z"></path><path fill-rule="evenodd" d="M6.5 3a.5.5 0 0 1 .5.5V6h2.5a.5.5 0 0 1 0 1H7v2.5a.5.5 0 0 1-1 0V7H3.5a.5.5 0 0 1 0-1H6V3.5a.5.5 0 0 1 .5-.5z"></path></svg></g><g ></g><g ></g><g ></g></g><image  id="v-1491"></image></g></g><!--z-index:27--><g   id="j_119"  transform="translate(2130,1090)" style=""><g  id="v-1495" style="opacity: 1;"><rect  id="v-1496" rx="20" ry="20" stroke-width="2" pointer-events="visiblePainted" fill="#1168bd" stroke="#0f5eaa" stroke-dasharray="" width="450" height="300"></rect><text  id="v-1497" font-size="33.599999999999994px" xml:space="preserve" y="86.9" font-weight="bold" text-anchor="middle" pointer-events="visible" font-family="Tahoma, Verdana, Helvetica, Arial" fill="#ffffff" dominant-baseline="hanging" transform="matrix(1,0,0,1,225,0)"><tspan dy="0" >GITHUB</tspan></text><text  id="v-1498" font-size="16.799999999999997px" xml:space="preserve" y="128.5" text-anchor="middle" font-family="Tahoma, Verdana, Helvetica, Arial" fill="#ffffff" dominant-baseline="hanging" transform="matrix(1,0,0,1,225,0)" style="display: block;"><tspan dy="0" >[Software System]</tspan></text><text  id="v-1499" font-size="24px" xml:space="preserve" y="160.3" text-anchor="middle" font-family="Tahoma, Verdana, Helvetica, Arial" fill="#ffffff" dominant-baseline="hanging" transform="matrix(1,0,0,1,225,0)" style="display: block;"><tspan dy="0" >Plataforma de control de versiones y</tspan><tspan dy="1.2em" x="0" >ejecución de pipelines (CI/CD).</tspan></text><g  id="v-1500" color="#ffffff" transform="matrix(1,0,0,1,222.5,268)" display="none"><g ></g><g ></g><g ></g><g ></g></g><image  id="v-1501"></image></g></g><!--z-index:28--><g   id="j_120"  transform="translate(2130,143)" style=""><g  id="v-1505" style="opacity: 1;"><rect  id="v-1506" rx="20" ry="20" stroke-width="2" pointer-events="visiblePainted" fill="#999999" stroke="#8a8a8a" stroke-dasharray="" width="450" height="300"></rect><text  id="v-1507" font-size="33.599999999999994px" xml:space="preserve" y="72.5" font-weight="bold" text-anchor="middle" pointer-events="visible" font-family="Tahoma, Verdana, Helvetica, Arial" fill="#ffffff" dominant-baseline="hanging" transform="matrix(1,0,0,1,225,0)"><tspan dy="0" >BITBUCKET</tspan></text><text  id="v-1508" font-size="16.799999999999997px" xml:space="preserve" y="114.1" text-anchor="middle" font-family="Tahoma, Verdana, Helvetica, Arial" fill="#ffffff" dominant-baseline="hanging" transform="matrix(1,0,0,1,225,0)" style="display: block;"><tspan dy="0" >[Software System]</tspan></text><text  id="v-1509" font-size="24px" xml:space="preserve" y="145.89999999999998" text-anchor="middle" font-family="Tahoma, Verdana, Helvetica, Arial" fill="#ffffff" dominant-baseline="hanging" transform="matrix(1,0,0,1,225,0)" style="display: block;"><tspan dy="0" >Forja de código del Gobierno de</tspan><tspan dy="1.2em" x="0" >Aragón donde residen los starters</tspan><tspan dy="1.2em" x="0" >oficiales.</tspan></text><g  id="v-1510" color="#ffffff" transform="matrix(1,0,0,1,222.5,268)" display="none"><g ></g><g ></g><g ></g><g ></g></g><image  id="v-1511"></image></g></g><!--z-index:29--><g   id="j_121"  transform="translate(2130,575)" style=""><g  id="v-1515" style="opacity: 1;"><rect  id="v-1516" rx="20" ry="20" stroke-width="2" pointer-events="visiblePainted" fill="#999999" stroke="#8a8a8a" stroke-dasharray="" width="450" height="300"></rect><text  id="v-1517" font-size="33.599999999999994px" xml:space="preserve" y="86.9" font-weight="bold" text-anchor="middle" pointer-events="visible" font-family="Tahoma, Verdana, Helvetica, Arial" fill="#ffffff" dominant-baseline="hanging" transform="matrix(1,0,0,1,225,0)"><tspan dy="0" >Portal CTT</tspan></text><text  id="v-1518" font-size="16.799999999999997px" xml:space="preserve" y="128.5" text-anchor="middle" font-family="Tahoma, Verdana, Helvetica, Arial" fill="#ffffff" dominant-baseline="hanging" transform="matrix(1,0,0,1,225,0)" style="display: block;"><tspan dy="0" >[Software System]</tspan></text><text  id="v-1519" font-size="24px" xml:space="preserve" y="160.3" text-anchor="middle" font-family="Tahoma, Verdana, Helvetica, Arial" fill="#ffffff" dominant-baseline="hanging" transform="matrix(1,0,0,1,225,0)" style="display: block;"><tspan dy="0" >Portal de activos del Centro de</tspan><tspan dy="1.2em" x="0" >Transferencia de Tecnología (CTT).</tspan></text><g  id="v-1520" color="#ffffff" transform="matrix(1,0,0,1,222.5,268)" display="none"><g ></g><g ></g><g ></g><g ></g></g><image  id="v-1521"></image></g></g><!--z-index:30--><g   id="j_122"  transform="translate(1140,915)" style=""><g  id="v-1525" style="opacity: 1;"><rect  id="v-1526" rx="20" ry="20" stroke-width="2" pointer-events="visiblePainted" fill="#1168bd" stroke="#0f5eaa" stroke-dasharray="" width="450" height="300"></rect><text  id="v-1527" font-size="33.599999999999994px" xml:space="preserve" y="58.10000000000001" font-weight="bold" text-anchor="middle" pointer-events="visible" font-family="Tahoma, Verdana, Helvetica, Arial" fill="#ffffff" dominant-baseline="hanging" transform="matrix(1,0,0,1,225,0)"><tspan dy="0" >CTT Scraper</tspan></text><text  id="v-1528" font-size="16.799999999999997px" xml:space="preserve" y="99.7" text-anchor="middle" font-family="Tahoma, Verdana, Helvetica, Arial" fill="#ffffff" dominant-baseline="hanging" transform="matrix(1,0,0,1,225,0)" style="display: block;"><tspan dy="0" >[Software System]</tspan></text><text  id="v-1529" font-size="24px" xml:space="preserve" y="131.5" text-anchor="middle" font-family="Tahoma, Verdana, Helvetica, Arial" fill="#ffffff" dominant-baseline="hanging" transform="matrix(1,0,0,1,225,0)" style="display: block;"><tspan dy="0" >Proceso externo que scrapea el</tspan><tspan dy="1.2em" x="0" >portal CTT, genera documentación</tspan><tspan dy="1.2em" x="0" >Markdown y la commitea en un</tspan><tspan dy="1.2em" x="0" >repositorio.</tspan></text><g  id="v-1530" color="#ffffff" transform="matrix(1,0,0,1,222.5,268)" display="none"><g ></g><g ></g><g ></g><g ></g></g><image  id="v-1531"></image></g></g><!--z-index:31--><g   id="j_123"  transform="translate(2130,1604)" style=""><g  id="v-1535" style="opacity: 1;"><rect  id="v-1536" rx="20" ry="20" stroke-width="2" pointer-events="visiblePainted" fill="#999999" stroke="#8a8a8a" stroke-dasharray="" width="450" height="300"></rect><text  id="v-1537" font-size="33.599999999999994px" xml:space="preserve" y="72.5" font-weight="bold" text-anchor="middle" pointer-events="visible" font-family="Tahoma, Verdana, Helvetica, Arial" fill="#ffffff" dominant-baseline="hanging" transform="matrix(1,0,0,1,225,0)"><tspan dy="0" >Forja DESY</tspan></text><text  id="v-1538" font-size="16.799999999999997px" xml:space="preserve" y="114.1" text-anchor="middle" font-family="Tahoma, Verdana, Helvetica, Arial" fill="#ffffff" dominant-baseline="hanging" transform="matrix(1,0,0,1,225,0)" style="display: block;"><tspan dy="0" >[Software System]</tspan></text><text  id="v-1539" font-size="24px" xml:space="preserve" y="145.89999999999998" text-anchor="middle" font-family="Tahoma, Verdana, Helvetica, Arial" fill="#ffffff" dominant-baseline="hanging" transform="matrix(1,0,0,1,225,0)" style="display: block;"><tspan dy="0" >Portal de la forja de DESY con</tspan><tspan dy="1.2em" x="0" >documentación de estándares y</tspan><tspan dy="1.2em" x="0" >frameworks.</tspan></text><g  id="v-1540" color="#ffffff" transform="matrix(1,0,0,1,222.5,268)" display="none"><g ></g><g ></g><g ></g><g ></g></g><image  id="v-1541"></image></g></g><!--z-index:32--><g   id="j_124"  transform="translate(1140,1551)" style=""><g  id="v-1545" style="opacity: 1;"><rect  id="v-1546" rx="20" ry="20" stroke-width="2" pointer-events="visiblePainted" fill="#1168bd" stroke="#0f5eaa" stroke-dasharray="" width="450" height="300"></rect><text  id="v-1547" font-size="33.599999999999994px" xml:space="preserve" y="58.10000000000001" font-weight="bold" text-anchor="middle" pointer-events="visible" font-family="Tahoma, Verdana, Helvetica, Arial" fill="#ffffff" dominant-baseline="hanging" transform="matrix(1,0,0,1,225,0)"><tspan dy="0" >DESY Scraper</tspan></text><text  id="v-1548" font-size="16.799999999999997px" xml:space="preserve" y="99.7" text-anchor="middle" font-family="Tahoma, Verdana, Helvetica, Arial" fill="#ffffff" dominant-baseline="hanging" transform="matrix(1,0,0,1,225,0)" style="display: block;"><tspan dy="0" >[Software System]</tspan></text><text  id="v-1549" font-size="24px" xml:space="preserve" y="131.5" text-anchor="middle" font-family="Tahoma, Verdana, Helvetica, Arial" fill="#ffffff" dominant-baseline="hanging" transform="matrix(1,0,0,1,225,0)" style="display: block;"><tspan dy="0" >Proceso externo que scrapea la forja</tspan><tspan dy="1.2em" x="0" >de DESY, genera documentación</tspan><tspan dy="1.2em" x="0" >Markdown y la commitea en un</tspan><tspan dy="1.2em" x="0" >repositorio.</tspan></text><g  id="v-1550" color="#ffffff" transform="matrix(1,0,0,1,222.5,268)" display="none"><g ></g><g ></g><g ></g><g ></g></g><image  id="v-1551"></image></g></g><!--z-index:33--><g   id="j_125"  style="opacity: 1;"><path fill="none" cursor="pointer" stroke="transparent" stroke-linecap="round" joint-selector="wrapper" id="v-1563" stroke-width="10" stroke-linejoin="round" d="M 600 390 L 860 390 C 866.6666666666666 390 873.3333333333333 390.66666666666663 880 392 L 1140 435.27"></path><path fill="none" pointer-events="none" joint-selector="line" id="v-1562" stroke="#cccccc" stroke-width="2" stroke-linejoin="round" stroke-dasharray="8 8" d="M 600 390 L 860 390 C 866.6666666666666 390 873.3333333333333 390.66666666666663 880 392 L 1140 435.27" marker-end="url(#v-2-527367903)"></path><g id="v-1555" ><g id="v-1556"  label-idx="0" cursor="move" transform="matrix(1,0,0,1,871.8359375,390.700439453125)" style="cursor: default;"><rect joint-selector="rect" id="v-1559" fill="#111111" rx="3" ry="3" x="-91.4885482788086" y="-44.57872772216797" width="185.3882293701172" height="86.32341003417969" pointer-events="none"  style="display: block;"></rect><text joint-selector="text" id="v-1558" font-size="24px" xml:space="preserve" fill="#cccccc" text-anchor="middle" pointer-events="none" font-family="Tahoma, Verdana, Helvetica, Arial" font-weight="normal"  style="display: block;"><tspan dy="-0.8999999999999999em" >Utiliza plantillas y</tspan><tspan dy="1.2em" x="0" >consulta el</tspan><tspan dy="1.2em" x="0" >catálogo</tspan></text></g><g id="v-1557"  label-idx="1" cursor="move" transform="matrix(1,0,0,1,861.8359375,431.5004577636719)" style="cursor: default;"><rect joint-selector="rect" id="v-1561" fill="#ffffff" rx="3" ry="3" x="-2.2737367544323206e-13" y="-5.684341886080802e-14" width="0" height="0"  display="none"></rect><text joint-selector="text" id="v-1560" fill="#000000" font-size="14" text-anchor="middle" text-vertical-anchor="middle" pointer-events="none"></text></g></g></g><!--z-index:34--><g   id="j_126"  style="opacity: 1;"><path fill="none" cursor="pointer" stroke="transparent" stroke-linecap="round" joint-selector="wrapper" id="v-1575" stroke-width="10" stroke-linejoin="round" d="M 533.33 1773 L 864 1276 C 868 1270.6666666666665 871.6666666666666 1265.3333333333333 875 1260 L 1271.6 623"></path><path fill="none" pointer-events="none" joint-selector="line" id="v-1574" stroke="#cccccc" stroke-width="2" stroke-linejoin="round" stroke-dasharray="8 8" d="M 533.33 1773 L 864 1276 C 868 1270.6666666666665 871.6666666666666 1265.3333333333333 875 1260 L 1271.6 623" marker-end="url(#v-2-527367903)"></path><g id="v-1567" ><g id="v-1568"  label-idx="0" cursor="move" transform="matrix(1,0,0,1,910.411865234375,1203.1231689453125)" style="cursor: default;"><rect joint-selector="rect" id="v-1571" fill="#111111" rx="3" ry="3" x="-92.96959686279297" y="-30.178728103637695" width="186.1986083984375" height="57.52341079711914" pointer-events="none"  style="display: block;"></rect><text joint-selector="text" id="v-1570" font-size="24px" xml:space="preserve" fill="#cccccc" text-anchor="middle" pointer-events="none" font-family="Tahoma, Verdana, Helvetica, Arial" font-weight="normal"  style="display: block;"><tspan dy="-0.3em" >Gestiona el portal</tspan><tspan dy="1.2em" x="0" >y audita activos</tspan></text></g><g id="v-1569"  label-idx="1" cursor="move" transform="matrix(1,0,0,1,900.411865234375,1229.5230712890625)" style="cursor: default;"><rect joint-selector="rect" id="v-1573" fill="#ffffff" rx="3" ry="3" x="-2.2737367544323206e-13" y="-5.684341886080802e-14" width="0" height="0"  display="none"></rect><text joint-selector="text" id="v-1572" fill="#000000" font-size="14" text-anchor="middle" text-vertical-anchor="middle" pointer-events="none"></text></g></g></g><!--z-index:35--><g   id="j_127"  style="opacity: 1;"><path fill="none" cursor="pointer" stroke="transparent" stroke-linecap="round" joint-selector="wrapper" id="v-1590" stroke-width="10" stroke-linejoin="round" d="M 600 1974.72 L 1785 1985 C 1791.6666666666665 1985 1796.9999999999998 1982.3333333333333 1801 1977 L 2242.25 1390"></path><path fill="none" pointer-events="none" joint-selector="line" id="v-1589" stroke="#cccccc" stroke-width="2" stroke-linejoin="round" stroke-dasharray="8 8" d="M 600 1974.72 L 1785 1985 C 1791.6666666666665 1985 1796.9999999999998 1982.3333333333333 1801 1977 L 2242.25 1390" marker-end="url(#v-2-527367903)"></path><g id="v-1579" ><g id="v-1580"  label-idx="0" cursor="move" transform="matrix(1,0,0,1,1568.9638671875,1969.725830078125)" style="cursor: default;"><rect joint-selector="rect" id="v-1584" fill="#111111" rx="3" ry="3" x="-91.57830810546875" y="-44.57872772216797" width="183.1566162109375" height="86.32341003417969" pointer-events="none"  style="display: block;"></rect><text joint-selector="text" id="v-1583" font-size="24px" xml:space="preserve" fill="#cccccc" text-anchor="middle" pointer-events="none" font-family="Tahoma, Verdana, Helvetica, Arial" font-weight="normal"  style="display: block;"><tspan dy="-0.8999999999999999em" >Define y versiona</tspan><tspan dy="1.2em" x="0" >plantillas de</tspan><tspan dy="1.2em" x="0" >software (YAML)</tspan></text></g><g id="v-1581"  label-idx="1" cursor="move" transform="matrix(1,0,0,1,1568.9638671875,2028.9259033203125)" style="cursor: default;"><rect joint-selector="rect" id="v-1586" fill="#111111" rx="3" ry="3" x="-30.787904739379883" y="-12.194046020507812" width="63.73185920715332" height="22.978727340698242"  pointer-events="none" style="display: block;"></rect><text joint-selector="text" id="v-1585" font-size="16.799999999999997px" xml:space="preserve" fill="#cccccc" text-anchor="middle" pointer-events="none" font-family="Tahoma, Verdana, Helvetica, Arial" font-weight="normal"  style="display: block;"><tspan dy="0.3em" >[HTTPS]</tspan></text></g><g id="v-1582"  label-idx="2" cursor="move" transform="matrix(1,0,0,1,1558.9638671875,2037.3258056640625)" style="cursor: default;"><rect joint-selector="rect" id="v-1588" fill="#ffffff" rx="3" ry="3" x="-2.2737367544323206e-13" y="-5.684341886080802e-14" width="0" height="0"  display="none"></rect><text joint-selector="text" id="v-1587" fill="#000000" font-size="14" text-anchor="middle" text-vertical-anchor="middle" pointer-events="none"></text></g></g></g><!--z-index:36--><g   id="j_128"  style="opacity: 1;"><path fill="none" cursor="pointer" stroke="transparent" stroke-linecap="round" joint-selector="wrapper" id="v-1605" stroke-width="10" stroke-linejoin="round" d="M 1590 618.56 L 1847 785 C 1852.333333333333 788.3333333333333 1857.333333333333 792.3333333333333 1862 797 L 2188.33 1090"></path><path fill="none" pointer-events="none" joint-selector="line" id="v-1604" stroke="#cccccc" stroke-width="2" stroke-linejoin="round" stroke-dasharray="8 8" d="M 1590 618.56 L 1847 785 C 1852.333333333333 788.3333333333333 1857.333333333333 792.3333333333333 1862 797 L 2188.33 1090" marker-end="url(#v-2-527367903)"></path><g id="v-1594" ><g id="v-1595"  label-idx="0" cursor="move" transform="matrix(1,0,0,1,1904.0889892578125,821.3901977539062)" style="cursor: default;"><rect joint-selector="rect" id="v-1599" fill="#111111" rx="3" ry="3" x="-98.82647705078125" y="-30.178728103637695" width="200.0503692626953" height="57.52341079711914" pointer-events="none"  style="display: block;"></rect><text joint-selector="text" id="v-1598" font-size="24px" xml:space="preserve" fill="#cccccc" text-anchor="middle" pointer-events="none" font-family="Tahoma, Verdana, Helvetica, Arial" font-weight="normal"  style="display: block;"><tspan dy="-0.3em" >Crea repositorios y</tspan><tspan dy="1.2em" x="0" >lanza workflows</tspan></text></g><g id="v-1596"  label-idx="1" cursor="move" transform="matrix(1,0,0,1,1904.0889892578125,866.190185546875)" style="cursor: default;"><rect joint-selector="rect" id="v-1601" fill="#111111" rx="3" ry="3" x="-46.76530075073242" y="-12.194046020507812" width="95.7081298828125" height="22.978727340698242"  pointer-events="none" style="display: block;"></rect><text joint-selector="text" id="v-1600" font-size="16.799999999999997px" xml:space="preserve" fill="#cccccc" text-anchor="middle" pointer-events="none" font-family="Tahoma, Verdana, Helvetica, Arial" font-weight="normal"  style="display: block;"><tspan dy="0.3em" >[API/HTTPS]</tspan></text></g><g id="v-1597"  label-idx="2" cursor="move" transform="matrix(1,0,0,1,1894.0889892578125,874.5901489257812)" style="cursor: default;"><rect joint-selector="rect" id="v-1603" fill="#ffffff" rx="3" ry="3" x="-2.2737367544323206e-13" y="-5.684341886080802e-14" width="0" height="0"  display="none"></rect><text joint-selector="text" id="v-1602" fill="#000000" font-size="14" text-anchor="middle" text-vertical-anchor="middle" pointer-events="none"></text></g></g></g><!--z-index:37--><g   id="j_129"  style="opacity: 1;"><path fill="none" cursor="pointer" stroke="transparent" stroke-linecap="round" joint-selector="wrapper" id="v-1620" stroke-width="10" stroke-linejoin="round" d="M 1590 1036.04 L 1860 1001 C 1866.6666666666665 1000.3333333333333 1872.9999999999998 998.3333333333333 1879 995 L 2130 852.58"></path><path fill="none" pointer-events="none" joint-selector="line" id="v-1619" stroke="#cccccc" stroke-width="2" stroke-linejoin="round" stroke-dasharray="8 8" d="M 1590 1036.04 L 1860 1001 C 1866.6666666666665 1000.3333333333333 1872.9999999999998 998.3333333333333 1879 995 L 2130 852.58" marker-end="url(#v-2-527367903)"></path><g id="v-1609" ><g id="v-1610"  label-idx="0" cursor="move" transform="matrix(1,0,0,1,1877.3392333984375,982.4842529296875)" style="cursor: default;"><rect joint-selector="rect" id="v-1614" fill="#111111" rx="3" ry="3" x="-84.68917846679688" y="-30.178728103637695" width="170.45687866210938" height="57.52341079711914" pointer-events="none"  style="display: block;"></rect><text joint-selector="text" id="v-1613" font-size="24px" xml:space="preserve" fill="#cccccc" text-anchor="middle" pointer-events="none" font-family="Tahoma, Verdana, Helvetica, Arial" font-weight="normal"  style="display: block;"><tspan dy="-0.3em" >Realiza scraping</tspan><tspan dy="1.2em" x="0" >de activos</tspan></text></g><g id="v-1611"  label-idx="1" cursor="move" transform="matrix(1,0,0,1,1877.3392333984375,1027.2843017578125)" style="cursor: default;"><rect joint-selector="rect" id="v-1616" fill="#111111" rx="3" ry="3" x="-55.180362701416016" y="-12.194046020507812" width="112.5399169921875" height="22.978727340698242"  pointer-events="none" style="display: block;"></rect><text joint-selector="text" id="v-1615" font-size="16.799999999999997px" xml:space="preserve" fill="#cccccc" text-anchor="middle" pointer-events="none" font-family="Tahoma, Verdana, Helvetica, Arial" font-weight="normal"  style="display: block;"><tspan dy="0.3em" >[HTTPS/HTML]</tspan></text></g><g id="v-1612"  label-idx="2" cursor="move" transform="matrix(1,0,0,1,1867.3392333984375,1035.6842041015625)" style="cursor: default;"><rect joint-selector="rect" id="v-1618" fill="#ffffff" rx="3" ry="3" x="-2.2737367544323206e-13" y="-5.684341886080802e-14" width="0" height="0"  display="none"></rect><text joint-selector="text" id="v-1617" fill="#000000" font-size="14" text-anchor="middle" text-vertical-anchor="middle" pointer-events="none"></text></g></g></g><!--z-index:38--><g   id="j_130"  style="opacity: 1;"><path fill="none" cursor="pointer" stroke="transparent" stroke-linecap="round" joint-selector="wrapper" id="v-1638" stroke-width="10" stroke-linejoin="round" d="M 1590 1144.55 L 1851 1237 C 1857 1239 1863.3333333333333 1240 1870 1240 L 2130 1240"></path><path fill="none" pointer-events="none" joint-selector="line" id="v-1637" stroke="#cccccc" stroke-width="2" stroke-linejoin="round" stroke-dasharray="8 8" d="M 1590 1144.55 L 1851 1237 C 1857 1239 1863.3333333333333 1240 1870 1240 L 2130 1240" marker-end="url(#v-2-527367903)"></path><g id="v-1627" ><g id="v-1628"  label-idx="0" cursor="move" transform="matrix(1,0,0,1,1852.164306640625,1223.9742431640625)" style="cursor: default;"><rect joint-selector="rect" id="v-1632" fill="#111111" rx="3" ry="3" x="-83.0959243774414" y="-58.97872543334961" width="164.27671813964844" height="115.1234130859375" pointer-events="none"  style="display: block;"></rect><text joint-selector="text" id="v-1631" font-size="24px" xml:space="preserve" fill="#cccccc" text-anchor="middle" pointer-events="none" font-family="Tahoma, Verdana, Helvetica, Arial" font-weight="normal"  style="display: block;"><tspan dy="-1.4999999999999998em" >Commitea</tspan><tspan dy="1.2em" x="0" >documentación</tspan><tspan dy="1.2em" x="0" >generada</tspan><tspan dy="1.2em" x="0" >(Markdown)</tspan></text></g><g id="v-1629"  label-idx="1" cursor="move" transform="matrix(1,0,0,1,1852.164306640625,1297.57421875)" style="cursor: default;"><rect joint-selector="rect" id="v-1634" fill="#111111" rx="3" ry="3" x="-74.70330047607422" y="-12.194046020507812" width="151.5764617919922" height="22.978727340698242"  pointer-events="none" style="display: block;"></rect><text joint-selector="text" id="v-1633" font-size="16.799999999999997px" xml:space="preserve" fill="#cccccc" text-anchor="middle" pointer-events="none" font-family="Tahoma, Verdana, Helvetica, Arial" font-weight="normal"  style="display: block;"><tspan dy="0.3em" >[GitHub API/HTTPS]</tspan></text></g><g id="v-1630"  label-idx="2" cursor="move" transform="matrix(1,0,0,1,1842.164306640625,1305.9742431640625)" style="cursor: default;"><rect joint-selector="rect" id="v-1636" fill="#ffffff" rx="3" ry="3" x="-2.2737367544323206e-13" y="-5.684341886080802e-14" width="0" height="0"  display="none"></rect><text joint-selector="text" id="v-1635" fill="#000000" font-size="14" text-anchor="middle" text-vertical-anchor="middle" pointer-events="none"></text></g></g></g><!--z-index:39--><g   id="j_131"  style="opacity: 1;"><path fill="none" cursor="pointer" stroke="transparent" stroke-linecap="round" joint-selector="wrapper" id="v-1653" stroke-width="10" stroke-linejoin="round" d="M 1590 1713.05 L 2130 1741.95"></path><path fill="none" pointer-events="none" joint-selector="line" id="v-1652" stroke="#cccccc" stroke-width="2" stroke-linejoin="round" stroke-dasharray="8 8" d="M 1590 1713.05 L 2130 1741.95" marker-end="url(#v-2-527367903)"></path><g id="v-1642" ><g id="v-1643"  label-idx="0" cursor="move" transform="matrix(1,0,0,1,1860,1714.0999755859375)" style="cursor: default;"><rect joint-selector="rect" id="v-1647" fill="#111111" rx="3" ry="3" x="-99.76896667480469" y="-44.57872772216797" width="197.6529083251953" height="86.32341003417969" pointer-events="none"  style="display: block;"></rect><text joint-selector="text" id="v-1646" font-size="24px" xml:space="preserve" fill="#cccccc" text-anchor="middle" pointer-events="none" font-family="Tahoma, Verdana, Helvetica, Arial" font-weight="normal"  style="display: block;"><tspan dy="-0.8999999999999999em" >Realiza scraping</tspan><tspan dy="1.2em" x="0" >de documentación</tspan><tspan dy="1.2em" x="0" >DESY</tspan></text></g><g id="v-1644"  label-idx="1" cursor="move" transform="matrix(1,0,0,1,1860,1773.300048828125)" style="cursor: default;"><rect joint-selector="rect" id="v-1649" fill="#111111" rx="3" ry="3" x="-55.180362701416016" y="-12.194046020507812" width="112.5399169921875" height="22.978727340698242"  pointer-events="none" style="display: block;"></rect><text joint-selector="text" id="v-1648" font-size="16.799999999999997px" xml:space="preserve" fill="#cccccc" text-anchor="middle" pointer-events="none" font-family="Tahoma, Verdana, Helvetica, Arial" font-weight="normal"  style="display: block;"><tspan dy="0.3em" >[HTTPS/HTML]</tspan></text></g><g id="v-1645"  label-idx="2" cursor="move" transform="matrix(1,0,0,1,1850,1781.699951171875)" style="cursor: default;"><rect joint-selector="rect" id="v-1651" fill="#ffffff" rx="3" ry="3" x="-2.2737367544323206e-13" y="-5.684341886080802e-14" width="0" height="0"  display="none"></rect><text joint-selector="text" id="v-1650" fill="#000000" font-size="14" text-anchor="middle" text-vertical-anchor="middle" pointer-events="none"></text></g></g></g><!--z-index:40--><g   id="j_132"  style="opacity: 1;"><path fill="none" cursor="pointer" stroke="transparent" stroke-linecap="round" joint-selector="wrapper" id="v-1671" stroke-width="10" stroke-linejoin="round" d="M 1590 1596.23 L 2130 1344.77"></path><path fill="none" pointer-events="none" joint-selector="line" id="v-1670" stroke="#cccccc" stroke-width="2" stroke-linejoin="round" stroke-dasharray="8 8" d="M 1590 1596.23 L 2130 1344.77" marker-end="url(#v-2-527367903)"></path><g id="v-1660" ><g id="v-1661"  label-idx="0" cursor="move" transform="matrix(1,0,0,1,1860,1457.0999755859375)" style="cursor: default;"><rect joint-selector="rect" id="v-1665" fill="#111111" rx="3" ry="3" x="-83.0959243774414" y="-58.97872543334961" width="164.27671813964844" height="115.1234130859375" pointer-events="none"  style="display: block;"></rect><text joint-selector="text" id="v-1664" font-size="24px" xml:space="preserve" fill="#cccccc" text-anchor="middle" pointer-events="none" font-family="Tahoma, Verdana, Helvetica, Arial" font-weight="normal"  style="display: block;"><tspan dy="-1.4999999999999998em" >Commitea</tspan><tspan dy="1.2em" x="0" >documentación</tspan><tspan dy="1.2em" x="0" >generada</tspan><tspan dy="1.2em" x="0" >(Markdown)</tspan></text></g><g id="v-1662"  label-idx="1" cursor="move" transform="matrix(1,0,0,1,1860,1530.699951171875)" style="cursor: default;"><rect joint-selector="rect" id="v-1667" fill="#111111" rx="3" ry="3" x="-74.70330047607422" y="-12.194046020507812" width="151.5764617919922" height="22.978727340698242"  pointer-events="none" style="display: block;"></rect><text joint-selector="text" id="v-1666" font-size="16.799999999999997px" xml:space="preserve" fill="#cccccc" text-anchor="middle" pointer-events="none" font-family="Tahoma, Verdana, Helvetica, Arial" font-weight="normal"  style="display: block;"><tspan dy="0.3em" >[GitHub API/HTTPS]</tspan></text></g><g id="v-1663"  label-idx="2" cursor="move" transform="matrix(1,0,0,1,1850,1539.0999755859375)" style="cursor: default;"><rect joint-selector="rect" id="v-1669" fill="#ffffff" rx="3" ry="3" x="-2.2737367544323206e-13" y="-5.684341886080802e-14" width="0" height="0"  display="none"></rect><text joint-selector="text" id="v-1668" fill="#000000" font-size="14" text-anchor="middle" text-vertical-anchor="middle" pointer-events="none"></text></g></g></g><!--z-index:41--><g   id="j_133"  style="opacity: 1;"><path fill="none" cursor="pointer" stroke="transparent" stroke-linecap="round" joint-selector="wrapper" id="v-1686" stroke-width="10" stroke-linejoin="round" d="M 2246.46 1090 L 1806 481 C 1802 475.66666666666663 1796.6666666666665 473 1790 473 L 1590 473"></path><path fill="none" pointer-events="none" joint-selector="line" id="v-1685" stroke="#cccccc" stroke-width="2" stroke-linejoin="round" stroke-dasharray="8 8" d="M 2246.46 1090 L 1806 481 C 1802 475.66666666666663 1796.6666666666665 473 1790 473 L 1590 473" marker-end="url(#v-2-527367903)"></path><g id="v-1675" ><g id="v-1676"  label-idx="0" cursor="move" transform="matrix(1,0,0,1,1962.17431640625,683.5337524414062)" style="cursor: default;"><rect joint-selector="rect" id="v-1680" fill="#111111" rx="3" ry="3" x="-89.5586929321289" y="-58.97872543334961" width="176.48171997070312" height="115.1234130859375" pointer-events="none"  style="display: block;"></rect><text joint-selector="text" id="v-1679" font-size="24px" xml:space="preserve" fill="#cccccc" text-anchor="middle" pointer-events="none" font-family="Tahoma, Verdana, Helvetica, Arial" font-weight="normal"  style="display: block;"><tspan dy="-1.4999999999999998em" >CI/CD publica</tspan><tspan dy="1.2em" x="0" >docs estáticos al</tspan><tspan dy="1.2em" x="0" >Cloud Storage</tspan><tspan dy="1.2em" x="0" >(techdocs-cli)</tspan></text></g><g id="v-1677"  label-idx="1" cursor="move" transform="matrix(1,0,0,1,1962.17431640625,757.1337890625)" style="cursor: default;"><rect joint-selector="rect" id="v-1682" fill="#111111" rx="3" ry="3" x="-43.24219512939453" y="-12.194046020507812" width="88.6478042602539" height="22.978727340698242"  pointer-events="none" style="display: block;"></rect><text joint-selector="text" id="v-1681" font-size="16.799999999999997px" xml:space="preserve" fill="#cccccc" text-anchor="middle" pointer-events="none" font-family="Tahoma, Verdana, Helvetica, Arial" font-weight="normal"  style="display: block;"><tspan dy="0.3em" >[HTTPS/S3]</tspan></text></g><g id="v-1678"  label-idx="2" cursor="move" transform="matrix(1,0,0,1,1952.17431640625,765.5337524414062)" style="cursor: default;"><rect joint-selector="rect" id="v-1684" fill="#ffffff" rx="3" ry="3" x="-2.2737367544323206e-13" y="-5.684341886080802e-14" width="0" height="0"  display="none"></rect><text joint-selector="text" id="v-1683" fill="#000000" font-size="14" text-anchor="middle" text-vertical-anchor="middle" pointer-events="none"></text></g></g></g><!--z-index:42--><g   id="j_134"  style="opacity: 1;"><path fill="none" cursor="pointer" stroke="transparent" stroke-linecap="round" joint-selector="wrapper" id="v-1704" stroke-width="10" stroke-linejoin="round" d="M 1573.08 323 L 1812 151 C 1817.3333333333333 147 1823.3333333333333 146 1830 148 L 2130 230.76"></path><path fill="none" pointer-events="none" joint-selector="line" id="v-1703" stroke="#cccccc" stroke-width="2" stroke-linejoin="round" stroke-dasharray="8 8" d="M 1573.08 323 L 1812 151 C 1817.3333333333333 147 1823.3333333333333 146 1830 148 L 2130 230.76" marker-end="url(#v-2-527367903)"></path><g id="v-1693" ><g id="v-1694"  label-idx="0" cursor="move" transform="matrix(1,0,0,1,1828.950927734375,134.30862426757812)" style="cursor: default;"><rect joint-selector="rect" id="v-1698" fill="#111111" rx="3" ry="3" x="-70.52943420410156" y="-44.57872772216797" width="139.91787719726562" height="86.32341003417969" pointer-events="none"  style="display: block;"></rect><text joint-selector="text" id="v-1697" font-size="24px" xml:space="preserve" fill="#cccccc" text-anchor="middle" pointer-events="none" font-family="Tahoma, Verdana, Helvetica, Arial" font-weight="normal"  style="display: block;"><tspan dy="-0.8999999999999999em" >Descubre</tspan><tspan dy="1.2em" x="0" >entidades de</tspan><tspan dy="1.2em" x="0" >catálogo</tspan></text></g><g id="v-1695"  label-idx="1" cursor="move" transform="matrix(1,0,0,1,1828.950927734375,193.5086212158203)" style="cursor: default;"><rect joint-selector="rect" id="v-1700" fill="#111111" rx="3" ry="3" x="-83.61204528808594" y="-12.194046020507812" width="169.40745544433594" height="22.978727340698242"  pointer-events="none" style="display: block;"></rect><text joint-selector="text" id="v-1699" font-size="16.799999999999997px" xml:space="preserve" fill="#cccccc" text-anchor="middle" pointer-events="none" font-family="Tahoma, Verdana, Helvetica, Arial" font-weight="normal"  style="display: block;"><tspan dy="0.3em" >[Bitbucket API/HTTPS]</tspan></text></g><g id="v-1696"  label-idx="2" cursor="move" transform="matrix(1,0,0,1,1818.950927734375,201.9086151123047)" style="cursor: default;"><rect joint-selector="rect" id="v-1702" fill="#ffffff" rx="3" ry="3" x="-2.2737367544323206e-13" y="-5.684341886080802e-14" width="0" height="0"  display="none"></rect><text joint-selector="text" id="v-1701" fill="#000000" font-size="14" text-anchor="middle" text-vertical-anchor="middle" pointer-events="none"></text></g></g></g><!--z-index:43--><!--z-index:44--><!--z-index:45--><!--z-index:46--><!--z-index:47--><!--z-index:48--><!--z-index:49--><!--z-index:50--><!--z-index:51--><!--z-index:52--><!--z-index:53--><!--z-index:54--><!--z-index:55--><!--z-index:56--><!--z-index:57--><!--z-index:58--><!--z-index:59--><!--z-index:60--><!--z-index:61--><!--z-index:62--><!--z-index:63--><!--z-index:64--><!--z-index:65--><!--z-index:66--><!--z-index:67--></g><g  style="user-select: none;"></g><g ></g><g  display="none"></g></g></svg>