<svg xmlns="http://www.w3.org/2000/svg" xmlns:xlink="http://www.w3.org/1999/xlink" version="1.1" viewBox="0 0 2380 1250" style="background: #111111"><style id="v-3" type="text/css">
        .joint-element .scalable * {
            vector-effect: non-scaling-stroke;
        }
    </style><defs joint-selector="defs"><marker id="v-2-527367903" orient="auto" overflow="visible" markerUnits="userSpaceOnUse"><path id="v-72" stroke="#cccccc" fill="#cccccc" transform="rotate(180)" d="M 20 -10 0 0 20 10 Z"></path></marker></defs><g joint-selector="layers"  transform="matrix(1,0,0,1,0,0)"><g  style="pointer-events: none;"></g><g ></g><g  style="user-select: none;"><!--z-index:0--><!--z-index:1--><!--z-index:2--><!--z-index:3--><!--z-index:4--><!--z-index:5--><!--z-index:6--><!--z-index:7--><!--z-index:8--><!--z-index:9--><g   id="j_3"  transform="translate(20,1206)"><g id="v-8"><text  id="v-9" font-size="24px" xml:space="preserve" y="0.8em" font-weight="normal" text-anchor="start" fill="#cccccc" pointer-events="none" display="block" font-family="Tahoma, Verdana, Helvetica, Arial"><tspan dy="0"  display="block">lunes, 2 de marzo de 2026, 20:33 hora estándar de Europa central</tspan></text></g></g><!--z-index:10--><g   id="j_2"  transform="translate(20,1172)"><g id="v-6"><text  id="v-7" font-size="24px" xml:space="preserve" y="0.8em" font-weight="normal" text-anchor="start" fill="#cccccc" pointer-events="none" display="block" font-family="Tahoma, Verdana, Helvetica, Arial"><tspan dy="0"  display="block">SYSTEM CONTEXT DIAGRAM - LEVEL 1</tspan></text></g></g><!--z-index:11--><g   id="j_1"  transform="translate(20,1126)"><g id="v-4"><text  id="v-5" font-size="36px" xml:space="preserve" y="0.8em" font-weight="normal" text-anchor="start" fill="#cccccc" pointer-events="none" display="block" font-family="Tahoma, Verdana, Helvetica, Arial"><tspan dy="0"  display="block">System Context View: BACKSTAGE</tspan></text></g></g><!--z-index:12--><g   id="j_4"  transform="translate(200,143)" style=""><g  id="v-13" style="opacity: 1;"><rect  x="0" y="160" width="400" height="240" rx="70" id="v-15" stroke-width="2" pointer-events="visiblePainted" fill="#08427b" stroke="#073b6f" stroke-dasharray=""></rect><circle  cx="200" cy="88.88888888888889" r="88.88888888888889" id="v-14" stroke-width="2" pointer-events="visiblePainted" fill="#08427b" stroke="#073b6f" stroke-dasharray=""></circle><line  x1="80" y1="266.6666666666667" x2="80" y2="400" id="v-21" stroke="#073b6f" stroke-width="1" stroke-dasharray=""></line><line  x1="320" y1="266.6666666666667" x2="320" y2="400" id="v-22" stroke="#073b6f" stroke-width="1" stroke-dasharray=""></line><text  id="v-16" font-size="33.599999999999994px" xml:space="preserve" y="202.5" font-weight="bold" text-anchor="middle" pointer-events="visible" font-family="Tahoma, Verdana, Helvetica, Arial" fill="#ffffff" dominant-baseline="hanging" transform="matrix(1,0,0,1,200,0)"><tspan dy="0" >Desarrollador</tspan></text><text  id="v-17" font-size="16.799999999999997px" xml:space="preserve" y="244.1" text-anchor="middle" font-family="Tahoma, Verdana, Helvetica, Arial" fill="#ffffff" dominant-baseline="hanging" transform="matrix(1,0,0,1,200,0)" style="display: block;"><tspan dy="0" >[Person]</tspan></text><text  id="v-18" font-size="24px" xml:space="preserve" y="275.9" text-anchor="middle" font-family="Tahoma, Verdana, Helvetica, Arial" fill="#ffffff" dominant-baseline="hanging" transform="matrix(1,0,0,1,200,0)" style="display: block;"><tspan dy="0" >Crea y mantiene servicios</tspan><tspan dy="1.2em" x="0" >digitales siguiendo los</tspan><tspan dy="1.2em" x="0" >estándares de la organización.</tspan></text><g  id="v-19" font-weight="normal" text-anchor="middle" color="#ffffff" transform="matrix(1,0,0,1,197.5,368)" display="none"><g ></g><g ></g><g ></g><g ></g></g><image  id="v-20"></image></g></g><!--z-index:13--><g   id="j_5"  transform="translate(200,593)" style=""><g  id="v-29" style="opacity: 1;"><rect  x="0" y="160" width="400" height="240" rx="70" id="v-31" stroke-width="2" pointer-events="visiblePainted" fill="#08427b" stroke="#073b6f" stroke-dasharray=""></rect><circle  cx="200" cy="88.88888888888889" r="88.88888888888889" id="v-30" stroke-width="2" pointer-events="visiblePainted" fill="#08427b" stroke="#073b6f" stroke-dasharray=""></circle><line  x1="80" y1="266.6666666666667" x2="80" y2="400" id="v-37" stroke="#073b6f" stroke-width="1" stroke-dasharray=""></line><line  x1="320" y1="266.6666666666667" x2="320" y2="400" id="v-38" stroke="#073b6f" stroke-width="1" stroke-dasharray=""></line><text  id="v-32" font-size="33.599999999999994px" xml:space="preserve" y="167.94" font-weight="bold" text-anchor="middle" pointer-events="visible" font-family="Tahoma, Verdana, Helvetica, Arial" fill="#ffffff" dominant-baseline="hanging" transform="matrix(1,0,0,1,200,0)"><tspan dy="0" >Responsable de</tspan><tspan dy="1.2em" x="0" >Gobernanza</tspan></text><text  id="v-33" font-size="16.799999999999997px" xml:space="preserve" y="249.85999999999999" text-anchor="middle" font-family="Tahoma, Verdana, Helvetica, Arial" fill="#ffffff" dominant-baseline="hanging" transform="matrix(1,0,0,1,200,0)" style="display: block;"><tspan dy="0" >[Person]</tspan></text><text  id="v-34" font-size="24px" xml:space="preserve" y="281.65999999999997" text-anchor="middle" font-family="Tahoma, Verdana, Helvetica, Arial" fill="#ffffff" dominant-baseline="hanging" transform="matrix(1,0,0,1,200,0)" style="display: block;"><tspan dy="0" >Define estándares tecnológicos,</tspan><tspan dy="1.2em" x="0" >gestiona el catálogo de</tspan><tspan dy="1.2em" x="0" >servicios y supervisa el</tspan><tspan dy="1.2em" x="0" >cumplimiento normativo.</tspan></text><g  id="v-35" font-weight="normal" text-anchor="middle" color="#ffffff" transform="matrix(1,0,0,1,197.5,368)" display="none"><g ></g><g ></g><g ></g><g ></g></g><image  id="v-36"></image></g></g><!--z-index:14--><g   id="j_6"  transform="translate(940,418)" style=""><g  id="v-42" style="opacity: 1;"><rect  id="v-43" rx="20" ry="20" stroke-width="2" pointer-events="visiblePainted" fill="#1168bd" stroke="#0f5eaa" stroke-dasharray="" width="450" height="300"></rect><text  id="v-44" font-size="33.599999999999994px" xml:space="preserve" y="58.10000000000001" font-weight="bold" text-anchor="middle" pointer-events="visible" font-family="Tahoma, Verdana, Helvetica, Arial" fill="#ffffff" dominant-baseline="hanging" transform="matrix(1,0,0,1,225,0)"><tspan dy="0" >BACKSTAGE</tspan></text><text  id="v-45" font-size="16.799999999999997px" xml:space="preserve" y="99.7" text-anchor="middle" font-family="Tahoma, Verdana, Helvetica, Arial" fill="#ffffff" dominant-baseline="hanging" transform="matrix(1,0,0,1,225,0)" style="display: block;"><tspan dy="0" >[Software System]</tspan></text><text  id="v-46" font-size="24px" xml:space="preserve" y="131.5" text-anchor="middle" font-family="Tahoma, Verdana, Helvetica, Arial" fill="#ffffff" dominant-baseline="hanging" transform="matrix(1,0,0,1,225,0)" style="display: block;"><tspan dy="0" >Portal de autoservicio para</tspan><tspan dy="1.2em" x="0" >desarrolladores que centraliza el</tspan><tspan dy="1.2em" x="0" >catálogo, plantillas y</tspan><tspan dy="1.2em" x="0" >documentación.</tspan></text><g  id="v-47" color="#ffffff" transform="matrix(1,0,0,1,210,268)" display="none"><g  transform="translate(5 0)"><svg xmlns="http://www.w3.org/2000/svg" width="20" height="20" fill="currentColor" viewBox="0 0 16 16"><path fill-rule="evenodd" d="M6.5 12a5.5 5.5 0 1 0 0-11 5.5 5.5 0 0 0 0 11zM13 6.5a6.5 6.5 0 1 1-13 0 6.5 6.5 0 0 1 13 0z"></path><path d="M10.344 11.742c.03.04.062.078.098.115l3.85 3.85a1 1 0 0 0 1.415-1.414l-3.85-3.85a1.007 1.007 0 0 0-.115-.1 6.538 6.538 0 0 1-1.398 1.4z"></path><path fill-rule="evenodd" d="M6.5 3a.5.5 0 0 1 .5.5V6h2.5a.5.5 0 0 1 0 1H7v2.5a.5.5 0 0 1-1 0V7H3.5a.5.5 0 0 1 0-1H6V3.5a.5.5 0 0 1 .5-.5z"></path></svg></g><g ></g><g ></g><g ></g></g><image  id="v-48"></image></g></g><!--z-index:15--><g   id="j_7"  transform="translate(1730,418)" style=""><g  id="v-52" style="opacity: 1;"><rect  id="v-53" rx="20" ry="20" stroke-width="2" pointer-events="visiblePainted" fill="#999999" stroke="#8a8a8a" stroke-dasharray="" width="450" height="300"></rect><text  id="v-54" font-size="33.599999999999994px" xml:space="preserve" y="86.9" font-weight="bold" text-anchor="middle" pointer-events="visible" font-family="Tahoma, Verdana, Helvetica, Arial" fill="#ffffff" dominant-baseline="hanging" transform="matrix(1,0,0,1,225,0)"><tspan dy="0" >GITHUB</tspan></text><text  id="v-55" font-size="16.799999999999997px" xml:space="preserve" y="128.5" text-anchor="middle" font-family="Tahoma, Verdana, Helvetica, Arial" fill="#ffffff" dominant-baseline="hanging" transform="matrix(1,0,0,1,225,0)" style="display: block;"><tspan dy="0" >[Software System]</tspan></text><text  id="v-56" font-size="24px" xml:space="preserve" y="160.3" text-anchor="middle" font-family="Tahoma, Verdana, Helvetica, Arial" fill="#ffffff" dominant-baseline="hanging" transform="matrix(1,0,0,1,225,0)" style="display: block;"><tspan dy="0" >Plataforma de control de versiones y</tspan><tspan dy="1.2em" x="0" >ejecución de pipelines (CI/CD).</tspan></text><g  id="v-57" color="#ffffff" transform="matrix(1,0,0,1,222.5,268)" display="none"><g ></g><g ></g><g ></g><g ></g></g><image  id="v-58"></image></g></g><!--z-index:16--><g   id="j_8"  style="opacity: 1;"><path fill="none" cursor="pointer" stroke="transparent" stroke-linecap="round" joint-selector="wrapper" id="v-70" stroke-width="10" stroke-linejoin="round" d="M 600 343 L 760 343 C 766.6666666666665 343 772.9999999999999 344.66666666666663 779 348 L 940 439.84"></path><path fill="none" pointer-events="none" joint-selector="line" id="v-69" stroke="#cccccc" stroke-width="2" stroke-linejoin="round" stroke-dasharray="8 8" d="M 600 343 L 760 343 C 766.6666666666665 343 772.9999999999999 344.66666666666663 779 348 L 940 439.84" marker-end="url(#v-2-527367903)"></path><g id="v-62" ><g id="v-63"  label-idx="0" cursor="move" transform="matrix(1,0,0,1,769.712890625,344.2402648925781)" style="cursor: default;"><rect joint-selector="rect" id="v-66" fill="#111111" rx="3" ry="3" x="-91.53368377685547" y="-45.240657806396484" width="185.29110717773438" height="85.96879577636719" pointer-events="none"  style="display: block;"></rect><text joint-selector="text" id="v-65" font-size="24px" xml:space="preserve" fill="#cccccc" text-anchor="middle" pointer-events="none" font-family="Tahoma, Verdana, Helvetica, Arial" font-weight="normal"  style="display: block;"><tspan dy="-0.8999999999999999em" >Utiliza plantillas y</tspan><tspan dy="1.2em" x="0" >consulta el</tspan><tspan dy="1.2em" x="0" >catálogo</tspan></text></g><g id="v-64"  label-idx="1" cursor="move" transform="matrix(1,0,0,1,759.712890625,385.0402526855469)" style="cursor: default;"><rect joint-selector="rect" id="v-68" fill="#ffffff" rx="3" ry="3" x="0" y="0" width="0" height="0"  display="none"></rect><text joint-selector="text" id="v-67" fill="#000000" font-size="14" text-anchor="middle" text-vertical-anchor="middle" pointer-events="none"></text></g></g></g><!--z-index:17--><g   id="j_9"  style="opacity: 1;"><path fill="none" cursor="pointer" stroke="transparent" stroke-linecap="round" joint-selector="wrapper" id="v-84" stroke-width="10" stroke-linejoin="round" d="M 600 793 L 760 793 C 766.6666666666665 793 772.9999999999999 791.3333333333333 779 788 L 940 696.16"></path><path fill="none" pointer-events="none" joint-selector="line" id="v-83" stroke="#cccccc" stroke-width="2" stroke-linejoin="round" stroke-dasharray="8 8" d="M 600 793 L 760 793 C 766.6666666666665 793 772.9999999999999 791.3333333333333 779 788 L 940 696.16" marker-end="url(#v-2-527367903)"></path><g id="v-76" ><g id="v-77"  label-idx="0" cursor="move" transform="matrix(1,0,0,1,769.712890625,791.759765625)" style="cursor: default;"><rect joint-selector="rect" id="v-80" fill="#111111" rx="3" ry="3" x="-93.01122283935547" y="-30.840660095214844" width="186.02244567871094" height="57.168792724609375" pointer-events="none"  style="display: block;"></rect><text joint-selector="text" id="v-79" font-size="24px" xml:space="preserve" fill="#cccccc" text-anchor="middle" pointer-events="none" font-family="Tahoma, Verdana, Helvetica, Arial" font-weight="normal"  style="display: block;"><tspan dy="-0.3em" >Gestiona el portal</tspan><tspan dy="1.2em" x="0" >y audita activos</tspan></text></g><g id="v-78"  label-idx="1" cursor="move" transform="matrix(1,0,0,1,759.712890625,818.1597290039062)" style="cursor: default;"><rect joint-selector="rect" id="v-82" fill="#ffffff" rx="3" ry="3" x="0" y="0" width="0" height="0"  display="none"></rect><text joint-selector="text" id="v-81" fill="#000000" font-size="14" text-anchor="middle" text-vertical-anchor="middle" pointer-events="none"></text></g></g></g><!--z-index:18--><g   id="j_10"  style="opacity: 1;"><path fill="none" cursor="pointer" stroke="transparent" stroke-linecap="round" joint-selector="wrapper" id="v-99" stroke-width="10" stroke-linejoin="round" d="M 1390 568 L 1730 568"></path><path fill="none" pointer-events="none" joint-selector="line" id="v-98" stroke="#cccccc" stroke-width="2" stroke-linejoin="round" stroke-dasharray="8 8" d="M 1390 568 L 1730 568" marker-end="url(#v-2-527367903)"></path><g id="v-88" ><g id="v-89"  label-idx="0" cursor="move" transform="matrix(1,0,0,1,1560,554.5999755859375)" style="cursor: default;"><rect joint-selector="rect" id="v-93" fill="#111111" rx="3" ry="3" x="-98.86598205566406" y="-30.840660095214844" width="199.9600372314453" height="57.168792724609375" pointer-events="none"  style="display: block;"></rect><text joint-selector="text" id="v-92" font-size="24px" xml:space="preserve" fill="#cccccc" text-anchor="middle" pointer-events="none" font-family="Tahoma, Verdana, Helvetica, Arial" font-weight="normal"  style="display: block;"><tspan dy="-0.3em" >Crea repositorios y</tspan><tspan dy="1.2em" x="0" >lanza workflows</tspan></text></g><g id="v-90"  label-idx="1" cursor="move" transform="matrix(1,0,0,1,1560,599.4000244140625)" style="cursor: default;"><rect joint-selector="rect" id="v-95" fill="#111111" rx="3" ry="3" x="-46.80112075805664" y="-11.508462905883789" width="94.23726654052734" height="21.276596069335938"  pointer-events="none" style="display: block;"></rect><text joint-selector="text" id="v-94" font-size="16.799999999999997px" xml:space="preserve" fill="#cccccc" text-anchor="middle" pointer-events="none" font-family="Tahoma, Verdana, Helvetica, Arial" font-weight="normal"  style="display: block;"><tspan dy="0.3em" >[API/HTTPS]</tspan></text></g><g id="v-91"  label-idx="2" cursor="move" transform="matrix(1,0,0,1,1550,607.7999877929688)" style="cursor: default;"><rect joint-selector="rect" id="v-97" fill="#ffffff" rx="3" ry="3" x="0" y="0" width="0" height="0"  display="none"></rect><text joint-selector="text" id="v-96" fill="#000000" font-size="14" text-anchor="middle" text-vertical-anchor="middle" pointer-events="none"></text></g></g></g><!--z-index:19--></g><g  style="user-select: none;"></g><g ></g><g  display="none"></g></g></svg>